<?xml version="1.0" encoding="UTF-8"?>
<svg width="45px" height="37px" viewBox="0 0 45 37" version="1.1" xmlns="http://www.w3.org/2000/svg" xmlns:xlink="http://www.w3.org/1999/xlink">
    <!-- Generator: sketchtool 41.2 (35397) - http://www.bohemiancoding.com/sketch -->
    <title>22D9B867-D62E-4169-9BCD-E0C01384236B</title>
    <desc>Created with sketchtool.</desc>
    <defs></defs>
    <g id="Symbols" stroke="none" stroke-width="1" fill="none" fill-rule="evenodd">
        <g id="Header-Bar-Opt-2" transform="translate(-127.000000, -17.000000)" fill="#222222">
            <g id="Header" transform="translate(0.000000, 15.000000)">
                <path d="M148.12505,13.7582265 C148.109687,13.8211183 148.103778,13.8882941 148.077687,13.946264 C147.391246,15.4745356 146.703441,17.002078 146.014454,18.5290735 C145.244651,20.2350829 144.473393,21.9404542 143.703044,23.6462813 C143.57741,23.9245549 143.453595,24.2035577 143.304507,24.4757244 C143.324779,24.3485735 143.345597,24.2213315 143.365324,24.0940894 C143.529775,23.0287564 143.294325,22.068152 142.597157,21.2392559 C142.258618,20.836657 141.845716,20.5182784 141.38318,20.2657996 C140.58065,19.8276532 139.717757,19.5926747 138.813411,19.4997953 C138.540053,19.4717218 138.265058,19.4603284 137.991245,19.435992 C137.887793,19.4267861 137.840612,19.4723599 137.798158,19.562596 C137.479528,20.2403694 137.155352,20.9154996 136.832631,21.591359 C136.351277,22.5994513 135.870286,23.6078171 135.388113,24.6156359 C135.133573,25.1472998 134.875578,25.6772319 134.621401,26.209078 C134.160864,27.1727815 133.702419,28.1373964 133.242246,29.1013733 C133.009523,29.5888306 132.774436,30.0752853 132.541259,30.5627425 C132.048541,31.5927103 131.556642,32.6232249 131.064015,33.6534661 C130.833656,34.1352722 130.602569,34.6168049 130.371392,35.0982465 C130.265121,35.3197351 130.149123,35.537031 130.054671,35.7632593 C130.008853,35.8729098 129.9354,35.9089131 129.834493,35.9195774 C129.233414,35.9834719 128.678152,35.8661649 128.179888,35.5084106 C127.386267,34.9385559 127.027638,34.1492178 127.00182,33.1882488 C126.98173,32.4425704 127.129909,31.7233248 127.349723,31.0172956 C127.585718,30.2594945 127.899621,29.5331394 128.247342,28.8202741 C128.842148,27.6008106 129.43041,26.3780657 130.020489,25.15605 C130.37021,24.4318824 130.717749,23.7065299 131.066924,22.9819977 C131.608095,21.8593329 132.149994,20.7370326 132.691347,19.614459 C133.040613,18.8901091 133.389515,18.1653946 133.738872,17.4409536 C134.280135,16.3182888 134.821942,15.1958062 135.363114,14.0731414 C135.71238,13.3487004 136.060828,12.6238948 136.409912,11.8993626 C136.948356,10.7822578 137.486982,9.66515293 138.025517,8.5480481 C138.382783,7.80701822 138.744412,7.06799358 139.096133,6.32422927 C139.329492,5.83066508 139.557488,5.33409303 139.771756,4.83196097 C139.941208,4.43492208 140.035388,4.01427597 140.066387,3.58342132 C140.080387,3.38745401 140.050933,3.19002834 139.969389,3.00809775 C139.871573,2.79016387 139.70503,2.65790872 139.461217,2.63822084 C139.394127,2.63275199 139.326583,2.63092904 139.259312,2.63083789 C138.559871,2.63038215 137.86052,2.63074674 137.161079,2.63019985 C137.107353,2.63010871 137.053536,2.62463985 136.989355,2.62099395 L136.989355,2.04658185 C137.136989,2.00237527 156.994698,1.97977067 157.737229,2.02379496 C157.725775,2.06453793 157.720411,2.10464287 157.703957,2.13927895 C157.295147,2.99852725 156.883973,3.85659064 156.475526,4.71602124 C155.879992,5.96893597 155.286731,7.22294448 154.691742,8.47613266 C154.428474,9.03067458 154.164389,9.58476076 153.898121,10.1379355 C153.868849,10.1987309 153.858394,10.2807637 153.744306,10.3125742 C153.757669,10.2363749 153.764942,10.1796811 153.77776,10.1241722 C153.882939,9.66952802 153.955574,9.20987073 153.993846,8.7445623 C154.063481,7.89771007 153.990028,7.0653503 153.734851,6.25349874 C153.522037,5.57636332 153.178589,4.97406006 152.698599,4.44786504 C152.118428,3.81192832 151.409805,3.37724548 150.610002,3.08548205 C149.944833,2.84284718 149.256119,2.70320907 148.548406,2.6682084 C148.193867,2.65061691 147.839056,2.63311658 147.484244,2.63229625 C145.962819,2.6283769 144.441303,2.63065559 142.919787,2.63065559 L142.677337,2.63065559 C142.73879,2.68835202 142.772971,2.72462875 142.811334,2.75589238 C143.284234,3.14190241 143.634591,3.61176822 143.803315,4.20677967 C143.933858,4.66698384 143.958312,5.13420637 143.918131,5.60999678 C143.822769,6.74113833 143.439686,7.78696575 142.982149,8.80955053 C142.763971,9.29691668 142.516158,9.77097528 142.284253,10.2522345 C141.708719,11.446906 141.135185,12.6424889 140.559923,13.8372514 C140.250838,14.4789305 139.93948,15.1196068 139.629759,15.7610124 C139.17595,16.700744 138.722504,17.6407491 138.269785,18.5811188 C138.238422,18.6461981 138.214059,18.7148323 138.180423,18.7964094 C138.39551,18.7964094 138.596415,18.8136363 138.793321,18.7928546 C139.218494,18.7481011 139.643122,18.6935037 140.065205,18.6255076 C140.933279,18.4855961 141.770263,18.229836 142.58652,17.9065355 C143.924131,17.3766945 145.156925,16.6644673 146.262359,15.7396839 C146.960891,15.1554278 147.590879,14.503358 148.126959,13.7636042 L148.12505,13.7582265 Z M148.307456,13.7416012 C149.81679,13.7404162 151.326125,13.7406897 152.835369,13.7405985 L152.987366,13.7405985 C154.514791,16.2525349 156.039034,18.7590935 157.57655,21.2874365 C157.711911,21.1453374 157.838454,21.0165458 157.960452,20.8836527 C158.283991,20.5314584 158.605167,20.17735 158.927797,19.8244265 C159.250609,19.4715031 159.573694,19.1189442 159.897142,18.7665676 C160.208136,18.4276809 160.520039,18.0897057 160.830851,17.7506366 C161.162208,17.3890542 161.49202,17.0260133 161.823923,16.6649777 C162.210007,16.2449696 162.599181,15.8279694 162.98381,15.4069587 C163.620707,14.7099531 164.269967,14.0232472 164.836683,13.2656285 C165.338492,12.5946911 165.430581,11.8486481 165.180677,11.0649611 C164.980317,10.4364074 164.50569,10.1066354 163.876065,9.98513565 C163.720705,9.95514809 163.561799,9.94421038 163.381348,9.92160578 C163.353257,9.15104408 163.396893,8.37510467 163.385711,7.58950362 C163.57398,7.58950362 163.744704,7.57656066 163.912792,7.59187345 C164.407964,7.6371738 164.895864,7.72467549 165.356946,7.9208251 C166.67983,8.48366145 167.496723,9.46614129 167.759082,10.8874968 C167.899079,11.6454801 167.861352,12.4020962 167.645993,13.146134 C167.512995,13.6058824 167.30409,14.0310859 167.011369,14.4057936 C166.634103,14.8887847 166.246202,15.3645751 165.839482,15.8226829 C165.297947,16.4324602 164.735594,17.0236435 164.17906,17.6200221 C163.814885,18.0101338 163.444801,18.3947766 163.078444,18.7828831 C162.910266,18.9611677 162.744723,19.1420046 162.571727,19.3284925 C162.637089,19.3828165 162.70627,19.3620348 162.768359,19.362126 C164.026062,19.3635843 165.283856,19.365225 166.54165,19.3605765 C166.676557,19.3600296 166.762919,19.395486 166.848281,19.5079621 C167.394816,20.22739 168.10153,20.7364493 168.958604,21.0097098 C169.622864,21.2215368 170.302487,21.3856024 170.975929,21.5682622 C171.317286,21.6608681 171.660188,21.7477318 172,21.867682 L157.976542,21.867682 C158.004178,22.0044945 159.225246,24.0337133 159.961232,25.216809 C160.6454,26.3165957 161.309206,27.4292343 161.982102,28.5361306 C162.658089,29.6482223 163.333985,30.7604052 164.010336,31.8722235 C164.683595,32.9788463 165.358128,34.0848312 166.031206,35.1915452 C166.703375,36.2970742 167.374362,37.4032414 168.059258,38.5311016 C167.994986,38.5368439 167.955623,38.5435888 167.916169,38.54368 C166.376199,38.5442269 164.836138,38.5429508 163.296258,38.5466878 C163.188897,38.5469613 163.132625,38.5092262 163.07899,38.4199016 C162.551545,37.5406919 162.020192,36.6639433 161.488929,35.7870123 C160.388132,33.9704409 159.286335,32.1543253 158.185902,30.3374804 C157.225284,28.7516947 156.265939,27.1650886 155.306048,25.5788472 C154.362157,24.0188562 153.418721,22.458683 152.474376,20.8990566 C151.434487,19.1817449 150.39387,17.4649801 149.353527,15.7481241 C148.984443,15.139076 148.615268,14.5300278 148.244821,13.9217999 C148.210185,13.8648327 148.165731,13.8136989 148.125459,13.7591015 C148.187094,13.7559113 148.247275,13.7416923 148.307456,13.7416012 Z M145.371158,38.5345743 C145.443702,38.4091553 145.502973,38.3044267 145.564336,38.2007919 C146.534044,36.5646927 147.504117,34.9286846 148.473916,33.2925854 C148.542733,33.1765546 148.612277,33.0607971 148.678276,32.9431256 C148.711912,32.8832416 148.75582,32.85134 148.826182,32.8598167 C148.850363,32.8626423 148.875181,32.8600901 148.899726,32.8600901 L153.369913,32.8600901 L153.561,32.8600901 C153.524728,32.9377479 153.50191,32.9981787 153.470002,33.0532319 C153.032283,33.8063844 152.59311,34.5587166 152.154754,35.3115045 C151.568129,36.3186853 150.981868,37.3262308 150.395516,38.333685 C150.383152,38.3548313 150.368971,38.3754306 150.360153,38.3980352 C150.313335,38.5181678 150.227064,38.5474261 150.100976,38.5470615 C148.586459,38.5426865 147.071852,38.544236 145.557245,38.5438714 C145.504519,38.5438714 145.451793,38.5387671 145.371158,38.5345743 Z M161.334005,7.73020815 C160.717562,8.03691978 160.295934,8.52866101 159.974849,9.11519573 C159.878488,9.29111058 159.809762,9.48516379 159.750854,9.67794094 C159.691582,9.87217645 159.729763,10.0584821 159.889215,10.1993963 C160.003667,10.300479 160.123392,10.3962751 160.246481,10.4865112 C160.840742,10.9219232 160.927468,11.7435276 160.548838,12.2740065 C160.126574,12.8654632 159.292317,13.0032784 158.705874,12.5745201 C158.286609,12.2679908 158.079341,11.8557302 158.069704,11.3325431 C158.058523,10.7289638 158.285518,10.2062324 158.590512,9.70938686 C158.917961,9.17626462 159.327953,8.71578701 159.841852,8.35447797 C160.273207,8.0511388 160.746835,7.8435046 161.263097,7.73549471 C161.286097,7.73066388 161.310369,7.7318488 161.334005,7.73020815 Z" id="F2X-Logo"></path>
            </g>
        </g>
    </g>
</svg>