<?xml version="1.0" encoding="UTF-8"?>
<svg width="75px" height="47px" viewBox="0 0 75 47" version="1.1" xmlns="http://www.w3.org/2000/svg" xmlns:xlink="http://www.w3.org/1999/xlink">
    <!-- Generator: Sketch 41.2 (35397) - http://www.bohemiancoding.com/sketch -->
    <title>alipay</title>
    <desc>Created with Sketch.</desc>
    <defs></defs>
    <g id="Page-1" stroke="none" stroke-width="1" fill="none" fill-rule="evenodd">
        <g id="iPad-Pro-Portrait" transform="translate(-1235.000000, -360.000000)" fill="#393939">
            <g id="mono" transform="translate(33.000000, 358.000000)">
                <g id="alipay" transform="translate(1202.000000, 2.000000)">
                    <path d="M0,3.99200637 C0,1.78719745 1.7914,0 3.9992,0 L71.0008,0 C73.2095,0 75,1.7867983 75,3.99200637 L75,43.0079936 C75,45.2128025 73.2086,47 71.0008,47 L3.9992,47 C1.7905,47 0,45.2132017 0,43.0079936 L0,3.99200637 Z M9.946,24.2833333 C9.466,24.3432059 8.6257,24.5228238 8.1456,24.9419321 C6.7053,26.1992569 7.5456,28.4143439 10.4862,28.4143439 C12.1665,28.4143439 13.8469,27.3366369 15.1672,25.6602038 C13.2468,24.7621146 11.6864,24.1035159 9.946,24.2831338 L9.946,24.2833333 Z M20.7034,25.8247537 C23.404,26.7228429 24.0041,26.7827155 24.0041,26.7827155 L24.0041,17.2032972 C24.0041,15.5867367 22.6839,14.2695393 21.0036,14.2695393 L8.4007,14.2695393 C6.7803,14.2696391 5.4,15.5868365 5.4,17.203397 L5.4,29.7762463 C5.4,31.3928068 6.7203,32.7100042 8.4007,32.7100042 L21.0035,32.7100042 C22.6238,32.7100042 24.0041,31.3928068 24.0041,29.7762463 L24.0041,29.6565011 C24.0041,29.6565011 19.2031,27.6807049 16.7426,26.4832527 C15.1223,28.4590488 13.0218,29.7163737 10.8013,29.7163737 C7.0805,29.7163737 5.8203,26.4832527 7.6206,24.3877113 C7.9806,23.9087304 8.6408,23.4896221 9.661,23.2501316 C11.2213,22.8910955 13.742,23.4896221 16.0824,24.267966 C16.5024,23.4896221 16.8624,22.6516051 17.1026,21.7535159 L9.841,21.7535159 L9.841,21.0350446 L13.5618,21.0350446 L13.5618,19.5981019 L9.0008,19.5981019 L9.0008,18.8796306 L13.5618,18.8796306 L13.5618,17.0235796 C13.5618,17.0235796 13.5618,16.7242166 13.8618,16.7242166 L15.6623,16.7242166 L15.6623,18.9395032 L20.1633,18.9395032 L20.1633,19.5981019 L15.6623,19.5981019 L15.6623,20.9152994 L19.3231,20.9152994 C18.9631,22.352242 18.4231,23.6694395 17.7628,24.8070191 C18.9631,25.2261274 19.9833,25.5853631 20.7035,25.8248535 L20.7034,25.8247537 Z M32.5689,18.6216794 L36.5297,27.1831635 L34.4292,27.1831635 L33.349,24.9080042 L30.1083,24.9080042 L29.0281,27.1831635 L27.648,27.1831635 L31.669,18.8610701 C31.669,18.8610701 31.789,18.6215796 32.029,18.6215796 L32.569,18.6215796 L32.5689,18.6216794 Z M30.4683,24.1297601 L32.9889,24.1297601 L31.7286,21.4356921 L30.4683,24.1299597 L30.4683,24.1297601 Z M39.2131,27.2514183 L37.2927,27.2514183 L37.2927,19.1089427 C37.2927,18.8694522 37.4127,18.749707 37.7127,18.749707 L39.2131,18.749707 L39.2131,27.2514183 Z M42.8139,27.1955372 L40.8935,27.1955372 L40.8935,21.0289575 C40.8935,20.7894671 41.0135,20.6697219 41.3135,20.6697219 L42.8139,20.6697219 L42.8139,27.1956369 L42.8139,27.1955372 Z M45.1621,20.7977495 L46.4224,20.7977495 L46.4224,21.3964756 C46.6624,21.2168577 46.9024,21.0372399 47.2024,20.9773673 C47.5026,20.8576221 47.8027,20.7977495 48.2228,20.7977495 C48.6428,20.7977495 49.0028,20.8576221 49.3028,21.0372399 C49.663,21.2168577 49.903,21.3964756 50.1431,21.6958386 C50.3831,21.9950021 50.5631,22.2943652 50.6831,22.6536008 C50.8031,23.0128365 50.8633,23.3720722 50.8633,23.7911805 C50.8633,24.330034 50.8033,24.8090149 50.6233,25.2281231 C50.4433,25.6472314 50.2631,26.0663397 49.9631,26.3657028 C49.6631,26.6650658 49.3629,26.9644289 48.9428,27.1440467 C48.5228,27.3236645 48.1026,27.3835372 47.6225,27.3835372 L46.9625,27.3835372 C46.7825,27.3835372 46.6023,27.3236645 46.4223,27.2637919 L46.4223,29.4190064 L44.502,29.4190064 L44.502,21.5760934 C44.442,20.7977495 44.742,20.7977495 45.1622,20.7977495 L45.1621,20.7977495 Z M46.4224,25.4675138 C46.4224,25.6471316 46.4224,25.7668769 46.4824,25.8866221 C46.5424,26.0063673 46.6024,26.1261125 46.7224,26.2458577 C46.8424,26.365603 46.9624,26.4254756 47.0824,26.4853482 C47.2024,26.5452208 47.3826,26.5452208 47.5626,26.5452208 C47.7426,26.5452208 47.8626,26.4853482 48.0426,26.365603 C48.1628,26.2458577 48.3428,26.1261125 48.4028,25.8866221 C48.4628,25.6471316 48.5828,25.4675138 48.6428,25.1681507 C48.7028,24.8687877 48.7628,24.6292972 48.7628,24.2700616 C48.7628,23.8509533 48.7628,23.4917176 48.7028,23.1923546 C48.6428,22.8929915 48.5828,22.6535011 48.4628,22.4140106 C48.3428,22.2343928 48.2228,22.0547749 48.1026,21.9350297 C47.9826,21.8154841 47.8026,21.7556115 47.6226,21.7556115 C47.5026,21.7556115 47.3826,21.7556115 47.2626,21.8154841 C47.1424,21.8751571 47.0224,21.9350297 46.9624,21.9949023 C46.8424,22.0547749 46.7824,22.1745202 46.6624,22.2343928 C46.5424,22.354138 46.4824,22.4140106 46.4224,22.5337558 L46.4224,25.4675138 L46.4224,25.4675138 Z M54.5251,20.7976497 C55.0051,20.7976497 55.3653,20.8575223 55.7254,20.9173949 C56.0254,20.9772675 56.3254,21.0970127 56.5656,21.2766306 C56.8056,21.4562484 56.9256,21.6358662 57.0456,21.8154841 C57.1656,22.0547749 57.2256,22.2942654 57.2256,22.5337558 L57.2256,27.2636921 L55.3053,27.2636921 L55.3053,26.7847113 C55.1853,26.9044565 55.0653,26.9643291 55.0053,27.0242017 L54.6451,27.2038195 C54.5251,27.2636921 54.4051,27.3235648 54.2251,27.3235648 C54.0451,27.3834374 53.8651,27.3834374 53.6849,27.3834374 C53.3849,27.3834374 53.1449,27.3235648 52.9047,27.2636921 C52.6647,27.2038195 52.4847,27.0840743 52.3047,26.9044565 C52.1247,26.7847113 52.0045,26.6050934 51.9445,26.365603 C51.8845,26.1859851 51.8245,25.9464947 51.8245,25.7070042 C51.8245,25.4675138 51.8845,25.2280234 51.9445,25.0484055 C52.0045,24.8687877 52.1845,24.6891699 52.3045,24.509552 C52.4245,24.3299342 52.6647,24.210189 52.8447,24.0904437 C53.0847,23.9706985 53.2647,23.8509533 53.5649,23.7312081 C53.8049,23.6114628 54.0449,23.5515902 54.3451,23.431845 C54.5851,23.3719724 54.8851,23.2522272 55.1251,23.1923546 L55.3653,23.132482 L55.3653,22.4738832 C55.3653,22.2942654 55.3653,22.1146476 55.3053,21.9350297 L55.1253,21.5757941 C55.0653,21.5159214 54.9453,21.3961762 54.8853,21.3961762 C54.7653,21.3363036 54.6451,21.3363036 54.5251,21.3363036 C54.5251,21.3363036 53.5049,21.3363036 52.6047,22.1146476 L52.1847,21.4560488 C52.0045,21.5757941 53.0847,20.7974501 54.5251,20.7974501 L54.5251,20.7976497 Z M55.1851,23.9706985 C55.0051,24.0305711 54.8251,24.1503163 54.6451,24.2700616 L54.1051,24.6292972 C53.9251,24.7490425 53.8049,24.8687877 53.7449,25.0484055 C53.6249,25.1681507 53.6249,25.3477686 53.6249,25.4675138 C53.6249,25.587259 53.6249,25.7070042 53.6849,25.8267495 C53.7449,25.9464947 53.7449,26.0063673 53.8049,26.1261125 C53.8649,26.2458577 53.9249,26.2458577 53.9849,26.3057304 C54.0449,26.365603 54.1049,26.365603 54.2249,26.365603 C54.4051,26.365603 54.5251,26.3057304 54.7051,26.2458577 L55.2453,25.8866221 L55.2453,23.9706985 L55.1853,23.9706985 L55.1851,23.9706985 Z M59.8406,29.359034 L58.5803,29.359034 L58.5203,28.2214544 C58.5203,28.2214544 60.0806,28.281327 60.5607,27.6826008 C60.7407,27.4431104 60.8607,26.7845117 60.8607,26.7845117 L57.7401,20.7975499 L59.8406,20.7975499 L61.821,24.6890701 L63.5615,20.7973503 L64.9418,20.7973503 L61.7611,27.8623185 C61.6411,28.1018089 61.1611,29.3589342 59.8408,29.3589342 L59.8406,29.359034 Z M41.8602,19.7579618 C42.3905,19.7579618 42.8204,19.3781699 42.8204,18.9097665 C42.8204,18.4413631 42.3904,18.0615711 41.8602,18.0615711 C41.3299,18.0615711 40.9,18.4413631 40.9,18.9097665 C40.9,19.3781699 41.33,19.7579618 41.8602,19.7579618 Z M66.8879,15.7973885 L66.2277,15.7973885 L66.2277,15.6776433 L67.668,15.6776433 L67.668,15.7973885 L67.008,15.7973885 L67.008,17.6534395 L66.828,17.6534395 L66.828,15.7973885 L66.888,15.7973885 L66.8879,15.7973885 Z M67.9595,15.6776433 L68.1995,15.6776433 L68.6197,16.8152229 L68.7997,17.2343312 C68.8597,17.114586 68.9197,16.9349682 68.9797,16.8152229 L69.3997,15.6776433 L69.6399,15.6776433 L69.6399,17.7133121 L69.4,17.7133121 L69.4,15.9171338 L69.22,16.3961146 L68.7998,17.5935669 L68.6798,17.5935669 L68.2598,16.3961146 L68.0796,15.9171338 L68.0796,17.7133121 L67.8996,17.7133121 L67.8996,15.6776433 L67.9596,15.6776433 L67.9595,15.6776433 Z" id="Shape"></path>
                </g>
            </g>
        </g>
    </g>
</svg>