<?xml version="1.0" encoding="UTF-8"?>
<svg width="75px" height="47px" viewBox="0 0 75 47" version="1.1" xmlns="http://www.w3.org/2000/svg" xmlns:xlink="http://www.w3.org/1999/xlink">
    <!-- Generator: Sketch 41.2 (35397) - http://www.bohemiancoding.com/sketch -->
    <title>amex</title>
    <desc>Created with Sketch.</desc>
    <defs></defs>
    <g id="Page-1" stroke="none" stroke-width="1" fill="none" fill-rule="evenodd">
        <g id="iPad-Pro-Portrait" transform="translate(-133.000000, -360.000000)" fill="#393939">
            <g id="mono" transform="translate(33.000000, 358.000000)">
                <g id="amex" transform="translate(100.000000, 2.000000)">
                    <g id="Shape">
                        <path d="M0,3.99200637 C0,1.78719745 1.7914,0 3.9992,0 L71.0008,0 C73.2095,0 75,1.7867983 75,3.99200637 L75,43.0079936 C75,45.2128025 73.2086,47 71.0008,47 L3.9992,47 C1.7905,47 0,45.2132017 0,43.0079936 L0,3.99200637 Z M0.0003,22.0435987 L3.603,22.0435987 L4.4152,20.096741 L6.2338,20.096741 L7.044,22.0435987 L14.1324,22.0435987 L14.1324,20.5552654 L14.7652,22.0500849 L18.4449,22.0500849 L19.0776,20.5330127 L19.0776,22.0437983 L36.6936,22.0437983 L36.6856,18.8477983 L37.0263,18.8477983 C37.265,18.8557813 37.3347,18.8777346 37.3347,19.2694013 L37.3347,22.0434989 L46.4457,22.0434989 L46.4457,21.2995817 C47.1807,21.690949 48.3237,22.0435987 49.8277,22.0435987 L53.6609,22.0435987 L54.4812,20.096741 L56.3,20.096741 L57.102,22.0435987 L64.4885,22.0435987 L64.4885,20.1942335 L65.6071,22.0435987 L71.5263,22.0435987 L71.5263,9.81830998 L65.6683,9.81830998 L65.6683,11.2622378 L64.8481,9.81830998 L58.8373,9.81830998 L58.8373,11.2622378 L58.084,9.81830998 L49.9647,9.81830998 C48.6057,9.81830998 47.4109,10.0069087 46.4459,10.5321911 L46.4459,9.81830998 L40.8429,9.81830998 L40.8429,10.5321911 C40.2287,9.99064331 39.3919,9.81830998 38.4615,9.81830998 L17.9918,9.81830998 L16.6184,12.9758917 L15.2079,9.81830998 L8.7603,9.81830998 L8.7603,11.2622378 L8.0521,9.81830998 L2.5535,9.81830998 L0,15.6309427 L0,22.0436985 L0.0003,22.0436985 L0.0003,22.0435987 Z M22.766,20.3219618 L20.6044,20.3219618 L20.5964,13.4568684 L17.539,20.3219618 L15.6876,20.3219618 L12.6222,13.4507813 L12.6222,20.3219618 L8.3337,20.3219618 L7.5235,18.3668217 L3.1333,18.3668217 L2.3148,20.321862 L0.0248,20.321862 L3.8006,11.5563121 L6.9333,11.5563121 L10.5193,19.8556539 L10.5193,11.5563121 L13.9608,11.5563121 L16.7203,17.5026603 L19.2551,11.5563121 L22.7658,11.5563121 L22.7658,20.321862 L22.7661,20.321862 L22.766,20.3219618 Z M6.7622,16.5396093 L5.3192,13.0450446 L3.8842,16.5396093 L6.7622,16.5396093 Z M31.3812,20.3219618 L24.3374,20.3219618 L24.3374,11.5564119 L31.3811,11.5564119 L31.3811,13.3817282 L26.4461,13.3817282 L26.4461,14.9617665 L31.2628,14.9617665 L31.2628,16.7585435 L26.446,16.7585435 L26.446,18.5091189 L31.381,18.5091189 L31.381,20.3219618 L31.3812,20.3219618 Z M41.3126,13.917189 C41.3126,15.3147155 40.3738,16.0366794 39.8268,16.253518 C40.2882,16.4281465 40.6822,16.7364904 40.8698,16.9919469 C41.1675,17.4278195 41.2188,17.8171911 41.2188,18.6001253 L41.2188,20.3220616 L39.0922,20.3220616 L39.0842,19.2167134 C39.0842,18.6892357 39.135,17.9306497 38.7512,17.5089469 C38.4432,17.2008025 37.9736,17.1339448 37.2145,17.1339448 L34.951,17.1339448 L34.951,20.3221614 L32.8427,20.3221614 L32.8427,11.5564119 L37.6924,11.5564119 C38.77,11.5564119 39.5639,11.5846518 40.2456,11.9762187 C40.9126,12.3677856 41.3126,12.9394692 41.3126,13.9170892 L41.3126,13.917189 Z M38.5552,15.1481699 C38.2655,15.3227983 37.9228,15.3287856 37.5122,15.3287856 L34.9508,15.3287856 L34.9508,13.3815287 L37.5471,13.3815287 C37.9146,13.3815287 38.2981,13.3979936 38.5471,13.5396921 C38.8206,13.6674204 38.9898,13.9391423 38.9898,14.3145435 C38.9898,14.6977282 38.8288,15.0060722 38.5553,15.1479703 L38.5552,15.1481699 Z M44.6869,20.3219618 L42.5353,20.3219618 L42.5353,11.5564119 L44.6868,11.5564119 L44.6868,20.3219618 L44.6869,20.3219618 Z M69.6465,20.3219618 L66.6585,20.3219618 L62.6618,13.7429597 L62.6618,20.3219618 L58.3676,20.3219618 L57.547,18.3668217 L53.167,18.3668217 L52.371,20.321862 L49.9036,20.321862 C48.8786,20.321862 47.581,20.0966412 46.8461,19.3524246 C46.1051,18.6080085 45.7196,17.5999533 45.7196,16.0059448 C45.7196,14.7061104 45.95,13.5176391 46.8562,12.5785372 C47.5379,11.8790255 48.6054,11.5564119 50.0584,11.5564119 L52.1,11.5564119 L52.1,13.4346157 L50.1015,13.4346157 C49.332,13.4346157 48.8975,13.5483737 48.479,13.9539108 C48.1195,14.3231253 47.8728,15.0206412 47.8728,15.9394862 C47.8728,16.8784883 48.0608,17.5556476 48.4526,17.9981062 C48.7772,18.3448684 49.3671,18.4501444 49.9221,18.4501444 L50.8691,18.4501444 L53.8409,11.556811 L57.0003,11.556811 L60.5703,19.8476709 L60.5703,11.5566115 L63.7806,11.5566115 L67.487,17.6613227 L67.487,11.5566115 L69.6466,11.5566115 L69.6466,20.3219618 L69.6465,20.3219618 Z M56.8285,16.5396093 L55.3693,13.0450446 L53.9183,16.5396093 L56.8285,16.5396093 Z M75,34.2788662 C74.4878,35.0232824 73.4898,35.4004798 72.1387,35.4004798 L68.0667,35.4004798 L68.0667,33.5204798 L72.1222,33.5204798 C72.5245,33.5204798 72.806,33.4677919 72.9755,33.3033418 C73.1223,33.1676306 73.2248,32.9706497 73.2248,32.7315584 C73.2248,32.4761019 73.1223,32.2732335 72.9672,32.1515924 C72.8142,32.0178769 72.5915,31.9570064 72.2242,31.9570064 C70.2445,31.8901486 67.7745,32.0178769 67.7745,29.2432803 C67.7745,27.971586 68.5871,26.633034 70.7998,26.633034 L74.9998,26.633034 L74.9998,24.8885456 L71.0975,24.8885456 C69.9199,24.8885456 69.0645,25.168949 68.4585,25.6045223 L68.4585,24.8885456 L62.6867,24.8885456 C61.7637,24.8885456 60.6802,25.1160616 60.1677,25.6045223 L60.1677,24.8885456 L49.8607,24.8885456 L49.8607,25.6045223 C49.0404,25.0164735 47.6563,24.8885456 47.0174,24.8885456 L40.2187,24.8885456 L40.2187,25.6045223 C39.5697,24.980051 38.1267,24.8885456 37.247,24.8885456 L29.638,24.8885456 L27.897,26.7609618 L26.2662,24.8884459 L14.9002,24.8884459 L14.9002,37.1224161 L26.0522,37.1224161 L27.8464,35.2202633 L29.5364,37.1222166 L36.4107,37.1284034 L36.4107,34.2505265 L37.0865,34.2505265 C37.9985,34.2644968 39.0745,34.2280743 40.0235,33.8204416 L40.0235,37.122017 L45.6935,37.122017 L45.6935,33.9338004 L45.967,33.9338004 C46.316,33.9338004 46.3504,33.9480701 46.3504,34.2947325 L46.3504,37.1221168 L63.5748,37.1221168 C64.6684,37.1221168 65.8115,36.8437091 66.4444,36.3390828 L66.4444,37.122017 L71.908,37.122017 C73.045,37.122017 74.1552,36.9635541 75,36.5579172 L75,34.2787665 L75,34.2788662 Z M40.8517,29.521189 C40.8517,31.9568068 39.023,32.4596369 37.1799,32.4596369 L34.5489,32.4596369 L34.5489,35.40038 L30.4506,35.40038 L27.8542,32.4979554 L25.156,35.4005796 L16.804,35.4005796 L16.804,26.6328344 L25.2846,26.6328344 L27.8788,29.5067197 L30.5608,26.6328344 L37.2983,26.6328344 C38.9716,26.6328344 40.8517,27.093155 40.8517,29.5212887 L40.8517,29.521189 Z M24.0887,33.5732675 L18.9045,33.5732675 L18.9045,31.8287792 L23.5335,31.8287792 L23.5335,30.0398854 L18.9045,30.0398854 L18.9045,28.4458769 L24.1908,28.4458769 L26.4971,31.0009406 L24.0887,33.5731677 L24.0887,33.5732675 Z M32.4489,34.6030764 L29.2115,31.0316752 L32.4488,27.5737325 L32.4488,34.6030764 L32.4489,34.6030764 Z M37.2737,30.6789257 L34.549,30.6789257 L34.549,28.4461762 L37.2983,28.4461762 C38.0596,28.4461762 38.588,28.7545202 38.588,29.521189 C38.588,30.2795754 38.084,30.6789257 37.2738,30.6789257 L37.2737,30.6789257 Z M51.4997,26.6327346 L58.5372,26.6327346 L58.5372,28.4458769 L53.5997,28.4458769 L53.5997,30.0398854 L58.4167,30.0398854 L58.4167,31.8287792 L53.5997,31.8287792 L53.5997,33.5732675 L58.5372,33.5812505 L58.5372,35.40038 L51.5,35.40038 L51.5,26.6327346 L51.4997,26.6327346 Z M48.8362,31.325949 C49.3055,31.4980828 49.6892,31.8066263 49.8692,32.061983 C50.1668,32.4900722 50.2099,32.8895223 50.2184,33.6623779 L50.2184,35.4004798 L48.1016,35.4004798 L48.1016,34.3035138 C48.1016,33.7760361 48.1526,32.9949979 47.7606,32.5873652 C47.4526,32.2732335 46.983,32.1981932 46.2138,32.1981932 L43.9603,32.1981932 L43.9603,35.40038 L41.8416,35.40038 L41.8416,26.6327346 L46.7096,26.6327346 C47.7771,26.6327346 48.5546,26.6796348 49.2466,27.0464544 C49.9121,27.4460042 50.3306,27.9932399 50.3306,28.9935117 C50.3304,30.3929342 49.3911,31.1070149 48.8361,31.325949 L48.8362,31.325949 Z M47.563,30.2346709 C47.2808,30.4011168 46.932,30.4152866 46.5217,30.4152866 L43.9602,30.4152866 L43.9602,28.4461762 L46.5566,28.4461762 C46.932,28.4461762 47.3076,28.4541592 47.5629,28.6045393 C47.8359,28.7465372 47.9994,29.0180594 47.9994,29.3932611 C47.9994,29.7684628 47.836,30.07062 47.5628,30.2347707 L47.563,30.2346709 Z M66.5892,30.7762187 C66.9997,31.1985202 67.2198,31.7314862 67.2198,32.6338662 C67.2198,34.5200531 66.0338,35.4004798 63.9074,35.4004798 L59.8006,35.4004798 L59.8006,33.5204798 L63.8909,33.5204798 C64.2907,33.5204798 64.5744,33.4677919 64.7521,33.3033418 C64.8971,33.1676306 65.0011,32.9706497 65.0011,32.7315584 C65.0011,32.4761019 64.8886,32.2732335 64.7439,32.1515924 C64.5826,32.0178769 64.3602,31.9570064 63.9929,31.9570064 C62.0211,31.8901486 59.5517,32.0178769 59.5517,29.2432803 C59.5517,27.971586 60.3557,26.633034 62.5663,26.633034 L66.7933,26.633034 L66.7933,28.4990637 L62.9255,28.4990637 C62.5421,28.4990637 62.2928,28.5133333 62.0807,28.6574268 C61.8497,28.7994246 61.7641,29.0101762 61.7641,29.2882845 C61.7641,29.6189809 61.9601,29.8441019 62.2255,29.9412951 C62.4479,30.0181316 62.6869,30.0406837 63.0461,30.0406837 L64.1811,30.0711189 C65.3258,30.0990594 66.1115,30.2956412 66.5891,30.7763185 L66.5892,30.7762187 Z M75,28.4985648 L71.157,28.4985648 C70.7734,28.4985648 70.5185,28.5128344 70.3038,28.6569278 C70.0814,28.7988259 69.9958,29.0094777 69.9958,29.287586 C69.9958,29.6183822 70.1836,29.8434034 70.4568,29.9406964 C70.6792,30.0175329 70.9182,30.0400849 71.2694,30.0400849 L72.4122,30.07062 C73.5652,30.0988599 74.3352,30.2958408 74.8044,30.7761189 C74.8898,30.8431762 74.9412,30.9182166 75,30.9933567 L75,28.4986645 L75,28.4985648 Z"></path>
                    </g>
                </g>
            </g>
        </g>
    </g>
</svg>