<?xml version="1.0" encoding="UTF-8"?>
<svg width="75px" height="47px" viewBox="0 0 75 47" version="1.1" xmlns="http://www.w3.org/2000/svg" xmlns:xlink="http://www.w3.org/1999/xlink">
    <!-- Generator: Sketch 41.2 (35397) - http://www.bohemiancoding.com/sketch -->
    <title>default</title>
    <desc>Created with Sketch.</desc>
    <defs></defs>
    <g id="Page-1" stroke="none" stroke-width="1" fill="none" fill-rule="evenodd">
        <g id="iPad-Pro-Portrait" transform="translate(-232.000000, -360.000000)">
            <g id="mono" transform="translate(33.000000, 358.000000)">
                <g id="default" transform="translate(199.000000, 2.000000)">
                    <g id="Group">
                        <rect id="Rectangle-path" fill="#393939" x="0" y="0" width="75" height="47" rx="4"></rect>
                        <rect id="Rectangle-path" fill-opacity="0.75" fill="#FFFFFF" x="4.871" y="15.3249936" width="11.0324" height="9.94673673" rx="2.0323"></rect>
                        <g transform="translate(5.100000, 27.840764)" id="Shape" fill="#FFFFFF">
                            <path d="M2.7102,3.1303397 L2.7102,2.75164544 L2.1985,2.75164544 L2.1985,1.62703822 L1.7787,1.62703822 L1.7385,2.75164544 L0.5942,2.75164544 L1.6522,0.249968153 L1.2555,0.0778343949 L0.0882,2.78607219 L0.0882,3.1303397 L1.7327,3.1303397 L1.7327,4.09428875 L2.1985,4.09428875 L2.1985,3.1303397 L2.7102,3.1303397 L2.7102,3.1303397 Z M4.6688,0.0778343949 C4.2663,0.0778343949 3.881,0.215541401 3.5475,0.536857749 L3.8063,0.829535032 C4.0708,0.582760085 4.3065,0.462316348 4.6458,0.462316348 C5.0655,0.462316348 5.399,0.697515924 5.399,1.13358811 C5.399,1.60987473 5.0253,1.82791083 4.6458,1.82791083 L4.41,1.82791083 L4.3525,2.2066051 L4.686,2.2066051 C5.1518,2.2066051 5.5083,2.39021444 5.5083,2.95820594 C5.5083,3.45165605 5.1805,3.7672845 4.6228,3.7672845 C4.3008,3.7672845 3.9673,3.63526539 3.743,3.37132696 L3.421,3.63526539 C3.72,4.00248408 4.1915,4.15745435 4.6343,4.15745435 C5.4508,4.15745435 6.0085,3.64105308 6.0085,2.95820594 C6.0085,2.3443121 5.5715,2.02299575 5.1058,1.988569 C5.5255,1.90823992 5.882,1.54670913 5.882,1.07052229 C5.882,0.531169851 5.4105,0.0778343949 4.6688,0.0778343949 L4.6688,0.0778343949 Z M8.1165,0.0778343949 C7.5818,0.0778343949 7.2253,0.267231423 6.909,0.64592569 L7.2425,0.898388535 C7.4955,0.605711253 7.7083,0.47947983 8.0993,0.47947983 C8.542,0.47947983 8.8065,0.754893843 8.8065,1.19675372 C8.8065,1.84507431 8.4845,2.2754586 6.9895,3.7041189 L6.9895,4.09428875 L9.3413,4.09428875 L9.3988,3.68695541 L7.5358,3.68695541 C8.841,2.49918259 9.3068,1.90823992 9.3068,1.18527813 C9.3068,0.554121019 8.864,0.0778343949 8.1165,0.0778343949 L8.1165,0.0778343949 Z M12.9903,3.7041189 L12.1623,3.7041189 L12.1623,0.146687898 L11.7425,0.146687898 L10.5695,0.869649682 L10.7765,1.2082293 L11.685,0.663089172 L11.685,3.7041189 L10.7075,3.7041189 L10.7075,4.09428875 L12.9903,4.09428875 L12.9903,3.7041189 L12.9903,3.7041189 Z M19.949,3.1303397 L19.949,2.75164544 L19.4373,2.75164544 L19.4373,1.62703822 L19.0175,1.62703822 L18.9773,2.75164544 L17.833,2.75164544 L18.891,0.249968153 L18.4943,0.0778343949 L17.327,2.78607219 L17.327,3.1303397 L18.9715,3.1303397 L18.9715,4.09428875 L19.4373,4.09428875 L19.4373,3.1303397 L19.949,3.1303397 L19.949,3.1303397 Z M21.9075,0.0778343949 C21.505,0.0778343949 21.1198,0.215541401 20.7863,0.536857749 L21.045,0.829535032 C21.3095,0.582760085 21.5453,0.462316348 21.8845,0.462316348 C22.3043,0.462316348 22.6378,0.697515924 22.6378,1.13358811 C22.6378,1.60987473 22.264,1.82791083 21.8845,1.82791083 L21.6488,1.82791083 L21.5913,2.2066051 L21.9248,2.2066051 C22.3905,2.2066051 22.747,2.39021444 22.747,2.95820594 C22.747,3.45165605 22.4193,3.7672845 21.8615,3.7672845 C21.5395,3.7672845 21.206,3.63526539 20.9818,3.37132696 L20.6598,3.63526539 C20.9588,4.00248408 21.4303,4.15745435 21.873,4.15745435 C22.6895,4.15745435 23.2473,3.64105308 23.2473,2.95820594 C23.2473,2.3443121 22.8103,2.02299575 22.3445,1.988569 C22.7643,1.90823992 23.1208,1.54670913 23.1208,1.07052229 C23.1208,0.531169851 22.6493,0.0778343949 21.9075,0.0778343949 L21.9075,0.0778343949 Z M25.3553,0.0778343949 C24.8205,0.0778343949 24.464,0.267231423 24.1478,0.64592569 L24.4813,0.898388535 C24.7343,0.605711253 24.947,0.47947983 25.338,0.47947983 C25.7808,0.47947983 26.0453,0.754893843 26.0453,1.19675372 C26.0453,1.84507431 25.7233,2.2754586 24.2283,3.7041189 L24.2283,4.09428875 L26.58,4.09428875 L26.6375,3.68695541 L24.7745,3.68695541 C26.0798,2.49918259 26.5455,1.90823992 26.5455,1.18527813 C26.5455,0.554121019 26.1028,0.0778343949 25.3553,0.0778343949 L25.3553,0.0778343949 Z M30.229,3.7041189 L29.401,3.7041189 L29.401,0.146687898 L28.9813,0.146687898 L27.8083,0.869649682 L28.0153,1.2082293 L28.9238,0.663089172 L28.9238,3.7041189 L27.9463,3.7041189 L27.9463,4.09428875 L30.229,4.09428875 L30.229,3.7041189 L30.229,3.7041189 Z M37.1878,3.1303397 L37.1878,2.75164544 L36.676,2.75164544 L36.676,1.62703822 L36.2563,1.62703822 L36.216,2.75164544 L35.0718,2.75164544 L36.1298,0.249968153 L35.733,0.0778343949 L34.5658,2.78607219 L34.5658,3.1303397 L36.2103,3.1303397 L36.2103,4.09428875 L36.676,4.09428875 L36.676,3.1303397 L37.1878,3.1303397 L37.1878,3.1303397 Z M39.1463,0.0778343949 C38.7438,0.0778343949 38.3585,0.215541401 38.025,0.536857749 L38.2838,0.829535032 C38.5483,0.582760085 38.784,0.462316348 39.1233,0.462316348 C39.543,0.462316348 39.8765,0.697515924 39.8765,1.13358811 C39.8765,1.60987473 39.5028,1.82791083 39.1233,1.82791083 L38.8875,1.82791083 L38.83,2.2066051 L39.1635,2.2066051 C39.6293,2.2066051 39.9858,2.39021444 39.9858,2.95820594 C39.9858,3.45165605 39.658,3.7672845 39.1003,3.7672845 C38.7783,3.7672845 38.4448,3.63526539 38.2205,3.37132696 L37.8985,3.63526539 C38.1975,4.00248408 38.669,4.15745435 39.1118,4.15745435 C39.9283,4.15745435 40.486,3.64105308 40.486,2.95820594 C40.486,2.3443121 40.049,2.02299575 39.5833,1.988569 C40.003,1.90823992 40.3595,1.54670913 40.3595,1.07052229 C40.3595,0.531169851 39.888,0.0778343949 39.1463,0.0778343949 L39.1463,0.0778343949 Z M42.594,0.0778343949 C42.0593,0.0778343949 41.7028,0.267231423 41.3865,0.64592569 L41.72,0.898388535 C41.973,0.605711253 42.1858,0.47947983 42.5768,0.47947983 C43.0195,0.47947983 43.284,0.754893843 43.284,1.19675372 C43.284,1.84507431 42.962,2.2754586 41.467,3.7041189 L41.467,4.09428875 L43.8188,4.09428875 L43.8763,3.68695541 L42.0133,3.68695541 C43.3185,2.49918259 43.7843,1.90823992 43.7843,1.18527813 C43.7843,0.554121019 43.3415,0.0778343949 42.594,0.0778343949 L42.594,0.0778343949 Z M47.4678,3.7041189 L46.6398,3.7041189 L46.6398,0.146687898 L46.22,0.146687898 L45.047,0.869649682 L45.254,1.2082293 L46.1625,0.663089172 L46.1625,3.7041189 L45.185,3.7041189 L45.185,4.09428875 L47.4678,4.09428875 L47.4678,3.7041189 L47.4678,3.7041189 Z M54.4266,3.1303397 L54.4266,2.75164544 L53.9148,2.75164544 L53.9148,1.62703822 L53.4951,1.62703822 L53.4549,2.75164544 L52.3107,2.75164544 L53.3687,0.249968153 L52.9719,0.0778343949 L51.8047,2.78607219 L51.8047,3.1303397 L53.4492,3.1303397 L53.4492,4.09428875 L53.915,4.09428875 L53.915,3.1303397 L54.4268,3.1303397 L54.4266,3.1303397 Z M56.385,0.0778343949 C55.9826,0.0778343949 55.5973,0.215541401 55.2638,0.536857749 L55.5226,0.829535032 C55.7871,0.582760085 56.0228,0.462316348 56.3621,0.462316348 C56.7819,0.462316348 57.1154,0.697515924 57.1154,1.13358811 C57.1154,1.60987473 56.7417,1.82791083 56.3622,1.82791083 L56.1265,1.82791083 L56.069,2.2066051 L56.4025,2.2066051 C56.8683,2.2066051 57.2248,2.39021444 57.2248,2.95820594 C57.2248,3.45165605 56.897,3.7672845 56.3393,3.7672845 C56.0173,3.7672845 55.6839,3.63526539 55.4596,3.37132696 L55.1376,3.63526539 C55.4366,4.00248408 55.9081,4.15745435 56.3509,4.15745435 C57.1674,4.15745435 57.7251,3.64105308 57.7251,2.95820594 C57.7251,2.3443121 57.2881,2.02299575 56.8224,1.988569 C57.2422,1.90823992 57.5987,1.54670913 57.5987,1.07052229 C57.5987,0.531169851 57.1272,0.0778343949 56.3855,0.0778343949 L56.385,0.0778343949 Z M59.8328,0.0778343949 C59.2981,0.0778343949 58.9416,0.267231423 58.6253,0.64592569 L58.9588,0.898388535 C59.2118,0.605711253 59.4246,0.47947983 59.8156,0.47947983 C60.2583,0.47947983 60.5228,0.754893843 60.5228,1.19675372 C60.5228,1.84507431 60.2008,2.2754586 58.7058,3.7041189 L58.7058,4.09428875 L61.0576,4.09428875 L61.1151,3.68695541 L59.2521,3.68695541 C60.5574,2.49918259 61.0231,1.90823992 61.0231,1.18527813 C61.0231,0.554121019 60.5804,0.0778343949 59.8329,0.0778343949 L59.8328,0.0778343949 Z M64.7066,3.7041189 L63.8786,3.7041189 L63.8786,0.146687898 L63.4588,0.146687898 L62.2858,0.869649682 L62.4928,1.2082293 L63.4013,0.663089172 L63.4013,3.7041189 L62.4238,3.7041189 L62.4238,4.09428875 L64.7066,4.09428875 L64.7066,3.7041189 L64.7066,3.7041189 Z"></path>
                        </g>
                        <g transform="translate(5.500000, 38.817410)" id="Shape" fill-opacity="0.76" fill="#FFFFFF">
                            <path d="M0.0607,2.63639066 L0.7052,2.63639066 L0.7052,0.416613588 L0.004,0.556915074 L0.004,0.198377919 L0.7013,0.0580764331 L1.0958,0.0580764331 L1.0958,2.63659023 L1.7404,2.63659023 L1.7404,2.96788535 L0.0607,2.96788535 L0.0607,2.63639066 Z M2.6075,2.63639066 L3.2521,2.63639066 L3.2521,0.416613588 L2.5511,0.556915074 L2.5511,0.198377919 L3.2483,0.0580764331 L3.6428,0.0580764331 L3.6428,2.63659023 L4.2873,2.63659023 L4.2873,2.96788535 L2.6075,2.96788535 L2.6075,2.63639066 Z M6.6993,2.63639066 L8.0763,2.63639066 L8.0763,2.96768577 L6.2247,2.96768577 L6.2247,2.63639066 C6.3745,2.48171975 6.5782,2.2746603 6.8361,2.01471338 C7.0953,1.753569 7.2581,1.58532696 7.3244,1.50998726 C7.4507,1.36828875 7.5386,1.24884289 7.5881,1.15135032 C7.6389,1.05256051 7.6643,0.955766454 7.6643,0.860968153 C7.6643,0.70629724 7.6096,0.580265393 7.5003,0.482772824 C7.3921,0.385380042 7.2509,0.336683652 7.0763,0.336683652 C6.9527,0.336683652 6.8218,0.358138004 6.6838,0.401046709 C6.5471,0.443755839 6.4006,0.50881741 6.2444,0.595832272 L6.2444,0.198178344 C6.4032,0.1345138 6.5517,0.0864161359 6.6897,0.053985138 C6.8277,0.0214543524 6.954,0.00528874735 7.0687,0.00528874735 C7.3707,0.00528874735 7.6115,0.0806284501 7.7912,0.231307856 C7.971,0.381987261 8.0609,0.583358811 8.0609,0.835422505 C8.0609,0.954968153 8.0381,1.06862633 7.9925,1.17649682 C7.9482,1.28307006 7.8669,1.40900212 7.7485,1.55469214 C7.7158,1.5923121 7.6123,1.70138004 7.4378,1.88199575 C7.2633,2.06131423 7.0172,2.31277919 6.6995,2.63639066 L6.6993,2.63639066 Z M10.1017,1.39902335 C10.2905,1.439138 10.4377,1.52295966 10.5431,1.65028875 C10.6501,1.77761783 10.7033,1.93488323 10.7033,2.12198514 C10.7033,2.40907431 10.6043,2.63130149 10.4065,2.78856688 C10.2085,2.94573248 9.9273,3.02436518 9.5627,3.02436518 C9.4403,3.02436518 9.314,3.01199151 9.1837,2.98724416 C9.0549,2.96389384 8.9214,2.92816985 8.7834,2.88007219 L8.7834,2.50008068 C8.8928,2.56374522 9.0126,2.61184289 9.1428,2.64427389 C9.273,2.67670488 9.4091,2.69287049 9.551,2.69287049 C9.7983,2.69287049 9.9864,2.6441741 10.1154,2.54668153 C10.2456,2.44928875 10.3107,2.30769002 10.3107,2.12188535 C10.3107,1.95025053 10.2501,1.81653503 10.129,1.7203397 C10.0092,1.62304671 9.842,1.57425053 9.627,1.57425053 L9.2872,1.57425053 L9.2872,1.25073885 L9.6427,1.25073885 C9.8367,1.25073885 9.9851,1.21242038 10.088,1.13578344 C10.191,1.05794904 10.2423,0.946186837 10.2423,0.800496815 C10.2423,0.65111465 10.1889,0.536757962 10.0823,0.457526539 C9.9767,0.376997877 9.825,0.336783439 9.6271,0.336783439 C9.5191,0.336783439 9.4031,0.348358811 9.2795,0.37170913 C9.1558,0.395159236 9.0198,0.431581741 8.8713,0.480876858 L8.8713,0.130023355 C9.0211,0.0884118896 9.161,0.0571783439 9.2913,0.0364225053 C9.4227,0.0156666667 9.5463,0.00528874735 9.6623,0.00528874735 C9.9618,0.00528874735 10.1988,0.0734437367 10.3733,0.209853503 C10.5477,0.345065817 10.635,0.528176221 10.635,0.759484076 C10.635,0.920641189 10.5887,1.05705096 10.4962,1.16881316 C10.4038,1.27927813 10.2722,1.35591507 10.1017,1.39882378 L10.1017,1.39902335 Z M12.7306,0.0578768577 L14.2794,0.0578768577 L14.2794,0.389171975 L13.092,0.389171975 L13.092,1.10265393 C13.1492,1.08309554 13.2065,1.06872611 13.2638,1.05974522 C13.3211,1.0493673 13.3784,1.04417834 13.4358,1.04417834 C13.7612,1.04417834 14.019,1.13318896 14.2091,1.31121019 C14.3993,1.48913163 14.4944,1.73031847 14.4944,2.03427176 C14.4944,2.34740552 14.3967,2.59108705 14.2014,2.76511677 C14.0061,2.93794904 13.7307,3.02436518 13.3752,3.02436518 C13.2529,3.02436518 13.1279,3.01388747 13.0002,2.99313163 C12.874,2.9723758 12.7432,2.94124204 12.6077,2.89963057 L12.6077,2.5039724 C12.7249,2.56763694 12.846,2.61503609 12.971,2.64626964 C13.096,2.67720382 13.2282,2.69287049 13.3675,2.69287049 C13.5928,2.69287049 13.7712,2.63379618 13.9027,2.51554777 C14.0342,2.39729936 14.0999,2.23684076 14.0999,2.03417197 C14.0999,1.8314034 14.0342,1.6709448 13.9027,1.55269639 C13.7712,1.43464756 13.5927,1.37547346 13.3675,1.37547346 C13.262,1.37547346 13.1565,1.38714862 13.0511,1.41059873 C12.9468,1.43394904 12.8401,1.47047134 12.7307,1.51966667 L12.7307,0.0577770701 L12.7306,0.0578768577 Z M16.1173,1.58602548 C15.9298,1.58602548 15.782,1.63591932 15.6739,1.73600637 C15.5671,1.83609342 15.5137,1.97380042 15.5137,2.14912739 C15.5137,2.32475372 15.5671,2.46246072 15.6737,2.56244798 C15.7819,2.66223567 15.9297,2.71242887 16.1172,2.71242887 C16.3047,2.71242887 16.4525,2.66233546 16.5606,2.5623482 C16.6686,2.46086412 16.7226,2.32315711 16.7226,2.1490276 C16.7226,1.97360085 16.6686,1.83589384 16.5606,1.73590658 C16.4538,1.63581953 16.306,1.5858259 16.1172,1.5858259 L16.1173,1.58602548 Z M15.7228,1.41838217 C15.5535,1.3767707 15.4213,1.298138 15.3263,1.18258386 C15.2325,1.06702972 15.1857,0.926129512 15.1857,0.759683652 C15.1857,0.527178344 15.2684,0.343269639 15.4337,0.208157113 C15.6004,0.073044586 15.8282,0.0055881104 16.1173,0.0055881104 C16.4077,0.0055881104 16.6355,0.073044586 16.8009,0.208157113 C16.9662,0.343269639 17.0489,0.527178344 17.0489,0.759683652 C17.0489,0.926029724 17.0013,1.06702972 16.9063,1.18278344 C16.8125,1.29823779 16.6817,1.37687049 16.5137,1.41848195 C16.7037,1.4626879 16.8517,1.54900425 16.9571,1.67763057 C17.0638,1.80635669 17.1171,1.96362208 17.1171,2.14942675 C17.1171,2.43142675 17.0306,2.64776645 16.8574,2.79844586 C16.6856,2.94912527 16.4388,3.02456476 16.1172,3.02456476 C15.7956,3.02456476 15.5482,2.94912527 15.375,2.79844586 C15.2032,2.64776645 15.1173,2.43142675 15.1173,2.14942675 C15.1173,1.96362208 15.1707,1.80645648 15.2775,1.67773036 C15.3842,1.54920382 15.5327,1.46288747 15.7228,1.41868153 L15.7228,1.41838217 Z M15.5782,0.796704883 C15.5782,0.947384289 15.6252,1.06493418 15.7189,1.14945435 C15.8139,1.23377495 15.9466,1.27598514 16.1172,1.27598514 C16.2865,1.27598514 16.4186,1.23377495 16.5137,1.14925478 C16.61,1.06483439 16.6582,0.947284501 16.6582,0.796505308 C16.6582,0.645825902 16.61,0.528276008 16.5137,0.443755839 C16.4187,0.359335456 16.2865,0.317025478 16.1172,0.317025478 C15.9466,0.317025478 15.8138,0.359335456 15.7188,0.443755839 C15.6248,0.528276008 15.578,0.645825902 15.578,0.796505308 L15.5782,0.796704883 Z"></path>
                        </g>
                        <g transform="translate(30.800000, 38.717622)" id="Shape" fill-opacity="0.784" fill="#FFFFFF">
                            <path d="M0.0836,2.63968365 L0.7281,2.63968365 L0.7281,0.419806794 L0.0271,0.56010828 L0.0271,0.201571125 L0.7243,0.0611698514 L1.1189,0.0611698514 L1.1189,2.63968365 L1.7634,2.63968365 L1.7634,2.97097877 L0.0837,2.97097877 L0.0836,2.63968365 Z M3.7574,1.40201699 C3.9462,1.44233121 4.0934,1.52615287 4.1989,1.65348195 C4.3055,1.78081104 4.3589,1.93807643 4.3589,2.12517834 C4.3589,2.41226752 4.2599,2.63449469 4.0619,2.79176008 C3.8641,2.94892569 3.5829,3.02755839 3.2183,3.02755839 C3.0959,3.02755839 2.9696,3.01518471 2.8393,2.99063694 C2.7105,2.96708705 2.577,2.93136306 2.439,2.88336518 L2.439,2.5031741 C2.5485,2.56703822 2.6683,2.61493631 2.7985,2.64746709 C2.9287,2.68009766 3.0647,2.69636306 3.2067,2.69636306 C3.4541,2.69636306 3.6422,2.64746709 3.7711,2.5501741 C3.9014,2.45268153 3.9665,2.3110828 3.9665,2.12527813 C3.9665,1.95364331 3.906,1.81992781 3.7849,1.72373248 C3.6651,1.6263397 3.4979,1.57764331 3.2829,1.57764331 L2.9431,1.57764331 L2.9431,1.25393206 L3.2986,1.25393206 C3.4926,1.25393206 3.641,1.21561359 3.7439,1.13897665 C3.8467,1.06114225 3.8982,0.949380042 3.8982,0.803690021 C3.8982,0.654307856 3.8449,0.539951168 3.7382,0.460719745 C3.6326,0.380191083 3.481,0.339976645 3.283,0.339976645 C3.175,0.339976645 3.059,0.351552017 2.9354,0.374902335 C2.8117,0.398352442 2.6756,0.434774947 2.5272,0.484169851 L2.5272,0.133316348 C2.6769,0.0917048832 2.8169,0.0604713376 2.9472,0.0397154989 C3.0786,0.0189596603 3.2022,0.00858174098 3.3182,0.00858174098 C3.6177,0.00858174098 3.8547,0.076836518 4.0292,0.213146497 C4.2036,0.348358811 4.2908,0.531469214 4.2908,0.762976645 C4.2908,0.923934183 4.2446,1.06034395 4.1522,1.17210616 C4.0597,1.28257113 3.9282,1.35920807 3.7576,1.40211677 L3.7574,1.40201699 Z M5.449,2.63968365 L6.8258,2.63968365 L6.8258,2.97097877 L4.9742,2.97097877 L4.9742,2.63968365 C5.124,2.48501274 5.3278,2.2778535 5.5856,2.01800637 C5.8446,1.75676221 6.0074,1.58852017 6.0739,1.51308068 C6.2001,1.37158174 6.2879,1.25203609 6.3374,1.15454352 C6.3882,1.05575372 6.4136,0.95895966 6.4136,0.864161359 C6.4136,0.709490446 6.3589,0.583558386 6.2496,0.48596603 C6.1416,0.388673036 6.0002,0.339876858 5.8256,0.339876858 C5.702,0.339876858 5.5711,0.36133121 5.4331,0.404239915 C5.2964,0.44714862 5.1499,0.512210191 4.9937,0.599225053 L4.9937,0.201670913 C5.1525,0.138006369 5.301,0.0899087049 5.439,0.0573779193 C5.577,0.0249469214 5.7034,0.00868152866 5.818,0.00868152866 C6.12,0.00868152866 6.361,0.0840212314 6.5406,0.234800425 C6.7203,0.38547983 6.8102,0.58685138 6.8102,0.838915074 C6.8102,0.958460722 6.7874,1.0721189 6.7418,1.17998938 C6.6976,1.28656263 6.6162,1.41249469 6.4978,1.55818471 C6.4651,1.59580467 6.3616,1.70487261 6.1871,1.88548832 C6.0128,2.06480679 5.7667,2.31627176 5.4491,2.63988323 L5.449,2.63968365 Z M7.7242,2.63968365 L8.3688,2.63968365 L8.3688,0.419806794 L7.6676,0.56010828 L7.6676,0.201571125 L8.3649,0.0611698514 L8.7593,0.0611698514 L8.7593,2.63968365 L9.4038,2.63968365 L9.4038,2.97097877 L7.724,2.97097877 L7.7242,2.63968365 Z M12.6715,1.40201699 C12.8603,1.44233121 13.0075,1.52615287 13.1129,1.65348195 C13.2196,1.78081104 13.2729,1.93807643 13.2729,2.12517834 C13.2729,2.41226752 13.1739,2.63449469 12.9761,2.79176008 C12.7781,2.94892569 12.4969,3.02755839 12.1323,3.02755839 C12.01,3.02755839 11.8836,3.01518471 11.7533,2.99063694 C11.6245,2.96708705 11.4911,2.93136306 11.353,2.88336518 L11.353,2.5031741 C11.4625,2.56703822 11.5823,2.61493631 11.7125,2.64746709 C11.8427,2.68009766 11.9788,2.69636306 12.1207,2.69636306 C12.3681,2.69636306 12.5563,2.64746709 12.6852,2.5501741 C12.8154,2.45268153 12.8805,2.3110828 12.8805,2.12527813 C12.8805,1.95364331 12.8199,1.81992781 12.6989,1.72373248 C12.5789,1.6263397 12.4116,1.57764331 12.1969,1.57764331 L11.8569,1.57764331 L11.8569,1.25393206 L12.2124,1.25393206 C12.4064,1.25393206 12.5549,1.21561359 12.6577,1.13897665 C12.7607,1.06114225 12.812,0.949380042 12.812,0.803690021 C12.812,0.654307856 12.7587,0.539951168 12.652,0.460719745 C12.5465,0.380191083 12.3948,0.339976645 12.197,0.339976645 C12.0888,0.339976645 11.973,0.351552017 11.8492,0.374902335 C11.7255,0.398352442 11.5895,0.434774947 11.441,0.484169851 L11.441,0.133316348 C11.5908,0.0917048832 11.7308,0.0604713376 11.861,0.0397154989 C11.9925,0.0189596603 12.1162,0.00858174098 12.232,0.00858174098 C12.5315,0.00858174098 12.7685,0.076836518 12.943,0.213146497 C13.1175,0.348358811 13.2047,0.531469214 13.2047,0.762976645 C13.2047,0.923934183 13.1585,1.06034395 13.066,1.17210616 C12.9736,1.28257113 12.842,1.35920807 12.6715,1.40211677 L12.6715,1.40201699 Z M15.107,0.404140127 L14.111,1.95753503 L15.107,1.95753503 L15.107,0.404140127 Z M15.0035,0.0611698514 L15.4995,0.0611698514 L15.4995,1.95753503 L15.9155,1.95753503 L15.9155,2.28483864 L15.4995,2.28483864 L15.4995,2.97097877 L15.1071,2.97097877 L15.1071,2.28493843 L13.7907,2.28493843 L13.7907,1.90494692 L15.0037,0.0611698514 L15.0035,0.0611698514 Z M16.574,0.0611698514 L18.1227,0.0611698514 L18.1227,0.392464968 L16.9352,0.392464968 L16.9352,1.10594692 C16.9925,1.08638854 17.0498,1.07201911 17.1072,1.06303822 C17.1642,1.05256051 17.2216,1.04737155 17.2789,1.04737155 C17.6044,1.04737155 17.8622,1.13638217 18.0523,1.3144034 C18.2423,1.49242463 18.3373,1.73351168 18.3373,2.03746497 C18.3373,2.35059873 18.2398,2.59428025 18.0445,2.76830998 C17.8491,2.94114225 17.5738,3.02755839 17.2183,3.02755839 C17.0959,3.02755839 16.9709,3.01718047 16.8433,2.99632484 C16.717,2.975569 16.5861,2.94443524 16.4507,2.90282378 L16.4507,2.50716561 C16.5679,2.57083015 16.689,2.6182293 16.814,2.64946285 C16.939,2.68069639 17.0712,2.69636306 17.2106,2.69636306 C17.4358,2.69636306 17.6142,2.63718896 17.7456,2.51894055 C17.8772,2.40069214 17.943,2.24023355 17.943,2.03756476 C17.943,1.83499575 17.8772,1.67433758 17.7457,1.55618896 C17.6142,1.43794055 17.4357,1.37876645 17.2107,1.37876645 C17.1051,1.37876645 16.9997,1.3905414 16.8942,1.41389172 C16.79,1.43724204 16.6832,1.47376433 16.5739,1.52305945 L16.5739,0.0611698514 L16.574,0.0611698514 Z M19.1207,0.0611698514 L20.6697,0.0611698514 L20.6697,0.392464968 L19.482,0.392464968 L19.482,1.10594692 C19.5393,1.08638854 19.5966,1.07201911 19.654,1.06303822 C19.7112,1.05256051 19.7685,1.04737155 19.8258,1.04737155 C20.1513,1.04737155 20.4091,1.13638217 20.5992,1.3144034 C20.7892,1.49242463 20.8844,1.73351168 20.8844,2.03746497 C20.8844,2.35059873 20.7867,2.59428025 20.5914,2.76830998 C20.3961,2.94114225 20.1207,3.02755839 19.7654,3.02755839 C19.6429,3.02755839 19.5179,3.01718047 19.3904,2.99632484 C19.264,2.975569 19.1331,2.94443524 18.9977,2.90282378 L18.9977,2.50716561 C19.1149,2.57083015 19.236,2.6182293 19.361,2.64946285 C19.486,2.68069639 19.618,2.69636306 19.7574,2.69636306 C19.9827,2.69636306 20.1611,2.63718896 20.2926,2.51894055 C20.4241,2.40069214 20.4899,2.24023355 20.4899,2.03756476 C20.4899,1.83499575 20.4239,1.67433758 20.2925,1.55618896 C20.161,1.43794055 19.9825,1.37876645 19.7573,1.37876645 C19.6519,1.37876645 19.5463,1.3905414 19.4409,1.41389172 C19.3369,1.43724204 19.2299,1.47376433 19.1206,1.52305945 L19.1206,0.0611698514 L19.1207,0.0611698514 Z"></path>
                        </g>
                    </g>
                </g>
            </g>
        </g>
    </g>
</svg>