<?xml version="1.0" encoding="UTF-8"?>
<svg width="75px" height="47px" viewBox="0 0 75 47" version="1.1" xmlns="http://www.w3.org/2000/svg" xmlns:xlink="http://www.w3.org/1999/xlink">
    <!-- Generator: Sketch 41.2 (35397) - http://www.bohemiancoding.com/sketch -->
    <title>diners</title>
    <desc>Created with Sketch.</desc>
    <defs></defs>
    <g id="Page-1" stroke="none" stroke-width="1" fill="none" fill-rule="evenodd">
        <g id="iPad-Pro-Portrait" transform="translate(-332.000000, -360.000000)" fill="#393939">
            <g id="mono" transform="translate(33.000000, 358.000000)">
                <g id="diners" transform="translate(299.000000, 2.000000)">
                    <g id="Shape">
                        <path d="M0,3.99200637 C0,1.78719745 1.7914,0 3.9992,0 L71.0008,0 C73.2095,0 75,1.7867983 75,3.99200637 L75,43.0079936 C75,45.2128025 73.2086,47 71.0008,47 L3.9992,47 C1.7905,47 0,45.2132017 0,43.0079936 L0,3.99200637 Z M58.4934,23.6443928 C58.4934,13.724 50.1954,6.86678981 41.1039,6.8700828 L33.2796,6.8700828 C24.0793,6.86678981 16.5066,13.7259958 16.5066,23.6443928 C16.5066,32.718087 24.0793,40.1732251 33.2796,40.1297176 L41.1038,40.1297176 C50.1951,40.1733248 58.4932,32.7162909 58.4932,23.6444926 L58.4934,23.6443928 Z M33.3167,8.24465817 C24.9097,8.24735244 18.0973,15.0609554 18.0953,23.4702633 C18.0973,31.8781741 24.9096,38.6910786 33.3167,38.6938726 C41.7257,38.6910786 48.5395,31.8781741 48.5407,23.4702633 C48.5394,15.0609554 41.7257,8.24735244 33.3167,8.24465817 L33.3167,8.24465817 Z M23.6683,23.4702633 C23.6763,19.3610064 26.2429,15.856862 29.8623,14.4644246 L29.8623,32.4741062 C26.2429,31.0823673 23.6761,27.5801189 23.6683,23.4702633 Z M36.7698,32.4780977 L36.7698,14.4637261 C40.3905,15.8527707 42.9612,19.3589108 42.9678,23.4701635 C42.9612,27.5827134 40.3905,31.0861592 36.7698,32.4779979 L36.7698,32.4780977 Z"></path>
                    </g>
                </g>
            </g>
        </g>
    </g>
</svg>