<?xml version="1.0" encoding="UTF-8"?>
<svg width="75px" height="47px" viewBox="0 0 75 47" version="1.1" xmlns="http://www.w3.org/2000/svg" xmlns:xlink="http://www.w3.org/1999/xlink">
    <!-- Generator: Sketch 41.2 (35397) - http://www.bohemiancoding.com/sketch -->
    <title>discover</title>
    <desc>Created with Sketch.</desc>
    <defs></defs>
    <g id="Page-1" stroke="none" stroke-width="1" fill="none" fill-rule="evenodd">
        <g id="iPad-Pro-Portrait" transform="translate(-432.000000, -360.000000)" fill="#393939">
            <g id="mono" transform="translate(33.000000, 358.000000)">
                <g id="discover" transform="translate(399.000000, 2.000000)">
                    <g id="Shape">
                        <path d="M0,43.0079936 C0,45.2128025 1.7914,47 3.9992,47 L71.0008,47 C73.2095,47 75,45.2132017 75,43.0079936 L75,3.99200637 C75,1.78719745 73.2086,0 71.0008,0 L3.9992,0 C1.7905,0 0,1.7867983 0,3.99200637 L0,43.0079936 Z M14.943,46.1503079 L70.686,46.1503079 C72.564,46.1503079 74.0863,44.6315393 74.0863,42.7583248 L74.0863,24.8546178 C74.0863,24.8546178 53.1988,39.5661168 14.943,46.1503079 Z M8.7363,21.4656285 C8.0693,22.0304268 7.203,22.2769023 5.8313,22.2769023 L5.2618,22.2769023 L5.2618,15.525966 L5.8314,15.525966 C7.203,15.525966 8.0352,15.756276 8.7364,16.3514098 C9.4704,16.9648047 9.9121,17.9148832 9.9121,18.8930021 C9.9121,19.8729172 9.4705,20.8522335 8.7363,21.4655287 L8.7363,21.4656285 Z M6.2565,13.7959469 L3.1406,13.7959469 L3.1406,24.0052251 L6.24,24.0052251 C7.888,24.0052251 9.0784,23.6405011 10.123,22.8267325 C11.3645,21.8627834 12.0986,20.4101741 12.0986,18.9077707 C12.0986,15.8946815 9.699,13.7959469 6.2564,13.7959469 L6.2565,13.7959469 Z M13.0755,24.0052251 L15.1982,24.0052251 L15.1982,13.7959469 L13.0755,13.7959469 L13.0755,24.0052251 Z M20.3885,17.6890637 C19.1148,17.2470042 18.7407,16.9550255 18.7407,16.4037983 C18.7407,15.7607665 19.4072,15.2722059 20.3221,15.2722059 C20.9581,15.2722059 21.4808,15.5173843 22.0337,16.0987473 L23.1445,14.7343503 C22.2315,13.9853439 21.1398,13.6023588 19.9467,13.6023588 C18.0212,13.6023588 16.5524,14.8569894 16.5524,16.5278344 C16.5524,17.9343418 17.2364,18.6541104 19.23,19.3273779 C20.061,19.602293 20.4838,19.7857028 20.6973,19.9088408 C21.1213,20.1686879 21.3337,20.5363057 21.3337,20.9650934 C21.3337,21.7921338 20.6327,22.4050297 19.6857,22.4050297 C18.6731,22.4050297 17.8577,21.9302399 17.3687,21.0435265 L15.9977,22.2823907 C16.9757,23.6290255 18.15,24.2257558 19.7652,24.2257558 C21.9712,24.2257558 23.5187,22.849983 23.5187,20.8735881 C23.5187,19.2516391 22.8031,18.5173015 20.3885,17.6889639 L20.3885,17.6890637 Z M24.1883,18.8802293 C24.1883,21.880845 26.6999,24.2076943 29.9323,24.2076943 C30.8463,24.2076943 31.6287,24.0393524 32.5941,23.6129597 L32.5941,21.2689469 C31.7451,22.0656518 30.9935,22.3871677 30.0311,22.3871677 C27.8931,22.3871677 26.3758,20.932862 26.3758,18.8656603 C26.3758,16.905431 27.9415,15.3593206 29.9323,15.3593206 C30.9451,15.3593206 31.7113,15.6980998 32.5941,16.5078769 L32.5941,14.164862 C31.6621,13.7218047 30.8959,13.537896 29.9827,13.537896 C26.7667,13.537896 24.1883,15.911845 24.1883,18.8803291 L24.1883,18.8802293 Z M49.4247,20.6377898 L46.5224,13.78038 L44.2037,13.78038 L48.8217,24.2515011 L49.9642,24.2515011 L54.6656,13.78038 L52.3646,13.78038 L49.4248,20.6377898 L49.4247,20.6377898 Z M55.6254,24.0053248 L61.6454,24.0053248 L61.6454,22.2770021 L57.7464,22.2770021 L57.7464,19.5210658 L61.5014,19.5210658 L61.5014,17.7919448 L57.7464,17.7919448 L57.7464,15.525966 L61.6454,15.525966 L61.6454,13.7959469 L55.6254,13.7959469 L55.6254,24.0053248 Z M65.7916,18.4960467 L65.1716,18.4960467 L65.1716,15.4041253 L65.8253,15.4041253 C67.1473,15.4041253 67.8657,15.9240191 67.8657,16.9175053 C67.8657,17.9438217 67.1472,18.4961465 65.7917,18.4961465 L65.7916,18.4960467 Z M70.05,16.8102335 C70.05,14.8988004 68.647,13.7959469 66.1987,13.7959469 L63.051,13.7959469 L63.051,24.0052251 L65.1714,24.0052251 L65.1714,19.9039512 L65.4481,19.9039512 L68.3861,24.0052251 L70.9967,24.0052251 L67.571,19.7043758 C69.1698,19.3990255 70.0498,18.3732081 70.0498,16.8101338 L70.05,16.8102335 Z M33.2852,18.8987898 L33.2852,18.8951975 C33.2852,15.8955796 35.8772,13.4675456 39.0747,13.4675456 C42.2721,13.4675456 44.8641,15.8956794 44.8641,18.8951975 L44.8641,18.8987898 C44.8641,21.8984076 42.2721,24.3299342 39.0748,24.3299342 C35.8773,24.3299342 33.2853,21.8981083 33.2853,18.89869 L33.2852,18.8987898 Z"></path>
                    </g>
                </g>
            </g>
        </g>
    </g>
</svg>