<?xml version="1.0" encoding="UTF-8"?>
<svg width="78px" height="50px" viewBox="0 0 78 50" version="1.1" xmlns="http://www.w3.org/2000/svg" xmlns:xlink="http://www.w3.org/1999/xlink">
    <!-- Generator: Sketch 41.2 (35397) - http://www.bohemiancoding.com/sketch -->
    <title>hipercard</title>
    <desc>Created with Sketch.</desc>
    <defs></defs>
    <g id="Page-1" stroke="none" stroke-width="1" fill="none" fill-rule="evenodd">
        <g id="iPad-Pro-Portrait" transform="translate(-531.000000, -358.000000)" fill="#393939">
            <g id="mono" transform="translate(33.000000, 358.000000)">
                <g id="hipercard" transform="translate(498.000000, 0.000000)">
                    <g id="amex-outline">
                        <path d="M72.5,0 L5.5,0 C2.4673,0 0,2.46237525 0,5.48902196 L0,44.510978 C0,47.5376248 2.4673,50 5.5,50 L72.5,50 C75.5325,50 78,47.5376248 78,44.510978 L78,5.48902196 C78,2.46237525 75.5325,0 72.5,0 Z M33.9927,38.9644711 L5.3393,38.9747505 L5.3393,38.9058882 C5.3393,38.8679641 5.385,38.6226547 5.4408,38.360479 C5.4968,38.0984032 5.5835,37.6814371 5.6338,37.4340319 C5.6841,37.1865269 5.7701,36.7659681 5.8248,36.4994012 C5.8796,36.2329341 5.9708,35.7891218 6.0272,35.5130739 C6.0836,35.2371257 6.172,34.800998 6.2237,34.544012 C6.2754,34.2870259 6.3615,33.8663673 6.4153,33.6095808 C6.469,33.352495 6.5607,32.9086826 6.619,32.6231537 C6.6772,32.3377246 6.7657,31.9015968 6.8157,31.6540918 C6.8657,31.4065868 6.9451,31.0249501 6.9922,30.8061876 C7.0392,30.5872255 7.0992,30.2912176 7.1255,30.148503 C7.1518,30.0057884 7.2369,29.5852295 7.3145,29.2140719 C7.3923,28.8428144 7.4779,28.4223553 7.5051,28.2796407 C7.5323,28.1369261 7.6184,27.7162675 7.6966,27.3451098 C7.7746,26.9740519 7.8606,26.553493 7.8873,26.4106786 C7.9141,26.2679641 8.0003,25.8474052 8.079,25.4762475 C8.1577,25.10499 8.2427,24.6923154 8.2677,24.5590818 C8.2929,24.4258483 8.3617,24.0832335 8.4207,23.7976048 C8.4797,23.5121756 8.5912,22.9748503 8.6687,22.6036926 C8.7461,22.2324351 8.8785,21.5862275 8.9627,21.1673653 C9.0473,20.7486028 9.1482,20.2501996 9.1871,20.05998 C9.2261,19.8696607 9.2963,19.5270459 9.3434,19.298503 C9.3904,19.0699601 9.4759,18.6573852 9.5334,18.3813373 C9.5907,18.1052894 9.684,17.6537924 9.7407,17.3776447 C9.7975,17.1016966 9.8849,16.6733533 9.935,16.4259481 C9.985,16.1784431 10.0705,15.7656687 10.125,15.5087824 C10.1793,15.2516966 10.273,14.8 10.333,14.50499 C10.393,14.2098802 10.4934,13.7582834 10.5562,13.5012974 C10.619,13.2443114 10.7078,12.9328343 10.7536,12.8091816 C10.7993,12.6854291 10.9256,12.4172655 11.0342,12.2130739 L11.2317,11.8421158 L11.4112,11.6073852 C11.5098,11.4784431 11.6862,11.2745509 11.8028,11.1542914 C11.9195,11.0342315 12.1163,10.8533932 12.2404,10.7525948 C12.3644,10.6517964 12.5438,10.5155689 12.6391,10.4501996 C12.7346,10.3846307 12.9219,10.2699601 13.0554,10.1953094 C13.1889,10.1204591 13.3764,10.0228543 13.4716,9.97804391 C13.567,9.93313373 13.7621,9.85129741 13.9051,9.79610778 C14.0481,9.74101796 14.3211,9.64840319 14.5119,9.59071856 C14.7026,9.53283433 15.0607,9.44560878 15.3076,9.39710579 C15.5546,9.34820359 15.9446,9.28333333 16.1746,9.25239521 L16.5926,9.19630739 L45.2634,9.18552894 L73.934,9.1745509 L73.934,9.24341317 C73.934,9.28113772 73.888,9.52654691 73.8318,9.78862275 C73.7755,10.0506986 73.6816,10.4988024 73.623,10.7843313 C73.5643,11.0697605 73.479,11.4826347 73.433,11.701497 C73.387,11.9204591 73.3,12.3409182 73.2396,12.6359281 C73.1793,12.9310379 73.0864,13.3827345 73.0333,13.6396208 C72.9803,13.8966068 72.8941,14.3172655 72.8421,14.5740519 C72.7901,14.8311377 72.7036,15.2516966 72.6499,15.5085828 C72.5959,15.7654691 72.5129,16.1704591 72.4646,16.4083832 C72.4164,16.6463074 72.3293,17.0745509 72.271,17.3600798 C72.2125,17.645509 72.1188,18.0973054 72.0626,18.3637725 C72.0063,18.6302395 71.9208,19.0429142 71.8724,19.2809381 C71.8238,19.5187625 71.7367,19.947006 71.6786,20.2325349 C71.6204,20.5179641 71.5269,20.9697605 71.4706,21.2363273 C71.4146,21.5027944 71.3308,21.9076846 71.2846,22.1361277 C71.2386,22.3643713 71.1516,22.7928144 71.0916,23.0877246 C71.0316,23.3827345 70.9442,23.8110778 70.8972,24.0396208 C70.8502,24.2679641 70.7665,24.6729541 70.7112,24.9393214 C70.6555,25.2057884 70.5606,25.6653693 70.5002,25.9602794 C70.4397,26.255489 70.3532,26.6758483 70.308,26.8949102 C70.2626,27.1136727 70.178,27.5264471 70.1195,27.8118762 C70.0612,28.0977046 69.9685,28.5492016 69.9132,28.8158683 C69.8582,29.0823353 69.7717,29.5027944 69.7212,29.7502994 C69.6707,29.9978044 69.5828,30.4259481 69.5262,30.701996 C69.4692,30.9778443 69.3764,31.4295409 69.3198,31.705489 C69.2632,31.9815369 69.1784,32.3943114 69.1313,32.6226547 C69.0843,32.8511976 68.9983,33.2716567 68.9401,33.5571856 C68.8821,33.8426148 68.7875,34.2927146 68.7301,34.556986 L68.6257,35.0377246 L68.5013,35.3702595 C68.4329,35.5531936 68.33,35.7964072 68.2726,35.9105788 C68.2154,36.0247505 68.0986,36.2263473 68.0134,36.358483 C67.928,36.490519 67.809,36.6596806 67.749,36.7344311 C67.689,36.8092814 67.5082,37.0021956 67.3472,37.1635729 L67.0549,37.4563872 L66.7733,37.655988 C66.6185,37.7657685 66.4517,37.8773453 66.4028,37.903992 C66.3538,37.9306387 66.1672,38.0257485 65.9882,38.1150699 C65.8092,38.2045908 65.5564,38.3183633 65.4265,38.3679641 C65.2965,38.4178643 65.039,38.5022954 64.8543,38.5558882 C64.6696,38.6097804 64.4716,38.6626747 64.4143,38.6734531 C64.3571,38.6844311 64.1586,38.7253493 63.973,38.7646707 C63.7875,38.8037924 63.413,38.862475 63.1408,38.8947106 L62.6458,38.9535928 L33.9927,38.9644711 Z M61.2997,38.0837325 L61.7652,38.0283433 C62.0212,37.998004 62.3732,37.9429142 62.5476,37.905988 C62.722,37.8690619 62.9086,37.8305389 62.9626,37.8201597 C63.0163,37.80998 63.2026,37.7602794 63.3761,37.7096806 C63.5498,37.6592814 63.7919,37.5799401 63.9141,37.5330339 C64.0363,37.4863273 64.2741,37.3793413 64.4421,37.2952096 C64.6105,37.2113772 64.7858,37.1218563 64.8319,37.0968064 C64.8779,37.0718563 65.0347,36.9667665 65.1802,36.8635729 L65.4449,36.6759481 L65.7197,36.400499 C65.8711,36.2488024 66.041,36.0674651 66.0974,35.9973054 C66.1538,35.9268463 66.2657,35.7677645 66.346,35.6437126 C66.4262,35.5194611 66.536,35.3299401 66.5896,35.2227545 C66.6436,35.1152695 66.7403,34.8867265 66.8046,34.7147705 L66.9216,34.4020958 L67.0196,33.9502994 C67.0736,33.7017964 67.1626,33.2786427 67.2173,33.0101796 C67.272,32.7417166 67.3528,32.346507 67.3971,32.1317365 C67.4414,31.9171657 67.5211,31.5289421 67.5743,31.2694611 C67.6275,31.00998 67.7148,30.5854291 67.7683,30.3260479 C67.8216,30.0665669 67.9043,29.6638723 67.9516,29.4313373 C67.9992,29.1986028 68.0804,28.8032934 68.1322,28.5526946 C68.184,28.3021956 68.2712,27.8776447 68.3262,27.6090818 C68.381,27.3406188 68.4606,26.9525948 68.5032,26.747006 C68.5458,26.541018 68.6272,26.1458084 68.6842,25.8683633 C68.7407,25.5911178 68.83,25.1591816 68.8822,24.9085828 C68.9342,24.6580838 69.013,24.2774451 69.0572,24.0627745 C69.1014,23.8479042 69.1834,23.4452096 69.24,23.1678643 C69.2964,22.8906188 69.378,22.4879242 69.4214,22.2732535 C69.4648,22.058483 69.5434,21.6778443 69.5964,21.4273453 C69.6492,21.1768463 69.7371,20.7520958 69.7918,20.4836327 C69.8464,20.2151697 69.9283,19.8125749 69.974,19.5889222 C70.0195,19.3651697 70.1,18.9771457 70.1528,18.7266467 C70.2056,18.4761477 70.2938,18.0513972 70.3486,17.7829341 C70.4034,17.5144711 70.4853,17.1118762 70.5306,16.8882236 C70.576,16.6644711 70.6542,16.2837325 70.7049,16.0421158 C70.7553,15.8005988 70.8369,15.4053892 70.8856,15.1635729 C70.9346,14.9220559 71.0156,14.5265469 71.0654,14.2849301 C71.1154,14.0434132 71.2026,13.6187625 71.2594,13.3414172 C71.3161,13.0639721 71.3979,12.6687625 71.4411,12.4628743 C71.4841,12.256986 71.5645,11.8690619 71.6197,11.6005988 C71.6747,11.3321357 71.7631,10.9107784 71.816,10.6644711 C71.8686,10.4179641 71.912,10.1874251 71.912,10.1517964 L71.912,10.0869261 L44.958,10.097505 L18.004,10.107485 L17.6108,10.1601796 C17.3945,10.1891218 17.0278,10.2503992 16.7958,10.2962076 C16.5636,10.3421158 16.2268,10.4239521 16.0476,10.4783433 C15.8684,10.5327345 15.6116,10.6196607 15.4772,10.6714571 C15.3427,10.7233533 15.1592,10.8003992 15.0696,10.842515 C14.98,10.8846307 14.8039,10.9765469 14.6784,11.0467066 C14.5528,11.1168663 14.3768,11.2246507 14.2871,11.2862275 C14.1976,11.3478044 14.0288,11.4758483 13.9123,11.5706587 C13.7957,11.6654691 13.6107,11.8353293 13.5009,11.9483034 C13.3912,12.0612774 13.2255,12.252994 13.1329,12.3742515 L12.9639,12.5948104 L12.7784,12.9436128 C12.6764,13.1356287 12.5574,13.3877246 12.5146,13.5040918 C12.4716,13.6202595 12.388,13.9132735 12.329,14.1547904 C12.2698,14.3963074 12.1754,14.8208583 12.119,15.0983034 C12.0625,15.3757485 11.9746,15.8002994 11.9234,16.0419162 C11.8724,16.2834331 11.7919,16.6714571 11.7448,16.9041916 C11.6978,17.1367265 11.6155,17.5394212 11.5621,17.7989022 C11.5089,18.0583832 11.4211,18.4829341 11.3671,18.7426148 C11.3133,19.0020958 11.2331,19.39002 11.1887,19.6046906 C11.1444,19.8195609 11.0783,20.1418164 11.0419,20.3207585 C11.0053,20.4996008 10.9104,20.9680639 10.8309,21.3616766 C10.7517,21.7555888 10.6273,22.3631737 10.5544,22.7121756 C10.4816,23.0611776 10.3767,23.5662675 10.3214,23.8347305 C10.2659,24.1031936 10.2012,24.4252495 10.1774,24.550499 C10.154,24.6757485 10.0741,25.0637725 10,25.4127745 C9.926,25.7616766 9.845,26.1570858 9.8197,26.2912176 C9.7945,26.4254491 9.7137,26.8207585 9.6404,27.1696607 C9.5669,27.5185629 9.4859,27.9139721 9.4604,28.0482036 C9.4349,28.1824351 9.3544,28.5777445 9.2814,28.9267465 C9.2084,29.2756487 9.1284,29.6710579 9.1036,29.8051896 C9.079,29.9394212 9.0226,30.2176647 8.9783,30.4234531 C8.934,30.6290419 8.8593,30.9878244 8.8123,31.2205589 C8.7653,31.4530938 8.6821,31.8632735 8.6273,32.1317365 C8.5726,32.4001996 8.4863,32.8173653 8.4359,33.0588822 C8.3852,33.3003992 8.3043,33.6958084 8.2557,33.937525 C8.2071,34.1790419 8.124,34.589022 8.071,34.848503 C8.018,35.107984 7.9323,35.5253493 7.8808,35.7756487 C7.8294,36.0263473 7.7485,36.4216567 7.7013,36.6542914 C7.6539,36.8868263 7.5723,37.2790419 7.5198,37.5252495 C7.4673,37.7717565 7.4243,38.002495 7.4243,38.038024 L7.4243,38.1028942 L34.3621,38.0931138 L61.2997,38.0837325 Z M11.3734,28.3489022 L11.3734,28.2927146 C11.3734,28.2617764 11.4136,28.0398204 11.4627,27.799501 C11.5119,27.5591816 11.5655,27.2845309 11.5821,27.1894212 C11.5986,27.0942116 11.6505,26.8294411 11.6975,26.6010978 C11.7445,26.3725549 11.8321,25.9288423 11.892,25.6146707 C11.952,25.3006986 12.0378,24.849002 12.083,24.6110778 C12.128,24.3731537 12.213,23.9137725 12.2716,23.5901198 C12.3303,23.2664671 12.4254,22.7058882 12.4832,22.3441118 L12.6735,21.15 C12.7205,20.85499 12.807,20.3176647 12.8655,19.955988 C12.924,19.5944112 12.9873,19.1973054 13.0062,19.0735529 C13.025,18.9498004 13.0649,18.7122754 13.0949,18.5458084 L13.1491,18.2429142 L14.8486,18.2429142 L14.8276,18.2978044 C14.8159,18.3279441 14.775,18.5303393 14.7366,18.7477046 C14.6983,18.9649701 14.6431,19.2556886 14.614,19.3936128 C14.585,19.5317365 14.546,19.7536926 14.5273,19.8869261 C14.5086,20.0201597 14.4538,20.3394212 14.4053,20.5963074 C14.3569,20.8533932 14.2871,21.2115768 14.2503,21.3924152 C14.2135,21.5730539 14.1605,21.852994 14.1323,22.0141717 C14.1043,22.1751497 14.0847,22.3095808 14.0886,22.3129741 C14.0926,22.3161677 14.5698,22.3302395 15.1491,22.3439122 L16.2024,22.3688623 L17.46,22.343513 L18.7174,22.3180639 L18.7752,21.9331337 C18.807,21.7215569 18.8796,21.2678643 18.9366,20.9253493 C18.9936,20.5826347 19.078,20.092016 19.1242,19.8350299 C19.1704,19.5780439 19.239,19.1888224 19.2769,18.9697605 C19.3146,18.750998 19.3559,18.4977046 19.3687,18.407485 L19.392,18.243014 L21.1054,18.243014 L21.047,18.4939122 C21.015,18.6319361 20.9402,19.0095808 20.881,19.3332335 C20.8218,19.6565868 20.734,20.1396208 20.6858,20.4060878 C20.6376,20.6725549 20.5508,21.1476048 20.4928,21.4615768 C20.4348,21.7757485 20.3418,22.2739521 20.2858,22.5691617 C20.2298,22.8641717 20.1452,23.3313373 20.0978,23.607485 C20.0502,23.8834331 19.9636,24.3973054 19.9052,24.749501 C19.8468,25.1017964 19.7532,25.6546906 19.6974,25.9782435 C19.6414,26.3017964 19.5642,26.7536926 19.5254,26.9819361 C19.4868,27.2101796 19.4387,27.5138723 19.4189,27.6567864 C19.3989,27.799501 19.3659,28.0136727 19.3451,28.1326347 L19.3077,28.3489022 L17.6157,28.3489022 L17.6152,28.3056886 C17.615,28.2817365 17.67,27.9586826 17.7372,27.587525 C17.8047,27.2162675 17.8972,26.7179641 17.9432,26.4800399 C17.9888,26.2422156 18.075,25.7827345 18.1345,25.4590818 C18.1942,25.1355289 18.2892,24.6215569 18.3457,24.3169661 C18.4022,24.0123752 18.4661,23.6732535 18.4877,23.5634731 L18.527,23.3635729 L18.502,23.3384232 L18.4767,23.3134731 L13.9454,23.3134731 L13.9259,23.3328343 C13.9152,23.343513 13.8687,23.5613772 13.8226,23.8174651 C13.7766,24.0732535 13.6988,24.5160679 13.6499,24.8016966 C13.6009,25.0871257 13.5129,25.6088822 13.4539,25.9610778 C13.3953,26.3130739 13.3094,26.8271457 13.2633,27.1030938 C13.2173,27.3790419 13.1523,27.7723553 13.119,27.9770459 L13.0586,28.349002 L11.3734,28.3489022 Z M23.0527,31.5676647 L23.0717,31.4896208 C23.0821,31.4469062 23.1369,31.1782435 23.1937,30.8926148 C23.2504,30.6071856 23.3437,30.1241517 23.4011,29.8197605 C23.4586,29.5151697 23.5541,29.0013972 23.6136,28.6775449 C23.673,28.3541916 23.7592,27.8869261 23.8049,27.6396208 C23.8507,27.3921158 23.9354,26.9325349 23.9933,26.6184631 C24.0513,26.3043912 24.1449,25.7747505 24.2016,25.4418164 C24.2584,25.108483 24.3441,24.602495 24.3921,24.3168663 C24.4401,24.0314371 24.5261,23.5174651 24.5831,23.1748503 C24.6401,22.8321357 24.7371,22.2365269 24.7984,21.850998 L24.9098,21.1500998 L26.1814,21.1500998 L26.18,21.1933134 C26.179,21.2172655 26.15,21.3734531 26.1148,21.5406188 L26.0512,21.8447106 L26.1422,21.7851297 C26.1922,21.7525948 26.2546,21.7045908 26.2805,21.6787425 C26.3065,21.6527944 26.4095,21.5797405 26.5091,21.5160679 C26.6088,21.4523952 26.7951,21.3518962 26.9231,21.2929142 L27.1561,21.1851297 L27.4241,21.1170659 L27.6921,21.0487026 L28.0205,21.010978 L28.3488,20.9733533 L28.6435,20.9949102 L28.9383,21.0165669 L29.2331,21.0869261 L29.5279,21.157485 L30.0633,21.4334331 L30.2895,21.6729541 L30.5158,21.9122754 L30.6328,22.145509 L30.7501,22.3786427 L30.8224,22.69002 L30.8948,23.0016966 L30.9178,23.3130739 L30.9408,23.6244511 L30.901,23.991517 C30.879,24.193513 30.8298,24.5204591 30.7916,24.7183633 L30.7221,25.0781437 L30.5878,25.493513 C30.5138,25.7220559 30.387,26.0645709 30.3058,26.25499 C30.2245,26.4452096 30.1138,26.6661677 30.0598,26.7457086 C30.0058,26.8253493 29.9614,26.8991018 29.9614,26.9097804 C29.9614,26.9203593 29.8877,27.0265469 29.7974,27.1457086 C29.7074,27.2649701 29.5319,27.4640719 29.4074,27.5881238 L29.1811,27.8139721 L28.9383,27.9716567 C28.8048,28.058483 28.602,28.1722555 28.4875,28.2244511 L28.2795,28.3192615 L27.8918,28.4193613 L27.5042,28.5194611 L27.1462,28.5414172 L26.7884,28.5633733 L26.5064,28.5268463 L26.2244,28.4903194 L25.9876,28.3958084 L25.751,28.3011976 L25.5587,28.1078842 L25.3665,27.9144711 L25.2799,27.750998 C25.2322,27.660978 25.1839,27.5873253 25.1729,27.5873253 C25.1615,27.5873253 25.1336,27.7236527 25.1107,27.8902196 C25.0877,28.0568862 25.0307,28.4344311 24.9842,28.7295409 C24.9376,29.0245509 24.8536,29.5540918 24.7975,29.9061876 C24.7413,30.258483 24.6709,30.7053892 24.6409,30.8998004 C24.6109,31.094012 24.5862,31.299002 24.5862,31.355489 C24.5862,31.4118762 24.5768,31.4826347 24.5652,31.5127745 L24.5442,31.5676647 L23.0527,31.5676647 Z M33.5879,28.4824351 C33.4557,28.4654691 33.2197,28.4207585 33.0634,28.3831337 L32.7791,28.3145709 L32.5751,28.2219561 C32.4631,28.1710579 32.2933,28.0712575 32.1981,28.0003992 C32.1026,27.9297405 31.9601,27.8037924 31.8816,27.7209581 C31.803,27.6381238 31.6986,27.5000998 31.6498,27.4145709 C31.6008,27.3287425 31.5291,27.1730539 31.4904,27.0682635 C31.4517,26.9637725 31.3962,26.7768463 31.3674,26.6530938 L31.3146,26.4280439 L31.3141,25.9130739 L31.3135,25.3981038 L31.3688,25.0478044 C31.3993,24.8551896 31.461,24.5418164 31.5061,24.3515968 C31.5511,24.1611776 31.6281,23.888523 31.6771,23.7458084 C31.7259,23.6030938 31.7988,23.408483 31.8388,23.3132735 C31.8788,23.2180639 31.967,23.0312375 32.0346,22.8979042 C32.1023,22.7646707 32.2209,22.5622754 32.2983,22.448004 C32.3756,22.3337325 32.5173,22.1622754 32.6133,22.0667665 C32.7089,21.9711577 32.8575,21.8362275 32.9435,21.7667665 C33.0293,21.6974052 33.2009,21.5831337 33.3249,21.5130739 C33.4489,21.4429142 33.6674,21.3387226 33.8104,21.2817365 L34.0706,21.1779441 L34.4866,21.0981038 L34.9029,21.0184631 L35.2497,20.996008 L35.5964,20.9735529 L35.9698,21.0091816 L36.3428,21.0448104 L36.6458,21.1174651 L36.9488,21.1903194 L37.1222,21.2823353 C37.2176,21.3329341 37.3512,21.4136727 37.4195,21.4616766 C37.4875,21.5095808 37.5905,21.6033932 37.6481,21.6696607 C37.7057,21.7362275 37.7938,21.860978 37.8436,21.9471058 L37.9346,22.103493 L37.9896,22.3398204 L38.0444,22.5763473 L38.0434,22.8929142 L38.0422,23.209481 L37.9916,23.5857285 C37.9638,23.7928144 37.9148,24.0731537 37.8826,24.2087824 L37.8246,24.4552894 L35.8956,24.443014 L33.9664,24.4305389 L32.9228,24.4792415 L32.8632,24.8654691 L32.8038,25.2512974 L32.8043,25.6840319 L32.8047,26.1167665 L32.8717,26.3505988 L32.9387,26.5843313 L33.0455,26.7709581 L33.1525,26.9571856 L33.4265,27.2042914 L33.5923,27.2861277 C33.6836,27.3313373 33.8519,27.3979042 33.9663,27.4344311 L34.1743,27.5006986 L34.7813,27.4997006 L35.3883,27.4984032 L35.77,27.4245509 L36.1518,27.3506986 L36.5158,27.2311377 C36.7158,27.1652695 36.9378,27.0832335 37.0091,27.0489022 L37.1387,26.9865269 L37.1572,27.00499 L37.176,27.0235529 L37.0913,27.4353293 C37.0447,27.6616766 36.9971,27.9169661 36.9855,28.0026946 L36.9643,28.1588822 L36.5403,28.251996 C36.3073,28.3030938 35.9448,28.3691617 35.7349,28.3987026 C35.5252,28.4281437 35.1819,28.4679641 34.9719,28.4870259 L34.5906,28.5217565 L34.209,28.5174651 C33.9992,28.5151697 33.7195,28.4993014 33.5875,28.4825349 L33.5879,28.4824351 Z M50.9421,28.5048902 L50.4739,28.5183633 L50.2697,28.4862275 C50.1573,28.4684631 49.9587,28.4237525 49.828,28.3869261 L49.5906,28.3200599 L49.3832,28.1943114 L49.1759,28.0685629 L49.0589,27.9323353 C48.9949,27.857485 48.8999,27.7187625 48.8483,27.6239521 L48.7545,27.4518962 L48.7038,27.1878244 L48.6532,26.9237525 L48.6532,26.289521 L48.7062,25.9871257 L48.7592,25.6850299 L48.8746,25.4162675 C48.938,25.2683633 49.0426,25.0695609 49.1071,24.9744511 C49.1715,24.8792415 49.3181,24.707984 49.4328,24.5936128 L49.6413,24.3858283 L49.9061,24.2216567 C50.0518,24.1311377 50.1854,24.0572854 50.2031,24.0572854 C50.2207,24.0572854 50.3001,24.0259481 50.3795,23.9876248 C50.4589,23.9494012 50.7075,23.8678643 50.9322,23.8062874 L51.3405,23.694511 L52.5883,23.6902196 L53.8361,23.6857285 L53.8959,23.3956088 L53.9557,23.1055888 L53.9574,22.8411178 L53.959,22.5768463 L53.8463,22.4091816 L53.7336,22.241517 L53.5323,22.1424152 L53.3311,22.0432136 L52.7281,21.9376248 L52.2598,21.956986 L51.7918,21.9761477 L51.2716,22.0645709 C50.9854,22.1132735 50.6046,22.1923154 50.4254,22.240519 C50.2462,22.2886228 50.0944,22.3230539 50.0884,22.3168663 C50.0822,22.3106786 50.1216,22.1352295 50.1761,21.9268463 C50.2304,21.7182635 50.2935,21.4583832 50.3161,21.349002 L50.3575,21.1499002 L50.9247,21.1477046 L51.3409,21.0974052 C51.5699,21.0694611 52.0169,21.0307385 52.3349,21.0111776 L52.9129,20.9754491 L53.3616,21.0093812 L53.8102,21.043513 L54.4622,21.1882236 L54.6808,21.299002 L54.8993,21.4093812 L55.0327,21.5371257 L55.1657,21.6645709 L55.2641,21.8649701 L55.3621,22.0653693 L55.3591,22.4989022 L55.3561,22.9323353 L55.2628,23.4341317 C55.2118,23.7101796 55.125,24.1851297 55.0703,24.4897206 C55.0155,24.7944112 54.931,25.2771457 54.8823,25.5625749 C54.8337,25.848004 54.753,26.3699601 54.703,26.7220559 L54.6122,27.3623752 L54.5927,27.8555888 L54.5732,28.3486028 L53.3,28.3486028 L53.3007,28.1324351 C53.3011,28.0134731 53.3235,27.7606786 53.3504,27.5705589 C53.3774,27.3805389 53.395,27.2205589 53.3894,27.2149701 C53.3837,27.2092814 53.3169,27.2868263 53.2409,27.3874251 C53.1649,27.4878244 53.0261,27.6457086 52.9326,27.7383234 C52.8391,27.8309381 52.6766,27.9638723 52.5716,28.0337325 C52.4668,28.1037924 52.2952,28.2013972 52.1903,28.2508982 L51.9995,28.3407186 L51.7047,28.4161677 L51.4099,28.4914172 L50.9419,28.5048902 L50.9421,28.5048902 Z M45.2381,28.5178643 C45.0281,28.5154691 44.7649,28.5001996 44.6531,28.4839321 C44.5415,28.4676647 44.3308,28.4212575 44.1851,28.3809381 L43.9201,28.3073852 L43.7181,28.2010978 L43.5164,28.094511 L43.3254,27.9071856 L43.1348,27.7197605 L43.0148,27.5326347 L42.8948,27.345509 L42.7908,27.0866267 L42.687,26.8277445 L42.6216,26.3243513 L42.6212,25.8918164 L42.6209,25.4591816 L42.6534,25.1304391 L42.6859,24.8016966 L42.7754,24.4382236 C42.8244,24.2383234 42.9218,23.9112774 42.9914,23.7113772 L43.1181,23.3481038 L43.2833,23.0123752 C43.3743,22.8277445 43.5153,22.5792415 43.5967,22.4598802 L43.7451,22.2431138 L44.0106,21.9822355 C44.1568,21.8388224 44.3204,21.6903194 44.3744,21.6521956 C44.4284,21.6142715 44.5518,21.5347305 44.6489,21.4755489 C44.7459,21.4164671 44.9259,21.3278443 45.0487,21.2789421 L45.2721,21.1898204 L45.6188,21.1169661 L45.9656,21.0444112 L46.4336,21.008483 L46.9019,20.9725549 L47.5659,21.0106786 C47.9309,21.0316367 48.3584,21.0635729 48.5157,21.0813373 C48.6729,21.0993014 48.8084,21.1206587 48.8167,21.1290419 C48.8252,21.1374251 48.8087,21.2741517 48.7803,21.4330339 C48.7519,21.5917166 48.7089,21.8501996 48.6847,22.0070858 C48.6605,22.1641717 48.6363,22.2927146 48.631,22.2927146 C48.6256,22.2927146 48.5387,22.2617764 48.438,22.2243513 L48.2546,22.1560878 L47.8036,22.0662675 L47.3529,21.9761477 L46.9713,21.9571856 L46.5899,21.9379242 L46.3299,21.9784431 C46.1869,22.0005988 45.9689,22.0498004 45.8455,22.0877246 L45.6213,22.1565868 L45.4466,22.2647705 L45.2721,22.3725549 L44.9423,22.7138723 L44.8081,22.9444112 C44.7343,23.0713573 44.6227,23.292016 44.5601,23.4347305 C44.4976,23.5774451 44.4341,23.7411178 44.4188,23.7982036 C44.4036,23.8552894 44.3588,24.010978 44.319,24.1442116 L44.247,24.3865269 L44.1788,24.8366267 L44.1108,25.2864271 L44.1104,25.6576846 L44.11,26.0289421 L44.166,26.3153693 L44.2222,26.6015968 L44.3398,26.8154691 L44.4576,27.0294411 L44.635,27.1844311 L44.8124,27.3391218 L45.2718,27.4983034 L45.6761,27.5120758 L46.0803,27.5257485 L46.5559,27.4339321 L47.0315,27.3419162 L47.3655,27.2181637 C47.5491,27.1500998 47.7192,27.0786427 47.7435,27.0592814 C47.7679,27.0403194 47.7935,27.0305389 47.8005,27.038024 C47.8073,27.045509 47.7975,27.14501 47.7787,27.2592814 C47.7597,27.3734531 47.7157,27.6131737 47.6807,27.7918164 C47.6455,27.9704591 47.6043,28.1276447 47.5887,28.1409182 C47.5733,28.1540918 47.441,28.1988024 47.2947,28.24002 C47.1485,28.2812375 46.9067,28.3386228 46.7573,28.3674651 C46.6078,28.3964072 46.2906,28.4431138 46.0523,28.4712575 L45.6191,28.5225549 L45.2374,28.5185629 L45.2381,28.5178643 Z M38.2494,28.3489022 L38.2494,28.3184631 C38.2494,28.3017964 38.2714,28.1811377 38.2984,28.0503992 C38.3254,27.9194611 38.3954,27.5711577 38.4537,27.2759481 C38.512,26.9810379 38.6063,26.4981038 38.6629,26.2030938 C38.7197,25.9080838 38.8057,25.4563872 38.8542,25.1994012 C38.9027,24.9424152 38.9887,24.4518962 39.0452,24.1091816 C39.1019,23.7665669 39.1879,23.2369261 39.2362,22.9325349 C39.2847,22.6278443 39.3634,22.1398204 39.4112,21.8477046 C39.4587,21.5556886 39.4978,21.2793413 39.4978,21.2334331 L39.4978,21.1500998 L40.8202,21.1500998 L40.8017,21.2107784 C40.7917,21.2439122 40.7505,21.4582834 40.7107,21.6866267 C40.6709,21.9151697 40.6247,22.1642715 40.6081,22.240519 L40.5781,22.3788423 L40.6276,22.3096806 C40.6548,22.2717565 40.7574,22.1314371 40.8556,21.9983034 C40.9536,21.8649701 41.1101,21.6814371 41.2032,21.5904192 C41.2962,21.4996008 41.4566,21.3711577 41.5597,21.3051896 C41.663,21.2393214 41.8303,21.1550898 41.9317,21.1179641 C42.033,21.0807385 42.2173,21.0324351 42.3413,21.0105788 L42.5667,20.9706587 L42.7401,20.9921158 C42.8354,21.0040918 43.0266,21.048004 43.1649,21.0899202 C43.3032,21.1318363 43.4163,21.1760479 43.4163,21.1881238 C43.4163,21.2000998 43.3773,21.4011976 43.3296,21.6348303 C43.2818,21.8685629 43.2428,22.096507 43.2428,22.1414172 C43.2428,22.1863273 43.2335,22.2232535 43.2221,22.2232535 C43.2107,22.2232535 43.1131,22.1968064 43.0054,22.1646707 L42.8094,22.1061876 L42.4106,22.1041916 L42.0116,22.1018962 L41.7508,22.2264471 L41.4898,22.3507984 L41.2783,22.5462076 L41.0668,22.7418164 L40.9088,22.9757485 C40.8218,23.104491 40.6948,23.3303393 40.6268,23.4779441 C40.5588,23.6256487 40.5032,23.7676647 40.5032,23.7938124 C40.5032,23.8197605 40.48,23.9068862 40.4515,23.9874251 C40.423,24.0676647 40.3389,24.439521 40.2643,24.8135729 C40.1899,25.1878244 40.0811,25.7898204 40.0225,26.1515968 C39.964,26.5131737 39.8841,27.0148703 39.8451,27.2663673 C39.8061,27.5180639 39.7643,27.8646707 39.7521,28.0365269 L39.7298,28.3492016 L38.2494,28.3489022 Z M55.8086,28.3489022 L55.8726,28.0288423 L56.0399,27.189521 C56.0967,26.9040918 56.1893,26.4290419 56.2457,26.1339321 C56.3021,25.8389222 56.3877,25.3872255 56.4357,25.1303393 C56.4839,24.8733533 56.5701,24.3828343 56.6272,24.0401198 C56.6844,23.6974052 56.7776,23.1289421 56.8345,22.7768463 C56.8912,22.4245509 56.9698,21.9245509 57.0089,21.6653693 C57.0479,21.4062874 57.0799,21.1843313 57.0799,21.1723553 L57.0799,21.1500998 L58.3631,21.1500998 L58.3616,21.2279441 C58.3608,21.2708583 58.3156,21.5317365 58.2613,21.8077844 C58.207,22.0837325 58.1671,22.3145709 58.1727,22.3205589 C58.1783,22.3265469 58.2429,22.241018 58.3162,22.1302395 L58.4496,21.9288423 L58.6979,21.6693613 L58.9463,21.4098802 L59.1373,21.2948104 L59.3283,21.1798403 L59.5826,21.0906188 L59.837,21.0010978 L60.1492,21.0003992 L60.4612,20.9994012 L60.6347,21.0540918 C60.7301,21.0840319 60.8491,21.1245509 60.8992,21.1441118 L60.9904,21.1797405 L60.9094,21.5715569 C60.8647,21.7871257 60.8276,22.0129741 60.8269,22.0737525 L60.8252,22.1841317 L60.7965,22.2018962 L60.7677,22.2196607 L60.5971,22.1649701 L60.4264,22.1103792 L59.9929,22.1071856 L59.5595,22.1041916 L59.3603,22.200499 C59.2507,22.2533932 59.0683,22.3663673 58.9548,22.4515968 L58.7484,22.6062874 L58.5599,22.8561876 L58.3714,23.1061876 L58.2284,23.4077844 C58.15,23.5736527 58.0854,23.7291417 58.0851,23.7532934 C58.0848,23.7774451 58.0601,23.8673653 58.0299,23.9528942 C57.9999,24.0387226 57.9285,24.3267465 57.8712,24.5933134 C57.8142,24.8597804 57.7465,25.2102794 57.7209,25.3720559 C57.6954,25.5339321 57.6347,25.9076846 57.5859,26.2027944 C57.5371,26.4977046 57.4579,26.9972056 57.4099,27.3125749 L57.3227,27.8860279 L57.3227,28.348503 L55.8086,28.3489022 Z M27.2976,27.5488024 L27.8863,27.349002 L28.0133,27.2541916 C28.0833,27.2022954 28.1953,27.1127745 28.2618,27.0555888 C28.3285,26.9984032 28.4408,26.8711577 28.5112,26.7731537 C28.5816,26.6750499 28.7042,26.4717565 28.7839,26.3210579 L28.9289,26.0474052 L29.0469,25.7092814 C29.1119,25.5233533 29.2051,25.1963074 29.2541,24.9825349 L29.3431,24.5938124 L29.3609,23.9363273 L29.3787,23.2786427 L29.3207,23.0560878 C29.2887,22.9338323 29.226,22.7618762 29.1813,22.6738523 L29.1003,22.5141717 L28.9498,22.3632735 L28.7993,22.2123752 L28.62,22.1299401 L28.4406,22.047505 L28.1866,21.9936128 L27.9323,21.9394212 L27.3081,21.9759481 L27.0653,22.0507984 L26.8226,22.1258483 L26.6366,22.2312375 C26.5342,22.2891218 26.361,22.4108782 26.2516,22.5016966 L26.0528,22.6666667 L25.9621,23.1457086 C25.9121,23.4091816 25.8231,23.8974052 25.7645,24.2305389 C25.7058,24.5635729 25.6175,25.0464072 25.5685,25.3033932 L25.4792,25.7706587 L25.4614,26.0688623 L25.4437,26.3672655 L25.4877,26.5533932 C25.5121,26.6558882 25.5667,26.8175649 25.6095,26.9126747 L25.687,27.0858283 L25.8213,27.2135729 L25.9555,27.3417166 L26.1478,27.4293413 L26.3401,27.5168663 L26.5294,27.5500998 L26.7186,27.5835329 L27.2976,27.5488024 Z M20.7979,28.3489022 L20.8189,28.2710579 C20.8304,28.2281437 20.8701,28.0453094 20.9072,27.8643713 C20.9442,27.6835329 21.0217,27.2942116 21.0795,26.9991018 C21.1373,26.7040918 21.2242,26.2525948 21.2725,25.9954092 C21.3211,25.7384232 21.4061,25.2868263 21.4615,24.9918164 C21.5171,24.6966068 21.6025,24.2060878 21.6515,23.9013972 C21.7007,23.597006 21.7881,23.0595808 21.8458,22.7073852 C21.9035,22.3553892 21.9791,21.8647705 22.0135,21.6172655 L22.0765,21.1671657 L23.5851,21.1487026 L23.5661,21.1791417 C23.5559,21.1958084 23.4919,21.488024 23.4241,21.8286427 C23.3561,22.1692615 23.2609,22.6581836 23.2126,22.9151697 C23.1642,23.1720559 23.0794,23.6159681 23.0242,23.9013972 C22.969,24.1871257 22.8854,24.646507 22.8382,24.9223553 C22.7912,25.198503 22.7049,25.712475 22.6465,26.0645709 C22.588,26.4166667 22.4933,26.9957086 22.4359,27.3511976 C22.3789,27.7067864 22.3319,28.0520958 22.3319,28.1186627 C22.3319,28.1848303 22.3224,28.2637725 22.3107,28.294012 L22.2897,28.3486028 L20.7979,28.3489022 Z M51.6527,27.5227545 L51.9339,27.4339321 L52.2152,27.3451098 L52.343,27.2586826 C52.4134,27.2110778 52.4835,27.1720559 52.4988,27.1720559 C52.5142,27.1720559 52.6205,27.0795409 52.7348,26.9664671 L52.9428,26.7608782 L53.0693,26.5486028 C53.139,26.4318363 53.196,26.3270459 53.196,26.3152695 C53.196,26.3036926 53.242,26.1763473 53.2984,26.0322355 C53.3547,25.8882236 53.4404,25.6224551 53.4891,25.4414172 C53.5379,25.2607784 53.5984,24.990519 53.6238,24.8412176 L53.6698,24.5695609 L53.6151,24.547006 L53.5603,24.5243513 L51.8263,24.5243513 L51.5488,24.5902196 L51.2714,24.6560878 L51.0482,24.7631737 L50.8252,24.8704591 L50.6149,25.0788423 L50.4046,25.2871257 L50.2948,25.5133733 C50.2344,25.6377246 50.1585,25.8304391 50.1262,25.941517 L50.0674,26.1431138 L50.0821,26.4759481 L50.0965,26.8085828 L50.1708,26.9510978 C50.2118,27.0294411 50.2838,27.1392216 50.3308,27.1952096 L50.4166,27.2968064 L50.5736,27.3773453 C50.6599,27.4216567 50.8133,27.4789421 50.9143,27.5045908 L51.098,27.551497 L51.3754,27.5368263 L51.6527,27.5227545 Z M36.6081,23.6419162 L36.6447,23.3043912 L36.6814,22.9670659 L36.6494,22.7641717 L36.6174,22.5612774 L36.5689,22.4698603 C36.5422,22.4197605 36.4726,22.3271457 36.4143,22.2644711 L36.3081,22.1501996 L36.1145,22.0617764 L35.921,21.9734531 L35.655,21.9393214 L35.3885,21.9050898 L35.0415,21.9273453 C34.8509,21.9393214 34.6325,21.9652695 34.5561,21.9849301 C34.4801,22.004491 34.3161,22.0689621 34.1921,22.1281437 L33.9667,22.2356287 L33.7373,22.4634731 L33.508,22.691018 L33.4034,22.8984032 C33.3461,23.0123752 33.2581,23.2193613 33.2081,23.358483 C33.1581,23.4977046 33.1171,23.6184631 33.1171,23.6267465 C33.1171,23.6353293 33.9026,23.6421158 34.8626,23.6421158 L36.6081,23.6419162 Z M22.8001,19.9023952 L22.6547,19.8367265 L22.5093,19.7708583 L22.4339,19.6235529 L22.3587,19.4761477 L22.3739,19.1797405 L22.3892,18.8831337 L22.4702,18.6929142 L22.5512,18.5025948 L22.6542,18.3923154 L22.7572,18.2821357 L22.9346,18.2028942 L23.1121,18.1235529 L23.6335,18.1235529 L23.7543,18.1981038 L23.875,18.2726547 L23.9445,18.3874251 L24.0138,18.502495 L24.011,18.796507 L24.0083,19.0907186 L23.9303,19.2906188 L23.8523,19.490519 L23.7041,19.6404192 L23.5561,19.7904192 L23.3886,19.8473054 L23.2212,19.9041916 L23.0109,19.9035928 L22.8001,19.9023952 Z M62.1188,28.4852295 C62.0004,28.4698603 61.8053,28.4303393 61.6852,28.3974052 C61.565,28.3646707 61.3732,28.2913174 61.2586,28.2347305 L61.0506,28.1315369 L60.8981,28.0067864 L60.7457,27.8823353 L60.612,27.7018962 L60.4785,27.5216567 L60.4053,27.338024 C60.365,27.2372255 60.3113,27.0845309 60.2856,26.9989022 L60.2392,26.8432136 L60.1998,26.4105788 L60.1606,25.9779441 L60.2129,25.4404192 L60.2652,24.9026946 L60.3712,24.488523 C60.4298,24.2607784 60.5188,23.9655689 60.5694,23.8321357 C60.6199,23.699002 60.7461,23.4139721 60.8497,23.1984032 L61.0384,22.8071856 L61.1988,22.5779441 C61.2873,22.4518962 61.4538,22.2478044 61.5691,22.1244511 L61.7788,21.8999002 L62.0215,21.7205589 L62.2642,21.5413174 L62.5938,21.3809381 L62.9232,21.2205589 L63.27,21.1331337 L63.6168,21.0456088 L63.9982,21.0100798 L64.3797,20.9746507 L64.8305,21.0095808 L65.2813,21.044511 L65.6107,21.1271457 C65.7917,21.1725549 65.9665,21.2209581 65.9987,21.2346307 L66.0572,21.2595808 L66.0758,21.1441118 C66.086,21.0806387 66.1408,20.7483034 66.1978,20.4055888 C66.2548,20.0630739 66.3484,19.4868263 66.4058,19.1251497 C66.4631,18.7634731 66.52,18.3702595 66.532,18.2512974 L66.554,18.0349301 L68.0383,18.0349301 L68.0383,18.0608782 C68.0383,18.0751497 68.0007,18.2660679 67.9545,18.4848303 C67.9085,18.7037924 67.8228,19.1321357 67.7639,19.4367265 C67.7053,19.7411178 67.6169,20.208483 67.5676,20.4749501 C67.5183,20.7414172 67.4329,21.2008982 67.3781,21.4959082 C67.3231,21.791018 67.2313,22.2893214 67.1741,22.603493 C67.1166,22.9175649 67.0308,23.400499 66.9831,23.6763473 C66.9358,23.9523952 66.8635,24.3651697 66.8228,24.593513 C66.7818,24.8220559 66.7108,25.257984 66.6648,25.5625749 C66.6188,25.8672655 66.5344,26.5134731 66.4774,26.9989022 L66.3738,27.8815369 L66.3738,28.3486028 L65.0132,28.3486028 L65.0362,28.1150699 C65.0488,27.9866267 65.0727,27.8036926 65.0895,27.708483 C65.1065,27.6132735 65.1279,27.457485 65.1375,27.3623752 L65.155,27.1892216 L65.135,27.2411178 C65.1238,27.2697605 65.03,27.405988 64.9263,27.544012 L64.7377,27.7948104 L64.5587,27.9520958 L64.3797,28.1093812 L64.1715,28.2157685 C64.0572,28.2742515 63.8855,28.3441118 63.7901,28.3710579 C63.6947,28.398004 63.4763,28.4429142 63.3046,28.4705589 L62.9923,28.5210579 L62.6629,28.5168663 C62.4816,28.5146707 62.2367,28.5001996 62.1185,28.4849301 L62.1188,28.4852295 Z M63.5163,27.5214571 L64.0677,27.3468064 L64.2583,27.2202595 C64.3633,27.1505988 64.5013,27.0452096 64.5651,26.9857285 C64.6289,26.9264471 64.7299,26.8076846 64.7897,26.7220559 C64.8495,26.6364271 64.9414,26.4759481 64.9939,26.3654691 C65.0464,26.2550898 65.1119,26.0836327 65.1393,25.9847305 C65.1668,25.8859281 65.2203,25.6881238 65.2583,25.5453094 C65.2963,25.4025948 65.3676,25.0755489 65.4168,24.8185629 C65.4662,24.5616766 65.5524,24.1021956 65.6085,23.7976048 C65.6645,23.493014 65.7432,23.0568862 65.783,22.8285429 C65.8228,22.6 65.864,22.3704591 65.8746,22.3181637 L65.8936,22.2233533 L65.7956,22.1852295 C65.7416,22.1642715 65.5493,22.1060878 65.368,22.055988 L65.0386,21.9646707 L64.4664,21.9646707 L63.8942,21.9649701 L63.6216,22.0592814 L63.3489,22.153493 L63.1939,22.2487026 C63.1083,22.3010978 62.9646,22.4153693 62.8742,22.5021956 C62.7838,22.589022 62.6469,22.7449102 62.57,22.8483034 C62.4934,22.9516966 62.3816,23.1297405 62.3218,23.2439122 C62.262,23.3581836 62.1662,23.5570858 62.1088,23.6860279 C62.0513,23.8150699 62.0043,23.939521 62.0038,23.9628743 C62.0038,23.9862275 61.9643,24.1299401 61.9165,24.2822355 L61.8295,24.5590818 L61.7737,24.956986 L61.7177,25.3551896 L61.7137,25.8050898 L61.7097,26.25499 L61.7577,26.4800399 L61.806,26.7050898 L62.0172,27.1088822 L62.1592,27.2251497 L62.3015,27.341517 L62.4705,27.4137725 C62.5635,27.453493 62.7189,27.5003992 62.8161,27.5177645 L62.9928,27.549501 L63.2548,27.5358283 L63.5163,27.5214571 Z" id="Shape"></path>
                    </g>
                </g>
            </g>
        </g>
    </g>
</svg>