<?xml version="1.0" encoding="UTF-8"?>
<svg width="75px" height="47px" viewBox="0 0 75 47" version="1.1" xmlns="http://www.w3.org/2000/svg" xmlns:xlink="http://www.w3.org/1999/xlink">
    <!-- Generator: Sketch 41.2 (35397) - http://www.bohemiancoding.com/sketch -->
    <title>jcb</title>
    <desc>Created with Sketch.</desc>
    <defs></defs>
    <g id="Page-1" stroke="none" stroke-width="1" fill="none" fill-rule="evenodd">
        <g id="iPad-Pro-Portrait" transform="translate(-634.000000, -360.000000)" fill="#393939">
            <g id="mono" transform="translate(33.000000, 358.000000)">
                <g id="jcb" transform="translate(601.000000, 2.000000)">
                    <path d="M0,3.99200637 C0,1.78719745 1.7914,0 3.9992,0 L71.0008,0 C73.2095,0 75,1.7867983 75,3.99200637 L75,43.0079936 C75,45.2128025 73.2086,47 71.0008,47 L3.9992,47 C1.7905,47 0,45.2132017 0,43.0079936 L0,3.99200637 Z M17.918,25.8400212 C17.918,25.8400212 17.8908,16.908724 17.921,12.7963737 C18.3265,10.3924883 20.7924,8.59331635 23.2076,8.81284926 L29.9386,8.81284926 C29.9308,16.9897516 29.9318,25.1667537 29.9183,33.3433567 C29.8437,35.7625096 27.73,37.8805032 25.3003,37.9409745 C22.8407,37.9481592 20.3807,37.9419724 17.9209,37.9439682 L17.9209,27.7297006 C19.7473,28.06369 21.5835,28.4234246 23.4522,28.3146561 C25.2445,28.2215541 27.406,27.9477367 28.4324,26.2745966 C29.1921,25.0387261 28.8516,23.5641635 28.9147,22.1972718 L28.8914,18.7017091 L24.7357,18.7249597 C24.7157,20.7583333 24.7767,22.7962972 24.7031,24.8267771 C24.5434,26.1772038 23.0951,26.8707282 21.8515,26.7459936 C20.4131,26.7330212 19.1328,26.1971614 17.918,25.8399214 L17.918,25.8400212 Z M31.485,20.2126943 C31.5004,17.9133864 31.4534,15.6118832 31.5103,13.314172 C31.6787,11.1245308 33.5227,9.28145223 35.6905,9.01412102 C37.8705,8.94247346 40.0577,9.00284501 42.2405,8.98288747 L43.5107,8.98288747 C43.5051,17.1989066 43.522,25.4155244 43.5022,33.6311444 C43.3449,36.1835138 40.8772,38.3265541 38.3199,38.0840701 L31.4849,38.0840701 L31.4849,26.903758 C33.2669,28.3081699 35.6744,28.5193206 37.8707,28.4910807 C39.3127,28.4536603 40.7505,28.2398153 42.141,27.8567304 L42.111,25.8300425 C40.147,26.7734352 37.7126,27.440017 35.6638,26.3665011 C34.0361,25.436879 33.845,23.0964586 34.715,21.5903631 C35.7897,20.028087 37.9604,19.981586 39.6504,20.3120828 C40.4796,20.3856263 41.5934,21.1259512 42.1411,21.1093864 L42.1411,19.2536348 C39.3066,18.5384565 36.2695,18.3070488 33.4297,19.1169257 C32.7237,19.3577134 32.0324,19.6984883 31.4852,20.2125945 L31.485,20.2126943 Z M44.891,28.0584013 L44.891,37.9328917 C47.432,37.9269045 49.9742,37.9448662 52.5143,37.9239108 C54.9299,37.7075711 57.0277,35.5057558 56.9026,33.0505796 L56.9026,8.81215074 C54.3961,8.82133121 51.8886,8.79369002 49.3826,8.82612102 C46.8624,8.97799788 44.7201,11.3265011 44.891,13.8554204 L44.891,18.7222654 C47.4137,18.7336412 49.9382,18.6993142 52.4598,18.7396285 C53.785,18.7721592 55.1984,19.8078556 54.9582,21.2590679 C54.8575,22.3695053 53.7988,23.098155 52.7585,23.2188981 C54.0585,23.3224777 55.5753,24.159896 55.5495,25.6287707 C55.5837,27.2127006 53.8685,28.1122866 52.4599,28.0584013 L44.8909,28.0584013 L44.891,28.0584013 Z M47.297,20.2829448 L47.297,22.6562951 L49.8942,22.6562951 C49.8942,22.6562951 51.1112,22.6528025 51.1112,21.4678238 C51.1112,20.282845 49.8942,20.282845 49.8942,20.282845 L47.297,20.282845 L47.297,20.2829448 Z M50.075,24.0503291 L47.297,24.0503291 L47.297,26.6004034 L50.075,26.6004034 C50.083,26.6004034 51.4446,26.6792357 51.4446,25.3251168 C51.4446,23.9709979 50.075,24.0502293 50.075,24.0502293 L50.075,24.0503291 Z" id="Shape"></path>
                </g>
            </g>
        </g>
    </g>
</svg>