<?xml version="1.0" encoding="UTF-8"?>
<svg width="75px" height="47px" viewBox="0 0 75 47" version="1.1" xmlns="http://www.w3.org/2000/svg" xmlns:xlink="http://www.w3.org/1999/xlink">
    <!-- Generator: Sketch 41.2 (35397) - http://www.bohemiancoding.com/sketch -->
    <title>maestro</title>
    <desc>Created with Sketch.</desc>
    <defs></defs>
    <g id="Page-1" stroke="none" stroke-width="1" fill="none" fill-rule="evenodd">
        <g id="iPad-Pro-Portrait" transform="translate(-734.000000, -360.000000)" fill="#393939">
            <g id="mono" transform="translate(33.000000, 358.000000)">
                <g id="maestro" transform="translate(701.000000, 2.000000)">
                    <g id="Shape">
                        <path d="M0,3.99200637 C0,1.78719745 1.7914,0 3.9992,0 L71.0008,0 C73.2095,0 75,1.7867983 75,3.99200637 L75,43.0079936 C75,45.2128025 73.2086,47 71.0008,47 L3.9992,47 C1.7905,47 0,45.2132017 0,43.0079936 L0,3.99200637 Z M70.3578,23.454896 C70.3578,34.6735265 61.2065,43.8012059 49.9533,43.8012059 C45.2633,43.8012059 40.9363,42.2167771 37.4853,39.5508493 C34.0338,42.2167771 29.709,43.8012059 25.0171,43.8012059 C13.7677,43.8012059 4.6166,34.6736263 4.6166,23.454896 C4.6166,12.2391592 13.7676,3.11287686 25.0172,3.11287686 C29.7092,3.11287686 34.034,4.70119745 37.4854,7.364431 C40.9364,4.70129724 45.2634,3.11297665 49.9534,3.11297665 C61.2067,3.11297665 70.358,12.239259 70.358,23.4549958 L70.3578,23.454896 Z M49.9533,4.93480042 C45.8153,4.93480042 41.9953,6.28692357 38.905,8.56807006 C41.9223,11.3656178 44.0854,15.0617537 44.9738,19.2200064 L43.1038,19.2200064 C42.2318,15.4995223 40.2313,12.2095223 37.4852,9.72919958 C34.741,12.2095223 32.7412,15.4995223 31.8684,19.2200064 L29.9994,19.2200064 C30.8869,15.0616539 33.0509,11.365518 36.0658,8.56797028 C32.9796,6.28682378 29.1561,4.93470064 25.0171,4.93470064 C14.7608,4.93470064 6.4438,13.2250616 6.4438,23.4547962 C6.4438,33.6843312 14.7608,41.9807792 25.0172,41.9807792 C29.1562,41.9807792 32.9798,40.6276582 36.066,38.3465117 C33.4314,35.8987197 31.446,32.7720722 30.393,29.2392887 L32.3046,29.2392887 C33.3213,32.3269193 35.1296,35.0534183 37.4854,37.1861805 C39.8466,35.0534183 41.6514,32.3269193 42.668,29.2392887 L44.579,29.2392887 C43.53,32.7720722 41.5413,35.89862 38.9052,38.3465117 C41.9956,40.6276582 45.8154,41.9807792 49.9535,41.9807792 C60.2128,41.9807792 68.5285,33.684431 68.5285,23.4547962 C68.5285,13.2251614 60.2127,4.93480042 49.9534,4.93480042 L49.9533,4.93480042 Z M37.1153,27.7968577 C36.3608,27.9904459 35.6298,28.0854437 34.8593,28.0854437 C32.4021,28.0854437 31.1188,26.968121 31.1188,24.829172 C31.1188,22.3364756 32.7486,20.5011805 34.9648,20.5011805 C36.7738,20.5011805 37.9303,21.5317877 37.9303,23.1420616 C37.9303,23.6741295 37.8527,24.1945223 37.6601,24.9346476 L33.2884,24.9346476 C33.1304,25.9770297 33.8946,26.4358535 35.1962,26.4358535 C35.9756,26.4358535 36.6782,26.2977473 37.458,25.983017 L37.1156,27.7969575 L37.1153,27.7968577 Z M35.9376,23.4648747 C35.9376,23.303518 36.18,22.1851975 34.9163,22.1596518 C34.2183,22.1596518 33.7165,22.6246624 33.5123,23.4648747 L35.9376,23.4648747 L35.9376,23.4648747 Z M39.0621,22.9724225 C39.0621,23.8944607 39.5831,24.5336008 40.7669,25.0044989 C41.6699,25.3747113 41.8124,25.4810849 41.8124,25.8121805 C41.8124,26.2737983 41.4152,26.4809575 40.5272,26.4770658 C39.8608,26.4730743 39.2518,26.3912484 38.5364,26.1924713 L38.2159,27.8703015 C38.8537,28.0189851 39.7503,28.0694777 40.5456,28.0856433 C42.9046,28.0856433 43.992,27.3142845 43.992,25.6478301 C43.992,24.6476582 43.5396,24.0572144 42.4156,23.6174501 C41.4801,23.245741 41.3724,23.1614204 41.3724,22.8243376 C41.3724,22.4271826 41.7431,22.2256115 42.4684,22.2256115 C42.9068,22.2256115 43.5072,22.2665244 44.0778,22.3366752 L44.3956,20.6432781 C43.8171,20.5664416 42.9346,20.50138 42.4256,20.50138 C39.9216,20.50138 39.0546,21.6235924 39.0623,22.9726221 L39.0621,22.9724225 Z M29.6415,27.9679936 L27.805,27.9679936 L27.85,27.199828 C27.2907,27.8008493 26.5473,28.0854437 25.5336,28.0854437 C24.3376,28.0854437 23.5156,27.2686815 23.5156,26.0966752 C23.5156,24.3130701 24.9428,23.2841592 27.3936,23.2841592 C27.6442,23.2841592 27.9673,23.2995265 28.2951,23.3370467 C28.3625,23.0960594 28.3806,22.9947749 28.3806,22.8646518 C28.3806,22.3761911 27.9969,22.1970722 26.9629,22.1970722 C25.9472,22.2013631 25.2617,22.3517431 24.6259,22.5221805 L24.9387,20.885862 C26.04,20.6088514 26.7612,20.5012803 27.5751,20.5012803 C29.4726,20.5012803 30.4771,21.2405074 30.4771,22.6362378 C30.4921,23.0070488 30.3621,23.7566539 30.2967,24.0807643 C30.2213,24.557949 29.6967,27.3138854 29.6415,27.9679936 L29.6415,27.9679936 Z M28.0313,24.7123206 C27.8001,24.6863758 27.6973,24.6793907 27.5373,24.6793907 C26.2845,24.6793907 25.6528,25.0483057 25.6528,25.7836412 C25.6528,26.2491507 25.9615,26.5337452 26.4445,26.5337452 C27.3415,26.5337452 27.9928,25.7836412 28.0313,24.7122208 L28.0313,24.7123206 Z M48.4213,26.2412675 C48.2687,26.2934565 48.077,26.3141125 47.8263,26.3141125 C47.3045,26.3141125 47.0763,26.151259 47.0763,25.7735626 C47.0763,25.5378641 47.694,22.4459427 47.694,22.4459427 L48.8206,22.4459427 L49.1219,20.6674268 L48.0015,20.6674268 L48.3352,18.9234374 L46.1512,18.9234374 C46.1512,18.9234374 45.1732,24.1944225 45.1125,24.5578493 C45.0513,24.91938 44.7737,26.2167197 44.8112,26.4927325 C44.8112,27.5125626 45.4242,28.0853439 46.551,28.0853439 C47.0556,28.0853439 47.5268,28.0186858 48.1276,27.8536369 L48.4211,26.2412675 L48.4213,26.2412675 Z M58.8823,22.2377856 C57.7761,22.2377856 57.0873,23.5440064 57.0873,24.6997473 C57.0873,25.6760701 57.5561,26.326087 58.3363,26.3159087 C59.406,26.3159087 60.0826,25.3389873 60.0826,23.6946858 C60.0826,22.9468769 59.7766,22.2377856 58.8823,22.2377856 L58.8823,22.2377856 Z M58.1528,28.0853439 C55.6925,28.0853439 54.7,26.5942166 54.7,24.7721932 C54.7,22.2256115 56.3804,20.5010807 58.9818,20.5010807 C61.2416,20.5010807 62.4414,21.9210594 62.4414,23.7431826 C62.4414,26.7652527 60.6404,28.0853439 58.1527,28.0853439 L58.1528,28.0853439 Z M50.5523,20.6623376 C50.2753,22.9215308 49.7817,25.2119575 49.3991,27.4716497 L49.3051,27.9678938 L51.5134,27.9678938 C52.3082,23.5971932 52.5734,22.3515435 54.2394,22.7915074 C54.3252,22.5570064 55.0419,20.7255032 55.0419,20.7255032 C53.8809,20.2991104 53.1313,20.9094119 52.4547,21.7695817 C52.5155,21.378414 52.6305,21.0046093 52.6017,20.6623376 L50.5523,20.6623376 L50.5523,20.6623376 Z M23.8327,19.0431826 L20.2603,19.0431826 L17.8443,24.5658323 L17.6629,19.0431826 L14.2313,19.0431826 L12.5331,27.9678938 L14.5267,27.9678938 L15.8365,21.1482038 L16.2011,27.9678938 L18.2046,27.9678938 L21.2106,21.1064926 L19.9049,27.9678938 L22.1011,27.9678938 L23.8327,19.0431826 L23.8327,19.0431826 Z"></path>
                    </g>
                </g>
            </g>
        </g>
    </g>
</svg>