<?xml version="1.0" encoding="UTF-8"?>
<svg width="75px" height="47px" viewBox="0 0 75 47" version="1.1" xmlns="http://www.w3.org/2000/svg" xmlns:xlink="http://www.w3.org/1999/xlink">
    <!-- Generator: Sketch 41.2 (35397) - http://www.bohemiancoding.com/sketch -->
    <title>mastercard</title>
    <desc>Created with Sketch.</desc>
    <defs></defs>
    <g id="Page-1" stroke="none" stroke-width="1" fill="none" fill-rule="evenodd">
        <g id="iPad-Pro-Portrait" transform="translate(-833.000000, -360.000000)" fill="#393939">
            <g id="mono" transform="translate(33.000000, 358.000000)">
                <g id="mastercard" transform="translate(800.000000, 2.000000)">
                    <g id="Shape">
                        <path d="M0,3.99200637 C0,1.78719745 1.7914,0 3.9992,0 L71.0008,0 C73.2095,0 75,1.7867983 75,3.99200637 L75,43.0079936 C75,45.2128025 73.2086,47 71.0008,47 L3.9992,47 C1.7905,47 0,45.2132017 0,43.0079936 L0,3.99200637 Z M70.3975,23.4980042 C70.3975,34.710448 61.2369,43.8353333 49.9777,43.8353333 C45.2817,43.8353333 40.9524,42.244518 37.4987,39.5841783 C34.0471,42.244518 29.7179,43.8353333 25.0217,43.8353333 C13.7627,43.8353333 4.6025,34.710448 4.6025,23.4980042 C4.6025,12.2852611 13.7627,3.16466667 25.0215,3.16466667 C29.7179,3.16466667 34.0471,4.74949469 37.4985,7.41362633 C40.9525,4.74949469 45.2815,3.16466667 49.9777,3.16466667 C61.2369,3.16466667 70.3975,12.2852611 70.3975,23.4980042 Z M49.9777,4.98299788 C45.8357,4.98299788 42.012,6.33442251 38.9227,8.61497028 C41.7247,11.211845 43.7967,14.5840701 44.7867,18.3844841 L42.8943,18.3844841 C41.9247,15.0246327 40.0293,12.0582442 37.4986,9.77530149 C34.9706,12.0584437 33.0739,15.0246327 32.108,18.3845839 L30.2127,18.3845839 C31.2051,14.5841699 33.2772,11.211845 36.079,8.61507006 C32.988,6.33452229 29.1655,4.98309766 25.0216,4.98309766 C14.7548,4.98309766 6.432,13.2714628 6.432,23.498104 C6.432,33.7223503 14.7548,42.0132102 25.0216,42.0132102 C29.1656,42.0132102 32.988,40.6617856 36.079,38.3813376 C33.4426,35.9359406 31.4537,32.8032059 30.4023,29.2767091 L32.3159,29.2767091 C33.3324,32.3645393 35.1372,35.0899406 37.4985,37.2205074 C39.8625,35.0900403 41.6695,32.3645393 42.6863,29.2767091 L44.5993,29.2767091 C43.5463,32.8032059 41.5577,35.9359406 38.9227,38.3813376 C42.0119,40.6616858 45.8357,42.0131104 49.9777,42.0131104 C60.2444,42.0131104 68.5674,33.7221507 68.5674,23.4980042 C68.5674,13.2713631 60.2444,4.98299788 49.9776,4.98299788 L49.9777,4.98299788 Z M17.4974,19.0847941 L14.5207,19.0847941 L12.6604,24.6080425 L12.5829,19.0847941 L9.8242,19.0847941 L8.327,28.0084076 L10.122,28.0084076 L11.275,21.190913 L11.436,28.0084076 L12.744,28.0084076 L15.195,21.1501996 L14.0968,28.0086072 L16.014,28.0086072 L17.4974,19.0847941 L17.4974,19.0847941 Z M21.0629,24.7744883 C20.8611,24.7539321 20.7733,24.7460488 20.6349,24.7460488 C19.5469,24.7460488 18.9986,25.1169597 18.9986,25.8477049 C18.9986,26.3003418 19.2676,26.5883291 19.6833,26.5883291 C20.4658,26.5883291 21.028,25.8476051 21.0628,24.7743885 L21.0629,24.7744883 Z M22.4562,28.0086072 L20.867,28.0086072 L20.904,27.2558089 C20.419,27.8503439 19.773,28.1347389 18.8953,28.1347389 C17.854,28.1347389 17.1451,27.3250616 17.1451,26.1539533 C17.1451,24.3847176 18.3817,23.3559066 20.5088,23.3559066 C20.7268,23.3559066 21.0058,23.3762633 21.2911,23.4127856 C21.3503,23.1712994 21.3646,23.0698153 21.3646,22.9397919 C21.3646,22.4611104 21.0323,22.2804947 20.1358,22.2804947 C19.1988,22.268121 18.4245,22.5016242 18.1066,22.6070998 C18.1272,22.4853588 18.3736,20.9755711 18.3736,20.9755711 C19.3273,20.6957665 19.9586,20.5901911 20.6676,20.5901911 C22.314,20.5901911 23.186,21.3246285 23.184,22.7168662 C23.186,23.0900722 23.1247,23.5506921 23.029,24.1578004 C22.862,25.2063694 22.5053,27.4587771 22.4563,28.0086072 L22.4562,28.0086072 Z M47.5007,18.8656603 C44.9597,18.8656603 43.1829,21.0935202 43.1829,24.2835329 C43.1829,26.6531911 44.4691,28.1347389 46.5329,28.1347389 C47.0625,28.1347389 47.5209,28.0653864 48.2259,27.8708004 L48.5621,25.8396221 C47.9284,26.1502611 47.4071,26.2981465 46.9337,26.2981465 C45.8193,26.2981465 45.1467,25.4783907 45.1467,24.1247707 C45.1467,22.1589533 46.1477,20.7808854 47.5797,20.7808854 C48.1117,20.7808854 48.6087,20.9189915 49.2932,21.2640573 L49.6072,19.3283758 C49.3262,19.2189087 48.3378,18.8657601 47.5007,18.8657601 L47.5007,18.8656603 Z M53.0261,24.7744883 C52.8265,24.7539321 52.7369,24.7460488 52.5961,24.7460488 C51.5101,24.7460488 50.9601,25.1169597 50.9601,25.8477049 C50.9601,26.3003418 51.2291,26.5883291 51.6491,26.5883291 C52.4294,26.5883291 52.9937,25.8476051 53.0261,24.7743885 L53.0261,24.7744883 Z M54.4197,28.0086072 L52.8327,28.0086072 L52.8694,27.2558089 C52.3824,27.8503439 51.7344,28.1347389 50.8581,28.1347389 C49.8191,28.1347389 49.1058,27.3250616 49.1058,26.1539533 C49.1058,24.3847176 50.3468,23.3559066 52.4718,23.3559066 C52.6898,23.3559066 52.9688,23.3762633 53.2545,23.4127856 C53.313,23.1712994 53.3275,23.0698153 53.3275,22.9397919 C53.3275,22.4611104 52.9955,22.2804947 52.1008,22.2804947 C51.1618,22.268121 50.3898,22.5016242 50.0716,22.6070998 C50.0899,22.4853588 50.3366,20.9755711 50.3366,20.9755711 C51.2921,20.6957665 51.9236,20.5901911 52.6286,20.5901911 C54.277,20.5901911 55.1493,21.3246285 55.147,22.7168662 C55.151,23.0900722 55.088,23.5506921 54.992,24.1578004 C54.8272,25.2063694 54.469,27.4587771 54.4196,28.0086072 L54.4197,28.0086072 Z M31.8794,26.2918599 C31.751,26.3367643 31.582,26.3607134 31.364,26.3607134 C30.9077,26.3607134 30.7062,26.1986582 30.7062,25.8231571 C30.7102,25.5921486 31.026,23.8755011 31.2462,22.4976327 L32.23,22.4976327 L32.491,20.7525456 L31.5108,20.7525456 L31.7328,19.657276 L29.8278,19.657276 C29.8278,19.657276 29.1066,23.928189 28.9988,24.6039512 C28.8764,25.3771062 28.7216,26.2191146 28.7336,26.5395329 C28.7336,27.572535 29.2676,28.1347389 30.2476,28.1347389 C30.692,28.1347389 31.101,28.0612951 31.6273,27.8992399 L31.8795,26.2918599 L31.8794,26.2918599 Z M37.7434,27.8423609 C37.0874,28.0414374 36.4554,28.1347389 35.7874,28.1347389 C33.6518,28.1302484 32.5397,27.0206093 32.5397,24.8961295 C32.5397,22.4164055 33.9557,20.5902909 35.8769,20.5902909 C37.4479,20.5902909 38.4525,21.6111189 38.4525,23.218 C38.4525,23.7496688 38.3813,24.2670679 38.2159,25.0038004 L34.4221,25.0038004 C34.2937,26.052569 34.9704,26.4909363 36.0789,26.4909363 C36.7611,26.4909363 37.3747,26.3528301 38.0591,26.0364034 L37.7434,27.8423609 L37.7434,27.8423609 Z M36.6714,23.5387176 C36.6838,23.3885372 36.873,22.2397813 35.7851,22.2397813 C35.1779,22.2397813 34.7421,22.7047919 34.5671,23.5388174 L36.6715,23.5388174 L36.6714,23.5387176 Z M23.9294,23.0455669 C23.9294,23.964811 24.3736,24.5957686 25.3884,25.0726539 C26.1646,25.4378769 26.2848,25.5431529 26.2848,25.8743482 C26.2848,26.3243907 25.9423,26.5273588 25.1824,26.5273588 C24.612,26.5273588 24.0781,26.4420403 23.4647,26.2434628 L23.2,27.9195966 C23.638,28.0129979 24.025,28.1018089 25.1967,28.1347389 C27.2197,28.1347389 28.1529,27.3653758 28.1529,25.7096985 C28.1529,24.7095265 27.7636,24.1292611 26.8019,23.6885987 C25.9994,23.3193843 25.9056,23.2381571 25.9056,22.8992781 C25.9056,22.5057155 26.2254,22.3067389 26.8466,22.3067389 C27.2216,22.3067389 27.7369,22.3476518 28.2218,22.4165053 L28.4951,20.7322887 C27.9979,20.6551529 27.2461,20.5902909 26.8079,20.5902909 C24.6626,20.5902909 23.9209,21.7043206 23.9292,23.0455669 L23.9294,23.0455669 Z M65.218,28.0084076 L63.403,28.0084076 L63.4945,27.3330446 C62.9667,27.8912569 62.4271,28.1347389 61.7262,28.1347389 C60.3322,28.1347389 59.4115,26.9392824 59.4115,25.1255414 C59.4115,22.7084841 60.8395,20.6754098 62.5305,20.6754098 C63.2725,20.6754098 63.8385,20.9757707 64.3625,21.663707 L64.7862,19.0847941 L66.6772,19.0847941 L65.218,28.0084076 Z M62.3883,26.3327728 C63.2806,26.3327728 63.9103,25.3239193 63.9103,23.8874756 C63.9103,22.9642399 63.5539,22.4650021 62.8933,22.4650021 C62.0233,22.4650021 61.4059,23.4735563 61.4059,24.900121 C61.4059,25.8516964 61.7362,26.3328726 62.3882,26.3328726 L62.3883,26.3327728 Z M56.4736,20.7524459 C56.2333,22.9966709 55.8074,25.2712314 55.4753,27.5197473 L55.3875,28.0085074 L57.3029,28.0085074 C57.9895,23.5711486 58.1563,22.7047919 59.2299,22.8141592 C59.4009,21.9030977 59.7189,21.1099851 59.9593,20.7082399 C59.1551,20.5415945 58.7063,20.9962272 58.122,21.8545011 C58.1687,21.4809958 58.2524,21.1217601 58.234,20.7524459 L56.4736,20.7524459 L56.4736,20.7524459 Z M39.716,20.7524459 C39.4752,22.9966709 39.0475,25.2712314 38.7154,27.5197473 L38.6276,28.0085074 L40.5448,28.0085074 C41.2316,23.5711486 41.3965,22.7047919 42.4702,22.8141592 C42.6434,21.9030977 42.9632,21.1099851 43.1999,20.7082399 C42.3989,20.5415945 41.9469,20.9962272 41.3617,21.8545011 C41.4087,21.4809958 41.4919,21.1217601 41.4759,20.7524459 L39.7159,20.7524459 L39.716,20.7524459 Z"></path>
                    </g>
                </g>
            </g>
        </g>
    </g>
</svg>