<?xml version="1.0" encoding="UTF-8"?>
<svg width="20px" height="23px" viewBox="0 0 20 23" version="1.1" xmlns="http://www.w3.org/2000/svg" xmlns:xlink="http://www.w3.org/1999/xlink">
    <!-- Generator: Sketch 41.2 (35397) - http://www.bohemiancoding.com/sketch -->
    <title>icon</title>
    <desc>Created with Sketch.</desc>
    <defs></defs>
    <g id="All-Artboards" stroke="none" stroke-width="1" fill="none" fill-rule="evenodd">
        <g id="S4_Account_Billing" transform="translate(-531.000000, -461.000000)">
            <g id="icon" transform="translate(531.000000, 461.000000)">
                <path d="M16.6206656,1.72861638 C15.5577057,0.518711739 13.63625,0 11.1782345,0 L4.04421128,0 C3.5413055,0 3.11396258,0.365254232 3.03522481,0.860503459 L0.0647788093,19.674267 C0.00572547921,20.0452283 0.293372345,20.381313 0.669916697,20.381313 L5.07415215,20.381313 L6.18029087,13.3748997 L6.14600184,13.5943059 C6.22473961,13.0990567 6.64890762,12.7338025 7.15117841,12.7338025 L9.24407923,12.7338025 C13.355588,12.7338025 16.5749469,11.0660618 17.5153553,6.24166216 C17.5432945,6.09898472 17.5674239,5.96011202 17.5883783,5.82440993 C17.4696366,5.76163186 17.4696366,5.76163186 17.5883783,5.82440993 C17.8684053,4.04125906 17.5864733,2.82754969 16.6206656,1.72861638" id="P" fill="#27346A"></path>
                <path d="M17.5701083,5.76616436 L17.5701083,5.76616436 C17.5485491,5.90194193 17.5250876,6.03961406 17.4971875,6.18170686 C16.5580944,10.9857066 13.3432383,12.6472451 9.23748016,12.6472451 L7.14687252,12.6472451 C6.64530423,12.6472451 6.2217295,13.0110026 6.14373595,13.5042225 L4.76965443,22.1800932 C4.71829282,22.5034332 4.96939401,22.7964602 5.29785466,22.7964602 L9.00540179,22.7964602 C9.44419478,22.7964602 9.81767609,22.4781723 9.88615823,22.0468417 L9.92230159,21.8586477 L10.6210731,17.4480872 L10.6660938,17.2043191 C10.7345759,16.7729885 11.1080572,16.4547006 11.5468502,16.4547006 L12.1016824,16.4547006 C15.6931903,16.4547006 18.5053968,15.0015649 19.3271825,10.7987756 C19.6702273,9.04250859 19.4926811,7.57611088 18.5852927,6.54609596 C18.3100959,6.23412332 17.9683193,5.97646171 17.5701083,5.76616436" id="shadow" fill="#2790C3"></path>
                <path d="M16.5872627,5.3758828 C16.4439575,5.33420225 16.2962136,5.29631083 16.1440311,5.26284009 C15.9918485,5.22936934 15.8345933,5.19968773 15.6735334,5.17379526 C15.1091898,5.08285587 14.4928505,5.03991227 13.8308565,5.03991227 L8.24639137,5.03991227 C8.10879299,5.03991227 7.97816964,5.07085692 7.86149636,5.12706252 C7.60342014,5.25020961 7.41255787,5.49271466 7.36563492,5.79016226 L6.17861111,13.2857154 L6.14437004,13.5042225 C6.22236359,13.0110026 6.64593833,12.6472451 7.14750661,12.6472451 L9.23811425,12.6472451 C13.3438724,12.6472451 16.5587285,10.9863381 17.4978216,6.18170686 C17.5257217,6.03961406 17.5491832,5.90194193 17.5707424,5.76616436 C17.3329572,5.6411227 17.075515,5.53313217 16.798416,5.44156125 C16.7292998,5.41882641 16.6589153,5.39672308 16.5872627,5.3758828" id="fill" fill="#1F264F"></path>
            </g>
        </g>
    </g>
</svg>