<?xml version="1.0" encoding="UTF-8"?>
<svg width="75px" height="47px" viewBox="0 0 75 47" version="1.1" xmlns="http://www.w3.org/2000/svg" xmlns:xlink="http://www.w3.org/1999/xlink">
    <!-- Generator: Sketch 41.2 (35397) - http://www.bohemiancoding.com/sketch -->
    <title>security-code</title>
    <desc>Created with Sketch.</desc>
    <defs></defs>
    <g id="Page-1" stroke="none" stroke-width="1" fill="none" fill-rule="evenodd">
        <g id="iPad-Pro-Portrait" transform="translate(-1135.000000, -360.000000)">
            <g id="mono" transform="translate(33.000000, 358.000000)">
                <g id="security-code" transform="translate(1102.000000, 2.000000)">
                    <g id="Group">
                        <g>
                            <rect id="Rectangle-path" fill="#393939" transform="translate(37.500000, 23.500000) scale(-1, 1) translate(-37.500000, -23.500000) " x="0" y="0" width="75" height="47" rx="4"></rect>
                            <g transform="translate(5.100000, 27.840764)" id="Shape" fill-opacity="0.196" fill="#FFFFFF">
                                <path d="M62.0846,3.1303397 L62.0846,2.75164544 L62.5963,2.75164544 L62.5963,1.62703822 L63.0161,1.62703822 L63.0564,2.75164544 L64.2007,2.75164544 L63.1427,0.249968153 L63.5394,0.0778343949 L64.7067,2.78607219 L64.7067,3.1303397 L63.062,3.1303397 L63.062,4.09428875 L62.5963,4.09428875 L62.5963,3.1303397 L62.0846,3.1303397 L62.0846,3.1303397 Z M60.126,0.0778343949 C60.5286,0.0778343949 60.9138,0.215541401 61.2473,0.536857749 L60.9886,0.829535032 C60.7241,0.582760085 60.4883,0.462316348 60.1491,0.462316348 C59.7294,0.462316348 59.3959,0.697515924 59.3959,1.13358811 C59.3959,1.60987473 59.7697,1.82791083 60.1492,1.82791083 L60.385,1.82791083 L60.4425,2.2066051 L60.109,2.2066051 C59.6433,2.2066051 59.2868,2.39021444 59.2868,2.95820594 C59.2868,3.45165605 59.6145,3.7672845 60.1723,3.7672845 C60.4943,3.7672845 60.8279,3.63526539 61.0521,3.37132696 L61.3741,3.63526539 C61.0751,4.00248408 60.6036,4.15745435 60.1609,4.15745435 C59.3444,4.15745435 58.7866,3.64105308 58.7866,2.95820594 C58.7866,2.3443121 59.2236,2.02299575 59.6894,1.988569 C59.2697,1.90823992 58.9132,1.54670913 58.9132,1.07052229 C58.9132,0.531169851 59.3847,0.0778343949 60.1265,0.0778343949 L60.126,0.0778343949 Z M56.6783,0.0778343949 C57.2131,0.0778343949 57.5696,0.267231423 57.8858,0.64592569 L57.5523,0.898388535 C57.2993,0.605711253 57.0866,0.47947983 56.6956,0.47947983 C56.2528,0.47947983 55.9883,0.754893843 55.9883,1.19675372 C55.9883,1.84507431 56.3103,2.2754586 57.8053,3.7041189 L57.8053,4.09428875 L55.4536,4.09428875 L55.3961,3.68695541 L57.2591,3.68695541 C55.9539,2.49918259 55.4881,1.90823992 55.4881,1.18527813 C55.4881,0.554121019 55.9309,0.0778343949 56.6784,0.0778343949 L56.6783,0.0778343949 Z M51.8046,3.7041189 L52.6326,3.7041189 L52.6326,0.146687898 L53.0523,0.146687898 L54.2253,0.869649682 L54.0183,1.2082293 L53.1098,0.663089172 L53.1098,3.7041189 L54.0873,3.7041189 L54.0873,4.09428875 L51.8046,4.09428875 L51.8046,3.7041189 L51.8046,3.7041189 Z M44.8458,3.1303397 L44.8458,2.75164544 L45.3575,2.75164544 L45.3575,1.62703822 L45.7773,1.62703822 L45.8175,2.75164544 L46.9618,2.75164544 L45.9038,0.249968153 L46.3005,0.0778343949 L47.4678,2.78607219 L47.4678,3.1303397 L45.8233,3.1303397 L45.8233,4.09428875 L45.3575,4.09428875 L45.3575,3.1303397 L44.8458,3.1303397 L44.8458,3.1303397 Z M42.8873,0.0778343949 C43.2898,0.0778343949 43.675,0.215541401 44.0085,0.536857749 L43.7498,0.829535032 C43.4853,0.582760085 43.2495,0.462316348 42.9103,0.462316348 C42.4905,0.462316348 42.157,0.697515924 42.157,1.13358811 C42.157,1.60987473 42.5308,1.82791083 42.9103,1.82791083 L43.146,1.82791083 L43.2035,2.2066051 L42.87,2.2066051 C42.4043,2.2066051 42.0478,2.39021444 42.0478,2.95820594 C42.0478,3.45165605 42.3755,3.7672845 42.9333,3.7672845 C43.2553,3.7672845 43.5888,3.63526539 43.813,3.37132696 L44.135,3.63526539 C43.836,4.00248408 43.3645,4.15745435 42.9218,4.15745435 C42.1053,4.15745435 41.5475,3.64105308 41.5475,2.95820594 C41.5475,2.3443121 41.9845,2.02299575 42.4503,1.988569 C42.0305,1.90823992 41.674,1.54670913 41.674,1.07052229 C41.674,0.531169851 42.1455,0.0778343949 42.8873,0.0778343949 L42.8873,0.0778343949 Z M39.4395,0.0778343949 C39.9743,0.0778343949 40.3308,0.267231423 40.647,0.64592569 L40.3135,0.898388535 C40.0605,0.605711253 39.8478,0.47947983 39.4568,0.47947983 C39.014,0.47947983 38.7495,0.754893843 38.7495,1.19675372 C38.7495,1.84507431 39.0715,2.2754586 40.5665,3.7041189 L40.5665,4.09428875 L38.2148,4.09428875 L38.1573,3.68695541 L40.0203,3.68695541 C38.715,2.49918259 38.2493,1.90823992 38.2493,1.18527813 C38.2493,0.554121019 38.692,0.0778343949 39.4395,0.0778343949 L39.4395,0.0778343949 Z M34.5658,3.7041189 L35.3938,3.7041189 L35.3938,0.146687898 L35.8135,0.146687898 L36.9865,0.869649682 L36.7795,1.2082293 L35.871,0.663089172 L35.871,3.7041189 L36.8485,3.7041189 L36.8485,4.09428875 L34.5658,4.09428875 L34.5658,3.7041189 L34.5658,3.7041189 Z M27.607,3.1303397 L27.607,2.75164544 L28.1188,2.75164544 L28.1188,1.62703822 L28.5385,1.62703822 L28.5788,2.75164544 L29.723,2.75164544 L28.665,0.249968153 L29.0618,0.0778343949 L30.229,2.78607219 L30.229,3.1303397 L28.5845,3.1303397 L28.5845,4.09428875 L28.1188,4.09428875 L28.1188,3.1303397 L27.607,3.1303397 L27.607,3.1303397 Z M25.6485,0.0778343949 C26.051,0.0778343949 26.4363,0.215541401 26.7698,0.536857749 L26.511,0.829535032 C26.2465,0.582760085 26.0108,0.462316348 25.6715,0.462316348 C25.2518,0.462316348 24.9183,0.697515924 24.9183,1.13358811 C24.9183,1.60987473 25.292,1.82791083 25.6715,1.82791083 L25.9073,1.82791083 L25.9648,2.2066051 L25.6313,2.2066051 C25.1655,2.2066051 24.809,2.39021444 24.809,2.95820594 C24.809,3.45165605 25.1368,3.7672845 25.6945,3.7672845 C26.0165,3.7672845 26.35,3.63526539 26.5743,3.37132696 L26.8963,3.63526539 C26.5973,4.00248408 26.1258,4.15745435 25.683,4.15745435 C24.8665,4.15745435 24.3088,3.64105308 24.3088,2.95820594 C24.3088,2.3443121 24.7458,2.02299575 25.2115,1.988569 C24.7918,1.90823992 24.4353,1.54670913 24.4353,1.07052229 C24.4353,0.531169851 24.9068,0.0778343949 25.6485,0.0778343949 L25.6485,0.0778343949 Z M22.2008,0.0778343949 C22.7355,0.0778343949 23.092,0.267231423 23.4083,0.64592569 L23.0748,0.898388535 C22.8218,0.605711253 22.609,0.47947983 22.218,0.47947983 C21.7753,0.47947983 21.5108,0.754893843 21.5108,1.19675372 C21.5108,1.84507431 21.8328,2.2754586 23.3278,3.7041189 L23.3278,4.09428875 L20.976,4.09428875 L20.9185,3.68695541 L22.7815,3.68695541 C21.4763,2.49918259 21.0105,1.90823992 21.0105,1.18527813 C21.0105,0.554121019 21.4533,0.0778343949 22.2008,0.0778343949 L22.2008,0.0778343949 Z M17.327,3.7041189 L18.155,3.7041189 L18.155,0.146687898 L18.5748,0.146687898 L19.7478,0.869649682 L19.5408,1.2082293 L18.6323,0.663089172 L18.6323,3.7041189 L19.6098,3.7041189 L19.6098,4.09428875 L17.327,4.09428875 L17.327,3.7041189 L17.327,3.7041189 Z M10.3683,3.1303397 L10.3683,2.75164544 L10.88,2.75164544 L10.88,1.62703822 L11.2998,1.62703822 L11.34,2.75164544 L12.4843,2.75164544 L11.4263,0.249968153 L11.823,0.0778343949 L12.9903,2.78607219 L12.9903,3.1303397 L11.3458,3.1303397 L11.3458,4.09428875 L10.88,4.09428875 L10.88,3.1303397 L10.3683,3.1303397 L10.3683,3.1303397 Z M8.4098,0.0778343949 C8.8123,0.0778343949 9.1975,0.215541401 9.531,0.536857749 L9.2723,0.829535032 C9.0078,0.582760085 8.772,0.462316348 8.4328,0.462316348 C8.013,0.462316348 7.6795,0.697515924 7.6795,1.13358811 C7.6795,1.60987473 8.0533,1.82791083 8.4328,1.82791083 L8.6685,1.82791083 L8.726,2.2066051 L8.3925,2.2066051 C7.9268,2.2066051 7.5703,2.39021444 7.5703,2.95820594 C7.5703,3.45165605 7.898,3.7672845 8.4558,3.7672845 C8.7778,3.7672845 9.1113,3.63526539 9.3355,3.37132696 L9.6575,3.63526539 C9.3585,4.00248408 8.887,4.15745435 8.4443,4.15745435 C7.6278,4.15745435 7.07,3.64105308 7.07,2.95820594 C7.07,2.3443121 7.507,2.02299575 7.9728,1.988569 C7.553,1.90823992 7.1965,1.54670913 7.1965,1.07052229 C7.1965,0.531169851 7.668,0.0778343949 8.4098,0.0778343949 L8.4098,0.0778343949 Z M4.962,0.0778343949 C5.4968,0.0778343949 5.8533,0.267231423 6.1695,0.64592569 L5.836,0.898388535 C5.583,0.605711253 5.3703,0.47947983 4.9793,0.47947983 C4.5365,0.47947983 4.272,0.754893843 4.272,1.19675372 C4.272,1.84507431 4.594,2.2754586 6.089,3.7041189 L6.089,4.09428875 L3.7373,4.09428875 L3.6798,3.68695541 L5.5428,3.68695541 C4.2375,2.49918259 3.7718,1.90823992 3.7718,1.18527813 C3.7718,0.554121019 4.2145,0.0778343949 4.962,0.0778343949 L4.962,0.0778343949 Z M0.0882,3.7041189 L0.9162,3.7041189 L0.9162,0.146687898 L1.336,0.146687898 L2.509,0.869649682 L2.302,1.2082293 L1.3935,0.663089172 L1.3935,3.7041189 L2.371,3.7041189 L2.371,4.09428875 L0.0882,4.09428875 L0.0882,3.7041189 L0.0882,3.7041189 Z"></path>
                            </g>
                            <g transform="translate(54.800000, 38.218684)" id="Shape" fill-opacity="0.196" fill="#FFFFFF">
                                <path d="M15.0526,0.89170276 L15.0526,0.622774947 C14.7987333,0.598160651 14.6216667,0.5572477 14.5214,0.500036093 C14.4211333,0.441627035 14.3462667,0.30458528 14.2968,0.088910828 L14.0194,0.088910828 L14.0194,2.86799788 L14.3944,2.86799788 L14.3944,0.891802548 L15.0526,0.891802548 L15.0526,0.89170276 Z M12.826,0.89170276 L12.826,0.622774947 C12.5721333,0.598160651 12.3950667,0.5572477 12.2948,0.500036093 C12.1945333,0.441627035 12.1196667,0.30458528 12.0702,0.088910828 L11.7928,0.088910828 L11.7928,2.86799788 L12.1678,2.86799788 L12.1678,0.891802548 L12.8261,0.891802548 L12.826,0.89170276 Z M9.748,2.86789809 C9.73493333,2.62760934 9.68543333,2.41845435 9.5995,2.24043312 C9.51216667,2.06241189 9.3429,1.90065605 9.0917,1.75516561 L8.7167,1.53862633 C8.5487,1.44123355 8.43086667,1.35807714 8.3632,1.28915711 C8.2564,1.18138641 8.203,1.05798231 8.203,0.918944798 C8.203,0.756623496 8.25183333,0.627997169 8.3495,0.533065817 C8.44716667,0.436870488 8.57736667,0.388772824 8.7401,0.388772824 C8.98103333,0.388772824 9.1477,0.479745931 9.2401,0.661692144 C9.28963333,0.759151451 9.31696667,0.894263977 9.3221,1.06702972 L9.6797,1.06702972 C9.6757,0.824079972 9.63076667,0.62593489 9.5449,0.47259448 C9.39256667,0.202369427 9.1237,0.0672569002 8.7383,0.0672569002 C8.41796667,0.0672569002 8.18423333,0.153639774 8.0371,0.32640552 C7.88863333,0.499237792 7.8144,0.691561925 7.8144,0.903377919 C7.8144,1.12690234 7.8932,1.31789597 8.0508,1.47635881 C8.14193333,1.56862916 8.30533333,1.68039137 8.541,1.81164544 L8.8085,1.95973036 C8.9361,2.02984784 9.03636667,2.09670559 9.1093,2.16030361 C9.2395,2.27339632 9.3215,2.39879618 9.3553,2.53650318 L7.828,2.53650318 L7.828,2.8677983 L9.748,2.8677983 L9.748,2.86789809 Z M6.6073,2.94403609 C6.93796667,2.94403609 7.1782,2.85372824 7.328,2.67311253 C7.47646667,2.49123284 7.5507,2.27036943 7.5507,2.01052229 L7.1835,2.01052229 C7.16783333,2.19107148 7.13396667,2.32229229 7.0819,2.40418471 C6.9907,2.55100566 6.82596667,2.62441614 6.5877,2.62441614 C6.40276667,2.62441614 6.25433333,2.57502123 6.1424,2.47623142 C6.0304,2.37750814 5.9744,2.25017905 5.9744,2.09424416 C5.9744,1.90198655 6.03363333,1.76750602 6.1521,1.69080255 C6.2693,1.61416561 6.43273333,1.57584713 6.6424,1.57584713 C6.66573333,1.57584713 6.6898,1.57651238 6.7146,1.57784289 C6.73806667,1.57784289 6.76216667,1.57850814 6.7869,1.57983864 L6.7869,1.26989809 C6.75043333,1.27375655 6.71983333,1.27635103 6.6951,1.27768153 C6.67043333,1.27901203 6.64376667,1.27967728 6.6151,1.27967728 C6.4835,1.27967728 6.3754,1.25885492 6.2908,1.21721019 C6.14226667,1.14443171 6.068,1.01450814 6.068,0.82743949 C6.068,0.688401982 6.1175,0.581196745 6.2165,0.505823779 C6.31543333,0.430384289 6.43066667,0.392664544 6.5622,0.392664544 C6.79653333,0.392664544 6.95863333,0.470631989 7.0485,0.626566879 C7.09796667,0.712384289 7.12596667,0.834524416 7.1325,0.992987261 L7.4801,0.992987261 C7.4801,0.785096249 7.43843333,0.60840552 7.3551,0.462915074 C7.2119,0.203001415 6.95996667,0.073044586 6.5993,0.073044586 C6.31416667,0.073044586 6.0935,0.13670913 5.9373,0.264038217 C5.78096667,0.390103326 5.7028,0.573313517 5.7028,0.81366879 C5.7028,0.985170559 5.74903333,1.12420807 5.8415,1.23078132 C5.89883333,1.29704034 5.97303333,1.34899646 6.0641,1.38664968 C5.91696667,1.42696391 5.8024,1.50493135 5.7204,1.62055202 C5.63706667,1.73497523 5.5954,1.87534324 5.5954,2.04165605 C5.5954,2.30802265 5.6833,2.52499434 5.8591,2.69257113 C6.03483333,2.86021444 6.28416667,2.94403609 6.6071,2.94403609 L6.6073,2.94403609 Z M3.8163,2.15661146 C3.79283333,2.35671904 3.69973333,2.4950913 3.537,2.57172824 C3.45366667,2.61071196 3.35733333,2.63020382 3.248,2.63020382 C3.0396,2.63020382 2.88526667,2.5639448 2.785,2.43142675 C2.68473333,2.2989087 2.6346,2.15208776 2.6346,1.99096391 C2.6346,1.79604529 2.6945,1.64536589 2.8143,1.53892569 C2.93283333,1.43228592 3.07543333,1.37896603 3.2421,1.37896603 C3.36323333,1.37896603 3.46743333,1.40231635 3.5547,1.44901699 C3.6407,1.49585067 3.71426667,1.56084572 3.7754,1.64400212 L4.0801,1.62643949 L3.8671,0.123636943 L2.4141,0.123636943 L2.4141,0.462915074 L3.6035,0.462915074 L3.7225,1.23856476 C3.6575,1.18920311 3.5957,1.15218188 3.5371,1.12750106 C3.4329,1.08459236 3.31246667,1.063138 3.1758,1.063138 C2.91926667,1.063138 2.7018,1.14562916 2.5234,1.31061146 C2.345,1.47559377 2.2558,1.68481529 2.2558,1.93827601 C2.2558,2.20204812 2.3378,2.43461996 2.5018,2.63599151 C2.66466667,2.83736306 2.92513333,2.93804883 3.2832,2.93804883 C3.5112,2.93804883 3.71303333,2.87438429 3.8887,2.7470552 C4.06323333,2.61846214 4.1609,2.4216143 4.1817,2.15651168 L3.8165,2.15651168 L3.8163,2.15661146 Z M0.996,1.2463482 C0.841,1.2463482 0.7199,1.20350602 0.6327,1.11782166 C0.545366667,1.03080679 0.5017,0.927526539 0.5017,0.807980892 C0.5017,0.704002123 0.543366667,0.60853857 0.6267,0.521590234 C0.710033333,0.434442321 0.837033333,0.390868365 1.0077,0.390868365 C1.17703333,0.390868365 1.29943333,0.434442321 1.3749,0.521590234 C1.45036667,0.60853857 1.4881,0.710488323 1.4881,0.82743949 C1.4881,0.95869356 1.43926667,1.06134183 1.3416,1.13538429 C1.24393333,1.20942675 1.1287,1.24644798 0.9959,1.24644798 L0.996,1.2463482 Z M0.9745,2.62840764 C0.8117,2.62840764 0.676933333,2.58483369 0.5702,2.49768577 C0.4622,2.40934041 0.4082,2.2781196 0.4082,2.10402335 C0.4082,1.92340764 0.463533333,1.78636589 0.5742,1.69289809 C0.684866667,1.59929724 0.826766667,1.55249682 0.9999,1.55249682 C1.16776667,1.55249682 1.3051,1.60056122 1.4119,1.69669002 C1.51736667,1.79155485 1.5701,1.92344091 1.5701,2.0923482 C1.5701,2.23783864 1.52193333,2.36390375 1.4256,2.47054352 C1.32793333,2.57565322 1.17753333,2.62820807 0.9744,2.62820807 L0.9745,2.62840764 Z M1.4745,1.38106157 C1.57216667,1.33941684 1.64833333,1.29065393 1.703,1.23477282 C1.80586667,1.13079406 1.8573,0.995648266 1.8573,0.829335456 C1.8573,0.62151097 1.78176667,0.442891012 1.6307,0.293475584 C1.4797,0.144060156 1.26553333,0.0693524416 0.9882,0.0693524416 C0.719933333,0.0693524416 0.5096,0.140201699 0.3572,0.281900212 C0.204933333,0.422268224 0.1288,0.58658528 0.1288,0.77485138 C0.1288,0.949014154 0.173066667,1.09004742 0.2616,1.19795117 C0.311066667,1.25895471 0.3879,1.31869427 0.4921,1.37716985 C0.376233333,1.43038995 0.2851,1.49146001 0.2187,1.56038004 C0.0950333333,1.69030361 0.0332,1.8592109 0.0332,2.06710191 C0.0332,2.31257962 0.115866667,2.52113588 0.2812,2.6927707 C0.446666667,2.86294197 0.680433333,2.9480276 0.9825,2.9480276 C1.25463333,2.9480276 1.4851,2.87461713 1.6739,2.72779618 C1.86143333,2.57964473 1.9552,2.36526752 1.9552,2.08466454 C1.9552,1.91968224 1.91486667,1.777385 1.8342,1.65777282 C1.7534,1.5369632 1.63356667,1.44472611 1.4747,1.38106157 L1.4745,1.38106157 Z"></path>
                            </g>
                            <g transform="translate(32.700000, 38.318471)" id="Shape" fill-opacity="0.196" fill="#FFFFFF">
                                <path d="M18.4297,0.895095541 L18.4297,0.625968153 C18.1757,0.601353857 17.9986,0.560440906 17.8984,0.503229299 C17.7981333,0.44468719 17.7232667,0.307645435 17.6738,0.092104034 L17.3965,0.092104034 L17.3965,2.87119108 L17.7715,2.87119108 L17.7715,0.895095541 L18.4297,0.895095541 Z M15.547,2.9472293 C15.8776667,2.9472293 16.1178667,2.85692144 16.2676,2.67630573 C16.416,2.49442604 16.4902,2.27356263 16.4902,2.0137155 L16.123,2.0137155 C16.1074,2.19433121 16.0735667,2.32555202 16.0215,2.40737792 C15.9303,2.55419887 15.7655667,2.62760934 15.5273,2.62760934 C15.3424333,2.62760934 15.194,2.5782477 15.082,2.47952442 C14.97,2.38073461 14.914,2.25340552 14.914,2.09753715 C14.914,1.90527955 14.9732667,1.77079901 15.0918,1.69409554 C15.209,1.61739207 15.3724,1.57904034 15.582,1.57904034 C15.6054667,1.57904034 15.6295667,1.57970559 15.6543,1.58103609 C15.6776333,1.58103609 15.7017,1.58170134 15.7265,1.58303185 L15.7265,1.2730913 C15.6901,1.27694975 15.6595,1.27954423 15.6347,1.28087473 C15.6100333,1.28220524 15.5833667,1.28287049 15.5547,1.28287049 C15.4231667,1.28287049 15.3150667,1.26204812 15.2304,1.2204034 C15.082,1.14769144 15.0078,1.01776787 15.0078,0.830632696 C15.0078,0.691595188 15.0572667,0.584423213 15.1562,0.509116773 C15.2552,0.433743808 15.3704333,0.396057325 15.5019,0.396057325 C15.7362333,0.396057325 15.8983333,0.473991507 15.9882,0.629859873 C16.0376667,0.715677282 16.0656667,0.837750885 16.0722,0.996080679 L16.4198,0.996080679 C16.4198,0.788256192 16.3781333,0.611631989 16.2948,0.466208068 C16.1514667,0.206294409 15.8994667,0.0763375796 15.5388,0.0763375796 C15.2536667,0.0763375796 15.033,0.140002123 14.8768,0.26733121 C14.7205333,0.393329795 14.6424,0.576539986 14.6424,0.816961783 C14.6424,0.988463553 14.6886,1.12750106 14.781,1.23407431 C14.8383333,1.30026681 14.9125667,1.35222293 15.0037,1.38994268 C14.8565,1.43019038 14.7418333,1.50812456 14.6597,1.62374522 C14.5763667,1.73816844 14.5347,1.87853645 14.5347,2.04484926 C14.5347,2.31114933 14.6226333,2.52812102 14.7985,2.69576433 C14.9743,2.86340764 15.2236333,2.9472293 15.5465,2.9472293 L15.547,2.9472293 Z M14.2344,2.87119108 C14.2213333,2.63083581 14.1718333,2.4216143 14.0859,2.24352654 C13.9985667,2.06563836 13.8292333,1.90391578 13.5779,1.75835881 L13.2029,1.5421189 C13.0349,1.44465959 12.9171,1.36150318 12.8495,1.29264968 C12.7427,1.18487898 12.6893,1.06147488 12.6893,0.922437367 C12.6893,0.759983015 12.7381333,0.631323425 12.8358,0.536458599 C12.9334,0.440329795 13.0635667,0.392265393 13.2263,0.392265393 C13.4672333,0.392265393 13.6339,0.483205237 13.7263,0.665084926 C13.7758333,0.762544232 13.8031667,0.897690021 13.8083,1.07052229 L14.1658,1.07052229 C14.1618,0.827506016 14.1168667,0.629360934 14.031,0.476087049 C13.8786667,0.205795471 13.6098,0.0706496815 13.2244,0.0706496815 C12.9040667,0.0706496815 12.6703333,0.157065817 12.5232,0.329898089 C12.3748,0.502663836 12.3006,0.694921444 12.3006,0.906670913 C12.3006,1.13019533 12.3793667,1.32122222 12.5369,1.47975159 C12.6281,1.57202194 12.7915333,1.68378415 13.0272,1.81503822 L13.2948,1.96312314 C13.4223333,2.03330715 13.5225667,2.10023142 13.5955,2.16389597 C13.7257,2.27698868 13.8077,2.40238854 13.8415,2.54009554 L12.3142,2.54009554 L12.3142,2.87139066 L14.2342,2.87139066 L14.2344,2.87119108 Z M11.75,0.895095541 L11.75,0.625968153 C11.496,0.601353857 11.3189,0.560440906 11.2187,0.503229299 C11.1184333,0.44468719 11.0435667,0.307645435 10.9941,0.092104034 L10.7169,0.092104034 L10.7169,2.87119108 L11.0919,2.87119108 L11.0919,0.895095541 L11.7501,0.895095541 L11.75,0.895095541 Z M7.7578,2.9472293 C8.08846667,2.9472293 8.3287,2.85692144 8.4785,2.67630573 C8.6269,2.49442604 8.7011,2.27356263 8.7011,2.0137155 L8.3341,2.0137155 C8.31843333,2.19433121 8.28456667,2.32555202 8.2325,2.40737792 C8.14136667,2.55419887 7.9767,2.62760934 7.7385,2.62760934 C7.5535,2.62760934 7.405,2.5782477 7.293,2.47952442 C7.181,2.38073461 7.125,2.25340552 7.125,2.09753715 C7.125,1.90527955 7.18423333,1.77079901 7.3027,1.69409554 C7.4199,1.61739207 7.5833,1.57904034 7.7929,1.57904034 C7.81623333,1.57904034 7.8403,1.57970559 7.8651,1.58103609 C7.88856667,1.58103609 7.91266667,1.58170134 7.9374,1.58303185 L7.9374,1.2730913 C7.90093333,1.27694975 7.87033333,1.27954423 7.8456,1.28087473 C7.82093333,1.28220524 7.79426667,1.28287049 7.7656,1.28287049 C7.634,1.28287049 7.5259,1.26204812 7.4413,1.2204034 C7.29283333,1.14769144 7.2186,1.01776787 7.2186,0.830632696 C7.2186,0.691595188 7.2681,0.584423213 7.3671,0.509116773 C7.46603333,0.433743808 7.58126667,0.396057325 7.7128,0.396057325 C7.94706667,0.396057325 8.10913333,0.473991507 8.199,0.629859873 C8.24846667,0.715677282 8.27646667,0.837750885 8.283,0.996080679 L8.6306,0.996080679 C8.6306,0.788256192 8.58893333,0.611631989 8.5056,0.466208068 C8.3624,0.206294409 8.11046667,0.0763375796 7.7498,0.0763375796 C7.4646,0.0763375796 7.24393333,0.140002123 7.0878,0.26733121 C6.93146667,0.393329795 6.8533,0.576539986 6.8533,0.816961783 C6.8533,0.988463553 6.89953333,1.12750106 6.992,1.23407431 C7.04933333,1.30026681 7.12353333,1.35222293 7.2146,1.38994268 C7.06746667,1.43019038 6.9529,1.50812456 6.8709,1.62374522 C6.78756667,1.73816844 6.7459,1.87853645 6.7459,2.04484926 C6.7459,2.31114933 6.8338,2.52812102 7.0096,2.69576433 C7.1854,2.86340764 7.43473333,2.9472293 7.7576,2.9472293 L7.7578,2.9472293 Z M5.248,1.88299363 L5.248,0.618184713 L6.1445,1.88309342 L5.248,1.88309342 L5.248,1.88299363 Z M5.2422,2.87119108 L5.2422,2.18914225 L6.4687,2.18914225 L6.4687,1.84607219 L5.1875,0.0725456476 L4.8905,0.0725456476 L4.8905,1.88309342 L4.4785,1.88309342 L4.4785,2.18924204 L4.8905,2.18924204 L4.8905,2.87129087 L5.2422,2.87129087 L5.2422,2.87119108 Z M3.8496,2.15990446 C3.82613333,2.35994551 3.73303333,2.49831776 3.5703,2.57502123 C3.48696667,2.61400495 3.39063333,2.63349682 3.2813,2.63349682 C3.0729,2.63349682 2.91856667,2.56723779 2.8183,2.43471975 C2.71803333,2.3022017 2.6679,2.15538075 2.6679,1.9942569 C2.6679,1.79933829 2.72776667,1.64865888 2.8475,1.54221868 C2.96603333,1.43564544 3.10863333,1.38235881 3.2753,1.38235881 C3.39636667,1.38235881 3.50053333,1.40574239 3.5878,1.45250955 C3.67366667,1.49927672 3.7472,1.5642385 3.8084,1.6473949 L4.1131,1.62983227 L3.9001,0.127029724 L2.4471,0.127029724 L2.4471,0.466307856 L3.6365,0.466307856 L3.7555,1.24195754 C3.6905,1.1925959 3.6287,1.15557466 3.5701,1.13089384 C3.4659,1.08805166 3.34546667,1.06663057 3.2088,1.06663057 C2.95226667,1.06663057 2.7348,1.14912173 2.5564,1.31410403 C2.378,1.47908634 2.2888,1.68830786 2.2888,1.94176858 C2.2888,2.20547417 2.3708,2.43797948 2.5348,2.6392845 C2.69766667,2.84085563 2.95813333,2.94164119 3.3162,2.94164119 C3.54406667,2.94164119 3.7459,2.87794338 3.9217,2.75054777 C4.0961,2.62188818 4.1937,2.42504034 4.2145,2.16000425 L3.8493,2.16000425 L3.8496,2.15990446 Z M1.623,2.15990446 C1.59966667,2.35994551 1.50656667,2.49831776 1.3437,2.57502123 C1.26036667,2.61400495 1.16403333,2.63349682 1.0547,2.63349682 C0.846366667,2.63349682 0.692033333,2.56723779 0.5917,2.43471975 C0.4915,2.3022017 0.4414,2.15538075 0.4414,1.9942569 C0.4414,1.79933829 0.5013,1.64865888 0.6211,1.54221868 C0.739633333,1.43564544 0.882233333,1.38235881 1.0489,1.38235881 C1.16996667,1.38235881 1.27413333,1.40574239 1.3614,1.45250955 C1.4474,1.49927672 1.52096667,1.5642385 1.5821,1.6473949 L1.8868,1.62983227 L1.6738,0.127029724 L0.2208,0.127029724 L0.2208,0.466307856 L1.41,0.466307856 L1.5293,1.24195754 C1.46416667,1.1925959 1.4023,1.15557466 1.3437,1.13089384 C1.23956667,1.08805166 1.11913333,1.06663057 0.9824,1.06663057 C0.725866667,1.06663057 0.508433333,1.14912173 0.3301,1.31410403 C0.151766667,1.47908634 0.0626,1.68830786 0.0626,1.94176858 C0.0626,2.20547417 0.1446,2.43797948 0.3086,2.6392845 C0.4714,2.84085563 0.731833333,2.94164119 1.0899,2.94164119 C1.31776667,2.94164119 1.5196,2.87794338 1.6954,2.75054777 C1.86986667,2.62188818 1.96753333,2.42504034 1.9884,2.16000425 L1.6231,2.16000425 L1.623,2.15990446 Z"></path>
                            </g>
                            <polygon id="Shape" fill="#000000" points="0 15.3673036 75 15.3673036 75 5.18895966 0 5.18895966"></polygon>
                            <polygon id="Shape" fill="#FFFFFF" points="1.6 17.6624204 57.8 17.6624204 57.8 25.6454352 1.6 25.6454352"></polygon>
                            <g transform="translate(47.700000, 19.857749)" id="Shape" fill="#000000">
                                <path d="M2.185,3.15329087 L1.465,3.15329087 L1.465,0.0598726115 L1.1,0.0598726115 L0.08,0.688535032 L0.26,0.982908705 L1.05,0.508917197 L1.05,3.15329087 L0.2,3.15329087 L0.2,3.492569 L2.185,3.492569 L2.185,3.15329087 L2.185,3.15329087 Z M3.943,-1.20686664e-17 C3.478,-1.20686664e-17 3.168,0.164649682 2.893,0.493949045 L3.183,0.713481953 C3.403,0.459023355 3.588,0.3492569 3.928,0.3492569 C4.313,0.3492569 4.543,0.588747346 4.543,0.972929936 C4.543,1.53673036 4.263,1.91093418 2.963,3.15329087 L2.963,3.492569 L5.008,3.492569 L5.058,3.13832272 L3.438,3.13832272 C4.573,2.10552017 4.978,1.59161359 4.978,0.962951168 C4.978,0.414118896 4.593,-5.68434189e-15 3.943,-5.68434189e-15 L3.943,-1.20686664e-17 Z M6.941,8.8817842e-17 C6.591,8.8817842e-17 6.256,0.119745223 5.966,0.399150743 L6.191,0.653609342 C6.421,0.439065817 6.626,0.334288747 6.921,0.334288747 C7.286,0.334288747 7.576,0.538853503 7.576,0.918046709 C7.576,1.33216561 7.251,1.52176221 6.921,1.52176221 L6.716,1.52176221 L6.666,1.85106157 L6.956,1.85106157 C7.361,1.85106157 7.671,2.01072187 7.671,2.50467091 C7.671,2.93375796 7.386,3.2081741 6.901,3.2081741 C6.621,3.2081741 6.331,3.09341826 6.136,2.86390658 L5.856,3.09341826 C6.116,3.41273885 6.526,3.54745223 6.911,3.54745223 C7.621,3.54745223 8.106,3.09840764 8.106,2.50467091 C8.106,1.97080679 7.726,1.69140127 7.321,1.66146497 C7.686,1.59161359 7.996,1.27728238 7.996,0.863163482 C7.996,0.394161359 7.586,1.14333643e-14 6.941,1.14333643e-14 L6.941,8.8817842e-17 Z"></path>
                            </g>
                            <rect id="Rectangle-path" fill-opacity="0.5" fill="#FFFFFF" x="1.6" y="30.9341826" width="13.3" height="9.47983015" rx="2.5"></rect>
                        </g>
                    </g>
                </g>
            </g>
        </g>
    </g>
</svg>