<?xml version="1.0" encoding="UTF-8"?>
<svg width="75px" height="47px" viewBox="0 0 75 47" version="1.1" xmlns="http://www.w3.org/2000/svg" xmlns:xlink="http://www.w3.org/1999/xlink">
    <!-- Generator: Sketch 41.2 (35397) - http://www.bohemiancoding.com/sketch -->
    <title>unionpay</title>
    <desc>Created with Sketch.</desc>
    <defs></defs>
    <g id="Page-1" stroke="none" stroke-width="1" fill="none" fill-rule="evenodd">
        <g id="iPad-Pro-Portrait" transform="translate(-1036.000000, -360.000000)" fill="#393939">
            <g id="mono" transform="translate(33.000000, 358.000000)">
                <g id="unionpay" transform="translate(1003.000000, 2.000000)">
                    <path d="M0,3.99200637 C0,1.78719745 1.7914,0 3.9992,0 L71.0008,0 C73.2095,0 75,1.7867983 75,3.99200637 L75,43.0079936 C75,45.2128025 73.2086,47 71.0008,47 L3.9992,47 C1.7905,47 0,45.2132017 0,43.0079936 L0,3.99200637 Z M49.618,33.7209533 L49.2086,33.7209533 L49.0948,34.0859766 L47.439,34.0859766 L47.553,33.7209533 L44.2,33.7209533 L44.531,32.6157049 L44.8726,32.6157049 L46.6319,26.734518 L46.9836,25.5456476 L48.6704,25.5456476 L48.4944,26.139983 C48.4944,26.139983 48.9394,25.8166709 49.3741,25.7019151 C49.7174,25.6091125 51.3817,25.5642081 52.0046,25.5504374 L52,25.5456476 L53.8006,25.5456476 L53.8213,26.2234055 C53.811,26.3381614 53.9041,26.3902505 54.1213,26.3902505 L54.4836,26.3902505 L54.1526,27.5060764 L53.1796,27.5060764 C52.3416,27.5686433 52.0206,27.2037197 52.0414,26.7969851 L52.0274,26.2393715 L51.8784,26.7239406 L51.299,26.7239406 L51.3093,26.7344183 L49.5708,32.5218047 L50.0365,32.5218047 L49.885,33.0233376 L50.3072,33.0233376 C50.4417,33.0233376 50.5659,32.9712484 50.659,32.9190594 C50.7522,32.877448 50.835,32.8357367 50.9177,32.7002251 L52.2217,30.8544522 L50.5037,30.8544522 L50.7935,29.8638599 L52.7597,29.8638599 L53.0391,28.9565902 L51.1041,28.9565902 L51.4351,27.8409639 L56.8164,27.8409639 L56.4854,28.9565902 L54.6744,28.9565902 L54.3949,29.8639597 L56.2059,29.8639597 L55.9057,30.854552 L53.9499,30.854552 L53.5981,31.2716645 L54.3949,31.2716645 L54.5915,32.5230021 C54.6122,32.6481359 54.6122,32.7315584 54.6535,32.7837473 C54.695,32.8254586 54.933,32.8463142 55.0675,32.8463142 L55.3055,32.8463142 L54.933,34.0663185 L54.3223,34.0663185 C54.2293,34.0663185 54.0843,34.0559406 53.8877,34.0559406 C53.7014,34.0349851 53.5773,33.9308068 53.4531,33.8683397 C53.3393,33.816051 53.1738,33.6805393 53.1324,33.4406497 L52.9461,32.1893121 L52.0561,33.4196943 C51.7767,33.805673 51.3939,34.1080297 50.7419,34.1080297 L49.5,34.1080297 L49.618,33.7211529 L49.618,33.7209533 Z M46.5905,32.5322824 L47.9358,32.5322824 L48.3188,31.2287558 L46.9838,31.2287558 L46.5905,32.5322824 L46.5905,32.5322824 Z M47.6667,28.9451146 L47.201,30.488431 C47.201,30.488431 47.708,30.2276858 47.9875,30.1441635 C48.2669,30.0816964 48.6808,30.0296072 48.6808,30.0296072 L49.0016,28.9554926 L47.6564,28.9554926 L47.6667,28.9452144 L47.6667,28.9451146 Z M48.3239,26.7344183 L47.8943,28.037845 C47.8943,28.037845 48.3738,27.8359745 48.6435,27.7717113 C48.9132,27.707448 49.3128,27.689087 49.3128,27.689087 L49.6224,26.7435987 L48.334,26.7435987 L48.324,26.7344183 L48.3239,26.7344183 Z M33.4313,28.1401274 L37.9743,28.1401274 L37.643,29.2349979 L35.8322,29.2349979 L35.5528,30.1630234 L37.4155,30.1630234 L37.074,31.289327 L35.2216,31.289327 L34.7663,32.8011104 C34.7146,32.9680552 35.2113,32.9889108 35.3873,32.9889108 L36.3186,32.8637771 L35.946,34.1151146 L33.8556,34.1151146 C33.6901,34.1151146 33.5659,34.0941592 33.3796,34.0525478 C33.2036,34.0109363 33.1209,33.9275138 33.0486,33.8128577 C32.976,33.687724 32.8518,33.5938238 32.9346,33.3227006 L33.5348,31.3205605 L32.5,31.3205605 L32.8415,30.1735011 L33.8763,30.1735011 L34.1557,29.2454756 L33.121,29.2454756 L33.452,28.1505053 L33.4314,28.1401274 L33.4313,28.1401274 Z M36.57,26.1608386 L38.4328,26.1608386 L38.0913,27.2974204 L35.5456,27.2974204 L35.2662,27.53731 C35.142,27.6520658 35.111,27.610155 34.9557,27.6936773 C34.8109,27.7665223 34.5107,27.9126115 34.1175,27.9126115 L33.3,27.9126115 L33.631,26.8179406 L33.8795,26.8179406 C34.0865,26.8179406 34.2315,26.7969851 34.3038,26.7552739 C34.3866,26.7030849 34.4798,26.5884289 34.5728,26.4007282 L35.0385,25.5455478 L36.8909,25.5455478 L36.5699,26.1712166 L36.5699,26.1607389 L36.57,26.1608386 Z M40.081,28.037845 C40.081,28.037845 40.588,27.5686433 41.4572,27.4226539 C41.6538,27.3809427 42.8956,27.4016985 42.8956,27.4016985 L43.0819,26.7760297 L40.4637,26.7760297 L40.0807,28.0483227 L40.0807,28.037845 L40.081,28.037845 Z M42.5438,28.5175244 L39.9463,28.5175244 L39.7911,29.0493928 L42.0471,29.0493928 C42.3161,29.0180594 42.3681,29.0597707 42.3887,29.0389151 L42.5542,28.5175244 L42.544,28.5175244 L42.5438,28.5175244 Z M39.1702,25.5560255 L40.7535,25.5560255 L40.5259,26.359017 C40.5259,26.359017 41.0225,25.9523822 41.3743,25.8063928 C41.7263,25.681259 42.5126,25.5561253 42.5126,25.5561253 L45.079,25.5456476 L44.1995,28.4863907 C44.0545,28.9868259 43.8787,29.3100382 43.7752,29.4665053 C43.6822,29.6124947 43.5682,29.7479066 43.3406,29.8731401 C43.1233,29.987896 42.9266,30.060741 42.7404,30.0713185 C42.5748,30.0816964 42.3058,30.0922739 41.9539,30.0922739 L39.4806,30.0922739 L38.7872,32.4175265 C38.7252,32.6470382 38.6942,32.7615945 38.7355,32.8241614 C38.7665,32.8763503 38.8597,32.9389172 38.9735,32.9389172 L40.0601,32.8346391 L39.6875,34.1069321 L38.4665,34.1069321 C38.0732,34.1069321 37.7938,34.0963546 37.5972,34.0859766 C37.4109,34.0650212 37.2142,34.0859766 37.0797,33.9816985 C36.9659,33.8774204 36.79,33.7418089 36.8003,33.6062972 C36.8107,33.4811635 36.8623,33.2726072 36.9453,32.9806285 L39.1701,25.5560255 L39.1702,25.5560255 Z M43.784,30.2356688 L43.639,30.9447601 C43.577,31.1636943 43.5253,31.3305393 43.3597,31.4766285 C43.1837,31.622518 42.9872,31.7789851 42.5112,31.7789851 L41.6316,31.8206964 L41.6212,32.6132102 C41.6109,32.8321444 41.673,32.8112887 41.704,32.853 C41.7454,32.8946115 41.7764,32.9050892 41.8178,32.925845 L42.0972,32.9050892 L42.9355,32.8633779 L42.5835,34.031293 L41.6212,34.031293 C40.9486,34.031293 40.4415,34.0103376 40.2862,33.8853036 C40.1207,33.7810255 40.1,33.6557919 40.1,33.4264798 L40.162,30.3190913 L41.704,30.3190913 L41.6833,30.9550382 L42.0558,30.9550382 C42.18,30.9550382 42.2732,30.9446603 42.3248,30.913327 C42.3766,30.8820934 42.4078,30.8299045 42.4284,30.7569597 L42.5836,30.2564246 L43.7944,30.2564246 L43.784,30.2354692 L43.784,30.2356688 Z M21.847,14.6687898 C21.7953,14.9190573 20.802,19.517673 20.802,19.517673 C20.5845,20.4456985 20.4293,21.1132781 19.912,21.5406688 C19.6118,21.7909363 19.26,21.9055924 18.8564,21.9055924 C18.2044,21.9055924 17.8319,21.5822803 17.7698,20.967189 L17.7594,20.7586327 C17.7594,20.7586327 17.956,19.517673 17.956,19.5072951 C17.956,19.5072951 18.991,15.3152144 19.1772,14.7625902 C19.1875,14.7313567 19.1875,14.7105011 19.1875,14.7000234 C17.1695,14.7209788 16.8075,14.7000234 16.7867,14.6687898 C16.7763,14.7105011 16.7247,14.9711465 16.7247,14.9711465 L15.6691,19.6950955 L15.5761,20.0912527 L15.4001,21.4051571 C15.4001,21.7909363 15.4725,22.1141486 15.6278,22.3748938 C16.1141,23.2300743 17.4905,23.3551083 18.2666,23.3551083 C19.2704,23.3551083 20.2121,23.1360743 20.8433,22.7503949 C21.9506,22.093293 22.2403,21.0609894 22.4887,20.1539193 L22.6129,19.684518 C22.6129,19.684518 23.6789,15.3361699 23.8651,14.7729682 C23.8754,14.7417346 23.8754,14.720879 23.8858,14.7105011 C22.4163,14.720879 21.992,14.7105011 21.8471,14.6791677 L21.8471,14.6687898 L21.847,14.6687898 Z M27.75,23.3126985 C27.036,23.3022208 26.7772,23.3022208 25.939,23.3439321 L25.908,23.2813652 C25.9803,22.9580531 26.063,22.6452187 26.1252,22.3219066 L26.2287,21.8838386 C26.3839,21.2062803 26.5287,20.403189 26.5495,20.1634989 C26.5702,20.0174098 26.6115,19.6523864 26.1975,19.6523864 C26.0217,19.6523864 25.8458,19.7358089 25.6595,19.8192314 C25.556,20.1842548 25.3595,21.2062803 25.2559,21.6650042 C25.0489,22.6452187 25.0385,22.7598747 24.9454,23.2396539 L24.8834,23.302121 C24.1486,23.2917431 23.8899,23.2917431 23.0414,23.3334544 L23,23.2605096 C23.145,22.676552 23.2794,22.0925945 23.414,21.5086369 C23.7658,19.9339873 23.859,19.3292739 23.952,18.5262824 L24.0245,18.4845711 C24.8525,18.3698153 25.049,18.338482 25.9493,18.161259 L26.0217,18.2446815 L25.8872,18.7452166 C26.0424,18.6514161 26.1872,18.5576157 26.3425,18.4844713 C26.7668,18.2759151 27.2325,18.2132484 27.4912,18.2132484 C27.8844,18.2132484 28.3192,18.3280042 28.495,18.786828 C28.6606,19.1934628 28.557,19.6938981 28.3294,20.6847898 L28.2156,21.1852251 C27.9879,22.2905732 27.9466,22.4886518 27.8223,23.2394544 L27.7396,23.302121 L27.7499,23.3125987 L27.75,23.3126985 Z M30.6558,23.3153928 C30.2212,23.3153928 29.9418,23.3050149 29.6728,23.3153928 C29.4038,23.3153928 29.145,23.3363482 28.7414,23.3467261 L28.7207,23.3153928 L28.7,23.2736815 C28.8138,22.856569 28.8656,22.7105796 28.9277,22.5645902 C28.9794,22.4186008 29.0311,22.2726115 29.1347,21.845121 C29.2587,21.2922972 29.3417,20.9066178 29.3933,20.5624501 C29.4553,20.239138 29.4865,19.9577367 29.5279,19.6344246 L29.5589,19.6134692 L29.5899,19.5822357 C30.0245,19.519569 30.2936,19.4778577 30.5729,19.4361465 C30.8524,19.3944352 31.1421,19.3423461 31.5871,19.2589236 L31.6078,19.3006348 L31.618,19.3423461 L31.3697,20.3746497 C31.2867,20.7189172 31.204,21.0629851 31.1317,21.4071529 C30.9763,22.1370998 30.9039,22.4082229 30.8729,22.6063015 C30.8315,22.7939023 30.8211,22.8879023 30.7589,23.2633036 L30.7176,23.2945372 L30.6761,23.3259703 L30.6554,23.3154926 L30.6558,23.3153928 Z M37.123,20.8366667 C37.3713,19.7314183 37.1747,19.2101274 36.9367,18.8971932 C36.5642,18.4175138 35.9019,18.2611465 35.2189,18.2611465 C34.8049,18.2611465 33.8321,18.3028577 33.0663,19.011949 C32.5179,19.522862 32.2593,20.2215754 32.1143,20.8889554 C31.959,21.5667134 31.7831,22.7869172 32.9008,23.2456412 C33.2421,23.3917304 33.7388,23.4334416 34.0598,23.4334416 C34.8772,23.4334416 35.7154,23.2039299 36.3468,22.5366497 C36.833,21.9944034 37.0503,21.181034 37.1331,20.8368662 L37.1228,20.8368662 L37.123,20.8366667 Z M35.25,20.7533439 C35.219,20.9409448 35.0533,21.639758 34.836,21.9318365 C34.6808,22.1506709 34.5048,22.2862824 34.298,22.2862824 C34.2358,22.2862824 33.884,22.2862824 33.8736,21.754414 C33.8736,21.4937686 33.9253,21.2225456 33.9874,20.9306667 C34.1737,20.0859639 34.4014,19.3873503 34.9704,19.3873503 C35.4154,19.3873503 35.4466,19.908741 35.2499,20.7534437 L35.25,20.7533439 Z M52.669,23.1457537 L52.6,23.4079958 L52.6517,23.4705626 C53.4487,23.4288514 53.6969,23.4288514 54.5662,23.4392293 L54.5662,23.4498068 L54.649,23.3872399 C54.7732,22.6363376 54.887,21.9063907 55.218,20.4777304 C55.3837,19.7999724 55.539,19.1221146 55.7045,18.433879 L55.6838,18.361034 C54.7835,18.527879 54.5455,18.5591125 53.6866,18.6843461 L53.6246,18.7364352 L53.6066,18.8736433 C53.4749,18.6804544 53.2886,18.5172017 53.0159,18.4112272 C52.6329,18.2547601 51.7326,18.4529384 50.9669,19.1620297 C50.4287,19.6625648 50.1596,20.3611783 50.0149,21.0285584 C49.8595,21.6959384 49.6836,22.9265202 50.7909,23.3540106 C51.1427,23.5103779 51.4635,23.5520892 51.7843,23.5312335 C52.1003,23.5135711 52.3948,23.3649873 52.6689,23.1458535 L52.669,23.1457537 Z M53.316,20.8929469 C53.2746,21.0701699 53.109,21.7792611 52.8917,22.0712399 C52.7467,22.2797962 52.395,22.4155074 52.1984,22.4155074 C52.1364,22.4155074 51.7948,22.4155074 51.7741,21.894017 C51.7741,21.6332718 51.8259,21.3621486 51.8881,21.0701699 C52.0743,20.2464225 52.3019,19.5477091 52.8711,19.5477091 C53.3161,19.5477091 53.5127,20.0586221 53.3161,20.9033248 L53.3161,20.8929469 L53.316,20.8929469 Z M42.0292,23.3127983 C41.3152,23.3022208 41.0668,23.3022208 40.2286,23.3439321 L40.1976,23.2813652 C40.27,22.9580531 40.3528,22.6452187 40.4252,22.3219066 L40.5182,21.8838386 C40.6736,21.2062803 40.8288,20.403189 40.8392,20.1634989 C40.8598,20.0174098 40.9012,19.6523864 40.4976,19.6523864 C40.3216,19.6523864 40.1356,19.7358089 39.9596,19.8192314 C39.8664,20.1842548 39.6594,21.2062803 39.5559,21.6650042 C39.3592,22.6452187 39.3385,22.7598747 39.2454,23.2396539 L39.1834,23.302121 C38.4486,23.2917431 38.1899,23.2917431 37.3414,23.3334544 L37.3,23.2605096 C37.445,22.676552 37.5794,22.0925945 37.714,21.5086369 C38.0658,19.9339873 38.1486,19.3292739 38.252,18.5262824 L38.314,18.4845711 C39.142,18.3698153 39.349,18.338482 40.239,18.161259 L40.3114,18.2446815 L40.1872,18.7452166 C40.3322,18.6514161 40.4872,18.5576157 40.6322,18.4844713 C41.0565,18.2759151 41.5222,18.2132484 41.7808,18.2132484 C42.1741,18.2132484 42.5984,18.3280042 42.7846,18.786828 C42.9502,19.1934628 42.8364,19.6938981 42.6086,20.6847898 L42.4949,21.1852251 C42.2569,22.2905732 42.2257,22.4886518 42.1015,23.2394544 L42.0188,23.302121 L42.029,23.3125987 L42.0292,23.3127983 Z M48.2292,14.6791677 L47.6292,14.6896454 C46.0768,14.7104013 45.4559,14.6999236 45.2076,14.66869 C45.1869,14.7834459 45.1456,14.9815244 45.1456,14.9815244 C45.1456,14.9815244 44.5866,17.5676221 44.5866,17.578 C44.5866,17.578 43.2621,23.0838854 43.2,23.3445308 C44.5556,23.3235754 45.104,23.3235754 45.342,23.3550085 C45.394,23.0942633 45.7043,21.5614246 45.7147,21.5614246 C45.7147,21.5614246 45.9837,20.4352208 45.9941,20.3935096 C45.9941,20.3935096 46.0769,20.2787537 46.1597,20.2266645 L46.2839,20.2266645 C47.4533,20.2266645 48.7675,20.2266645 49.8024,19.4654841 C50.5061,18.9440934 50.9821,18.1619575 51.1994,17.2234544 C51.2511,16.9939427 51.2924,16.7229193 51.2924,16.4414183 C51.2924,16.0763949 51.2201,15.721949 51.0131,15.4403482 C50.4854,14.6999236 49.4401,14.6895456 48.2294,14.6789682 L48.2292,14.6791677 Z M49.0054,17.3800212 C48.8814,17.9535011 48.5087,18.443758 48.0327,18.6730701 C47.6395,18.8711486 47.1634,18.8920042 46.6667,18.8920042 L46.3459,18.8920042 L46.3665,18.7668705 C46.3665,18.7668705 46.9565,16.1807728 46.9565,16.1913503 L46.9771,16.0556391 L46.9874,15.9513609 L47.2254,15.9723163 C47.2254,15.9723163 48.4464,16.0764947 48.4672,16.0764947 C48.9432,16.2640955 49.1502,16.7438747 49.0052,17.3800212 L49.0054,17.3800212 Z M55.9084,25.5456476 L55.9,25.5232951 C56.4588,24.6786921 56.5933,24.3138684 57.173,23.3544098 C57.0694,22.2803949 57.0176,21.9364268 56.9348,21.2272357 C56.8831,20.8101231 56.821,20.3825329 56.7693,19.9549427 C56.6658,19.0894841 56.6865,19.214518 56.583,18.6619936 L56.5726,18.6515159 C56.5726,18.6203822 56.5726,18.5890488 56.583,18.5577155 L56.645,18.4952484 C57.4937,18.3804926 57.5143,18.349259 58.4457,18.1719363 L58.5181,18.2553588 L58.6424,20.6537558 C58.6528,20.7059448 58.6528,20.7371783 58.6528,20.7894671 C59.1391,19.6840191 59.1288,19.9863758 59.729,18.5786709 L59.729,18.5890488 C59.729,18.5680934 59.7392,18.5578153 59.7392,18.5473376 L59.8012,18.4847707 C60.6085,18.3700149 60.7742,18.3386815 61.6537,18.1614586 L61.7261,18.2448811 L61.7366,18.255259 C61.7366,18.255259 58.1766,24.4076688 57.7111,25.419017 L57.5765,25.5756837 L57.5623,25.5756837 L56.8803,26.7553737 C56.6629,27.1620085 56.249,27.4748429 55.6073,27.4748429 L54.5001,27.4538875 L54.8209,26.3694947 L55.0382,26.3694947 C55.1522,26.3694947 55.2349,26.3591168 55.297,26.3277834 C55.359,26.306828 55.3902,26.2652166 55.442,26.2026497 L55.8558,25.5457473 L55.9085,25.5457473 L55.9084,25.5456476 Z M31.4544,18.9355117 C31.9304,18.6018217 31.9924,18.1429979 31.5889,17.9032081 C31.1852,17.6633185 30.4712,17.7363631 29.9951,18.0700531 C29.5191,18.3933652 29.4674,18.8520892 29.8711,19.1023567 C30.2641,19.3318684 30.9781,19.2692017 31.4543,18.9355117 L31.4544,18.9355117 Z" id="Shape"></path>
                </g>
            </g>
        </g>
    </g>
</svg>