<?xml version="1.0" encoding="UTF-8"?>
<svg width="75px" height="47px" viewBox="0 0 75 47" version="1.1" xmlns="http://www.w3.org/2000/svg" xmlns:xlink="http://www.w3.org/1999/xlink">
    <!-- Generator: Sketch 41.2 (35397) - http://www.bohemiancoding.com/sketch -->
    <title>visa</title>
    <desc>Created with Sketch.</desc>
    <defs></defs>
    <g id="Page-1" stroke="none" stroke-width="1" fill="none" fill-rule="evenodd">
        <g id="iPad-Pro-Portrait" transform="translate(-33.000000, -360.000000)" fill="#393939">
            <g id="mono" transform="translate(33.000000, 358.000000)">
                <g id="visa" transform="translate(0.000000, 2.000000)">
                    <g id="Shape">
                        <path d="M0,3.99200637 C0,1.78719745 1.7914,0 3.9992,0 L71.0008,0 C73.2095,0 75,1.7867983 75,3.99200637 L75,43.0079936 C75,45.2128025 73.2086,47 71.0008,47 L3.9992,47 C1.7905,47 0,45.2132017 0,43.0079936 L0,3.99200637 Z M27.765,33.2921656 L31.1012,13.7575287 L36.437,13.7575287 L33.0986,33.2921656 L27.7651,33.2921656 L27.765,33.2921656 Z M52.4513,14.2385053 C51.3941,13.8427473 49.7376,13.418051 47.6689,13.418051 C42.3965,13.418051 38.6824,16.067414 38.6509,19.8646348 C38.6211,22.6716624 41.3023,24.2373312 43.3263,25.1718429 C45.4033,26.1292059 46.1013,26.7399066 46.0915,27.5949873 C46.0783,28.9042017 44.4329,29.5025287 42.8992,29.5025287 C40.7636,29.5025287 39.629,29.2065584 37.8766,28.4771104 L37.1891,28.1667707 L36.4401,32.5397665 C37.6865,33.0851062 39.9911,33.5576008 42.3841,33.5820488 C47.9929,33.5820488 51.6341,30.9628217 51.6754,26.907949 C51.6956,24.6858769 50.274,22.9946752 47.1956,21.6004416 C45.3305,20.6968641 44.1883,20.0936476 44.2004,19.1787941 C44.2004,18.3668217 45.1672,17.4983694 47.2561,17.4983694 C49.0009,17.4714268 50.2648,17.8512187 51.2496,18.2467771 L51.7279,18.4722972 L52.4512,14.2383057 L52.4513,14.2385053 Z M66.134,13.776189 L62.011,13.776189 C60.7336,13.776189 59.7778,14.1240488 59.2168,15.3960425 L51.2923,33.2983524 L56.8953,33.2983524 C56.8953,33.2983524 57.8116,30.8911741 58.0188,30.3627983 C58.6311,30.3627983 64.0741,30.3711805 64.8524,30.3711805 C65.012,31.0550255 65.5014,33.2983524 65.5014,33.2983524 L70.4528,33.2983524 L66.134,13.7760892 L66.134,13.776189 Z M17.5088,24.3847176 C17.5088,24.385017 17.509,24.3853163 17.5092,24.3857155 L18.0657,27.0927558 L23.2897,13.7716985 L28.9419,13.7716985 L20.5413,33.2688153 L14.8959,33.2753015 L10.1519,16.3088004 C8.5117,15.4013312 6.6401,14.6717834 4.5472,14.1663588 L4.6152,13.759724 L13.2192,13.759724 C14.3782,13.8026327 15.315,14.1718471 15.638,15.4089151 L17.5088,24.3848174 L17.5088,24.3847176 Z M59.5543,26.3670998 C59.9956,25.2414947 61.6803,20.9063185 61.6803,20.9063185 C61.6486,20.9582081 62.1183,19.7753248 62.3876,19.0418854 L62.7484,20.7260021 C62.7484,20.7260021 63.77,25.3890807 63.9834,26.3668004 L59.5544,26.3668004 L59.5544,26.367 L59.5543,26.3670998 Z"></path>
                    </g>
                </g>
            </g>
        </g>
    </g>
</svg>