<?xml version="1.0" encoding="UTF-8"?>
<svg width="19px" height="13px" viewBox="0 0 19 13" version="1.1" xmlns="http://www.w3.org/2000/svg" xmlns:xlink="http://www.w3.org/1999/xlink">
    <!-- Generator: Sketch 41.2 (35397) - http://www.bohemiancoding.com/sketch -->
    <title>Rectangle 13</title>
    <desc>Created with Sketch.</desc>
    <defs></defs>
    <g id="All-Artboards" stroke="none" stroke-width="1" fill="none" fill-rule="evenodd">
        <g id="Modal_Create-Account-(Filled)" transform="translate(-118.000000, -152.000000)" fill="#969696">
            <g id="Login" transform="translate(118.000000, 148.000000)">
                <g id="Email">
                    <path d="M9.0706859,14.0640617 L17,8 L17,15.0625 L9,15.0625 L2,15.0625 L2,8 L9.0706859,14.0640617 Z M19,4.99850233 L19,16.0014977 C19,16.5525106 18.5546258,17 18.0052288,17 L0.994771168,17 C0.450925395,17 0,16.5529553 0,16.0014977 L0,4.99850233 C0,4.44748943 0.445374222,4 0.994771168,4 L18.0052288,4 C18.5490746,4 19,4.44704472 19,4.99850233 Z M2,6 L9.5,12 L17,6 L2,6 Z" id="Rectangle-13"></path>
                </g>
            </g>
        </g>
    </g>
</svg>