<?xml version="1.0" encoding="UTF-8"?>
<svg width="53px" height="43px" viewBox="0 0 53 43" version="1.1" xmlns="http://www.w3.org/2000/svg" xmlns:xlink="http://www.w3.org/1999/xlink">
    <!-- Generator: Sketch 41.2 (35397) - http://www.bohemiancoding.com/sketch -->
    <title>F2X Logo</title>
    <desc>Created with Sketch.</desc>
    <defs></defs>
    <g id="Symbols" stroke="none" stroke-width="1" fill="none" fill-rule="evenodd">
        <g id="Header-Bar" transform="translate(-61.000000, -22.000000)" fill="#5A5A5A">
            <g id="Header">
                <path d="M85.7662,35.938547 C85.7481886,36.0122789 85.7412611,36.0910331 85.7106738,36.1589947 C84.9059171,37.9506798 84.0995618,39.7415101 83.291821,41.5316992 C82.389334,43.5317571 81.4851418,45.531067 80.5820153,47.5309111 C80.4347271,47.8571481 80.2895703,48.1842399 80.1147854,48.5033173 C80.1385519,48.3542507 80.1629578,48.2050771 80.1860849,48.0559036 C80.3788812,46.8069494 80.1028489,45.6807748 79.2855162,44.7090097 C78.8886266,44.2370187 78.4045576,43.8637643 77.8622981,43.5677682 C76.9214436,43.0541026 75.9098226,42.7786231 74.8496029,42.669735 C74.5291283,42.6368228 74.2067354,42.6234656 73.885728,42.5949345 C73.7644443,42.5841419 73.7091313,42.6375708 73.6593602,42.7433601 C73.2858108,43.5379548 72.9057601,44.3294507 72.5274147,45.1218015 C71.9630939,46.303649 71.3991994,47.4858171 70.8339194,48.6673441 C70.5355061,49.2906458 70.2330429,49.9119172 69.935056,50.5354326 C69.3951411,51.6652403 68.8576775,52.7961167 68.3181889,53.926245 C68.0453539,54.4977207 67.7697479,55.0680209 67.4963801,55.6394965 C66.9187372,56.8469899 66.3420536,58.0551245 65.7645173,59.2629384 C65.4944533,59.8277889 65.2235367,60.3923188 64.9525135,60.9567418 C64.8279259,61.2164063 64.6919347,61.4711554 64.5812021,61.7363765 C64.5274877,61.8649264 64.4413741,61.9071353 64.3230746,61.9196376 C63.618393,61.994545 62.9674257,61.857019 62.3832817,61.437602 C61.4528718,60.7695269 61.0324288,59.8441381 61.0021611,58.7175361 C60.9786078,57.8433323 61.152327,57.0001172 61.4100281,56.1723965 C61.6866999,55.2839805 62.0547074,54.4324305 62.4623613,53.5966955 C63.1596891,52.1670447 63.8493435,50.733547 64.5411294,49.3009041 C64.951128,48.4519187 65.3585687,47.6015442 65.7679277,46.7521313 C66.4023757,45.4359635 67.0376762,44.1202231 67.6723373,42.8041622 C68.081803,41.954963 68.4908423,41.1053365 68.9004145,40.2560305 C69.534969,38.9398627 70.170163,37.6239086 70.8046109,36.3077408 C71.2140766,35.4584348 71.622583,34.6087014 72.0318355,33.7592885 C72.6630862,32.4496391 73.29455,31.1399896 73.9259072,29.8303401 C74.3447516,28.961586 74.7687116,28.0951827 75.1810548,27.2232229 C75.4546358,26.6445878 75.7219288,26.0624264 75.9731289,25.4737466 C76.1717869,25.0082739 76.2821998,24.5151251 76.3185422,24.0100082 C76.334955,23.7802638 76.3004243,23.5488098 76.2048255,23.3355216 C76.0901495,23.0800245 75.894902,22.9249738 75.6090647,22.9018925 C75.5304115,22.8954811 75.4512254,22.8933439 75.372359,22.893237 C74.552362,22.8927028 73.7324715,22.8931302 72.9124744,22.892489 C72.8494879,22.8923822 72.7863948,22.8859707 72.711152,22.8816964 L72.711152,22.2082784 C72.8842317,22.1564523 96.1646237,22.1299516 97.0351379,22.1815639 C97.0217093,22.2293294 97.0154213,22.2763468 96.996131,22.3169528 C96.5168579,23.3243015 96.0348139,24.3302611 95.5559672,25.3378235 C94.8577867,26.8066911 94.1622706,28.276841 93.4647296,29.7460293 C93.156085,30.3961523 92.8464812,31.045741 92.5343196,31.6942611 C92.5000021,31.7655353 92.4877458,31.8617073 92.3539928,31.8990007 C92.3696594,31.8096676 92.3781855,31.743202 92.3932128,31.6781256 C92.5165214,31.1451187 92.6016758,30.6062347 92.6465443,30.0607256 C92.7281817,29.0679095 92.6420681,28.0920839 92.3429088,27.1403012 C92.093414,26.3464545 91.6907692,25.640338 91.1280471,25.0234478 C90.447878,24.2779007 89.6171167,23.7682958 88.6794596,23.4262439 C87.8996417,23.1417883 87.0922207,22.9780822 86.2625252,22.9370487 C85.8468781,22.9164252 85.4309113,22.8959085 85.0149445,22.8949468 C83.2312858,22.8903519 81.4475204,22.8930233 79.6637551,22.8930233 L79.3795164,22.8930233 C79.4515619,22.9606643 79.4916345,23.0031937 79.5366097,23.039846 C80.0910189,23.4923889 80.5017635,24.0432409 80.6995689,24.7408088 C80.8526122,25.280334 80.8812812,25.8280872 80.8341746,26.385885 C80.7223762,27.7119906 80.2732642,28.9380773 79.7368663,30.1369152 C79.4810835,30.708284 79.1905569,31.2640515 78.9186811,31.8282608 C78.2439473,33.2288463 77.5715583,34.6305004 76.8971443,36.0311927 C76.5347853,36.7834718 76.1697619,37.5345755 75.8066569,38.286534 C75.2746287,39.3882381 74.7430267,40.4902629 74.2122774,41.592715 C74.1755086,41.6690115 74.1469462,41.7494754 74.107513,41.8451132 C74.3596722,41.8451132 74.5952056,41.8653093 74.8260496,41.8409457 C75.3245063,41.7884786 75.8223236,41.7244707 76.3171568,41.6447548 C77.3348526,41.480728 78.3160994,41.180885 79.2730468,40.8018603 C80.8412086,40.1806957 82.286488,39.3457087 83.5824542,38.2615292 C84.4013855,37.5765706 85.1399584,36.8121097 85.7684381,35.9448516 L85.7662,35.938547 Z M85.9800451,35.9190561 C87.7495292,35.917667 89.5190133,35.9179876 91.2883909,35.9178807 L91.4665863,35.9178807 C93.2572791,38.8627755 95.0442417,41.8013656 96.8467645,44.7654948 C97.0054564,44.5989034 97.1538104,44.4479133 97.2968356,44.2921146 C97.6761402,43.879216 98.0526738,43.4640733 98.4309127,43.0503198 C98.8093646,42.6365664 99.1881364,42.2232403 99.5673344,41.8101279 C99.9319314,41.4128306 100.297594,41.0166017 100.661978,40.6190906 C101.050448,40.1951857 101.437107,39.7695709 101.826216,39.3463071 C102.278845,38.8539063 102.735098,38.3650317 103.186022,37.8714554 C103.932694,37.0543136 104.693861,36.2492468 105.358257,35.3610446 C105.946558,34.5744641 106.054519,33.6998329 105.761541,32.7810693 C105.526647,32.0441777 104.970213,31.6575661 104.232067,31.5151246 C104.049928,31.4799684 103.863633,31.4671455 103.652079,31.4406447 C103.619147,30.5372687 103.670304,29.6275881 103.657195,28.7065805 C103.877914,28.7065805 104.078064,28.6914067 104.275124,28.7093588 C104.855644,28.7624671 105.427638,28.8650506 105.968193,29.0950087 C107.519089,29.7548557 108.476782,30.9066762 108.784361,32.5730171 C108.948489,33.4616468 108.904259,34.3486736 108.651781,35.220954 C108.49586,35.7599448 108.250948,36.2584366 107.907772,36.6977291 C107.465481,37.2639687 107.010721,37.8217665 106.533899,38.358834 C105.899025,39.0737128 105.239744,39.7667926 104.587285,40.4659634 C104.160341,40.9233149 103.726469,41.3742549 103.296967,41.8292555 C103.099802,42.0382694 102.905726,42.2502753 102.702912,42.4689064 C102.77954,42.5325937 102.860645,42.5082301 102.933436,42.508337 C104.407917,42.5100467 105.882505,42.5119701 107.357093,42.5065204 C107.515252,42.5058792 107.6165,42.5474469 107.716575,42.6793095 C108.357311,43.5227383 109.185834,44.1195392 110.190634,44.439899 C110.969386,44.6882366 111.766149,44.8805806 112.555666,45.0947237 C112.955859,45.2032913 113.357864,45.3051268 113.756246,45.4457517 L97.3156996,45.4457517 C97.3480988,45.6061453 98.7796299,47.985121 99.6424706,49.3721355 C100.444563,50.661482 101.222782,51.9658955 102.011659,53.2635769 C102.804159,54.5673492 103.596553,55.8712284 104.38948,57.1746801 C105.178783,58.4720409 105.969578,59.7686538 106.758668,61.0661215 C107.546692,62.3622 108.333331,63.6590266 109.136276,64.9812853 C109.060926,64.9880173 109.014779,64.9959248 108.968525,64.9960316 C107.163125,64.9966728 105.357618,64.9951768 103.552324,64.999558 C103.426457,64.9998785 103.360487,64.9556394 103.297607,64.8509187 C102.679252,63.8201682 102.056314,62.7923028 101.433483,61.7642236 C100.142952,59.6345472 98.8512491,57.5054051 97.5611445,55.3754081 C96.4349542,53.5162957 95.3102558,51.6562215 94.1849181,49.7965748 C93.0783377,47.9677032 91.9722902,46.1386178 90.8651769,44.3101736 C89.6460521,42.2968653 88.4260747,40.2841982 87.206417,38.2714243 C86.7737178,37.5574003 86.340912,36.8433763 85.9066141,36.130314 C85.8660086,36.0635279 85.8138928,36.0035807 85.7666796,35.9395728 C85.8389382,35.9358328 85.9094916,35.919163 85.9800451,35.9190561 Z M82.5376454,64.9853565 C82.6226932,64.8383202 82.6921809,64.7155405 82.7641198,64.5940432 C83.9009678,62.6759453 85.0382421,60.7579542 86.1751967,58.8398563 C86.2558748,58.7038262 86.3374056,58.5681168 86.4147799,58.4301634 C86.4542131,58.3599578 86.5056894,58.3225575 86.5881793,58.3324953 C86.6165286,58.3358079 86.6456239,58.3328159 86.6743995,58.3328159 L91.9150695,58.3328159 L92.1390926,58.3328159 C92.0965687,58.4238588 92.0698181,58.4947055 92.0324098,58.5592476 C91.5192456,59.4422138 91.0043761,60.3242183 90.4904658,61.206757 C89.8027298,62.387536 89.11542,63.5687424 88.4280038,64.7498419 C88.4135094,64.7746329 88.3968835,64.7987828 88.3865456,64.8252835 C88.3316589,64.9661221 88.2305181,65.0004235 88.082697,64.9999961 C86.307138,64.9948669 84.5314724,64.9966835 82.7558068,64.996256 C82.6939927,64.996256 82.6321785,64.990272 82.5376454,64.9853565 Z M101.251856,28.8715369 C100.529163,29.2311135 100.034863,29.8076114 99.6584357,30.4952415 C99.5454649,30.7014771 99.4648934,30.9289774 99.395832,31.1549817 C99.3263443,31.3826957 99.3711063,31.6011131 99.5580409,31.7663153 C99.6922203,31.8848207 99.8325811,31.9971282 99.9768853,32.1029175 C100.673574,32.6133773 100.775247,33.5765937 100.331358,34.1985063 C99.8363113,34.8919067 98.8582618,35.0534757 98.1707389,34.5508165 C97.6792096,34.1914536 97.436216,33.7081357 97.4249189,33.0947718 C97.41181,32.3871593 97.6779307,31.7743297 98.0354938,31.1918477 C98.4193811,30.5668363 98.9000397,30.0269905 99.5025147,29.6034061 C100.008219,29.2477833 100.563481,29.0043612 101.168727,28.8777346 C101.19569,28.8720712 101.224146,28.8734603 101.251856,28.8715369 Z" id="F2X-Logo"></path>
            </g>
        </g>
    </g>
</svg>