<?xml version="1.0" encoding="UTF-8"?>
<svg width="134px" height="134px" viewBox="0 0 134 134" version="1.1" xmlns="http://www.w3.org/2000/svg" xmlns:xlink="http://www.w3.org/1999/xlink">
    <!-- Generator: Sketch 43.2 (39069) - http://www.bohemiancoding.com/sketch -->
    <title>Combined Shape</title>
    <desc>Created with Sketch.</desc>
    <defs></defs>
    <g id="Page-1" stroke="none" stroke-width="1" fill="none" fill-rule="evenodd">
        <g id="A4" transform="translate(-2838.000000, -23.000000)" fill="#969696">
            <path d="M2971.57132,103.932847 C2969.97251,111.611087 2967.07879,118.814409 2963.12888,125.304103 C2957.2362,120.431627 2948.49277,120.753443 2942.97666,126.269553 C2937.33253,131.913683 2937.12659,140.936674 2942.35885,146.827371 C2935.91228,151.073988 2928.7002,154.253124 2920.97422,156.113174 C2920.51528,148.241712 2913.98656,142 2906,142 C2897.86336,142 2891.23985,148.478505 2891.00637,156.558632 C2883.12574,154.910125 2875.74639,151.897323 2869.12666,147.778569 C2874.58519,141.895567 2874.45312,132.699335 2868.73045,126.976659 C2862.95471,121.200918 2853.64069,121.119946 2847.76574,126.733745 C2843.545,120.171085 2840.42217,112.835305 2838.65672,104.985882 C2846.6363,104.642128 2853,98.0642251 2853,90 C2853,81.9357749 2846.6363,75.357872 2838.65672,75.0141181 C2840.40238,67.2526843 2843.47516,59.9934429 2847.62421,53.4872416 C2853.51724,58.5763978 2862.42965,58.3241331 2868.02334,52.7304474 C2873.59506,47.158726 2873.86723,38.2942829 2868.83984,32.400878 C2875.27623,28.3516592 2882.43911,25.3514181 2890.08863,23.6400085 C2890.90556,31.1527565 2897.26993,37 2905,37 C2912.73007,37 2919.09444,31.1527565 2919.91137,23.6400085 C2927.48738,25.3349716 2934.58605,28.2941143 2940.9744,32.2844312 C2936.44929,38.1664666 2936.88101,46.6347934 2942.26955,52.0233406 C2947.71104,57.4648279 2956.29312,57.8516089 2962.18107,53.1836835 C2966.26682,59.5163629 2969.32926,66.5713676 2971.13456,74.1148622 C2963.7306,75.0333006 2958,81.347424 2958,89 C2958,96.8023993 2963.95718,103.213424 2971.57132,103.932847 Z M2905.5,124.679996 C2924.37709,124.679996 2939.68,109.37709 2939.68,90.5 C2939.68,71.6229096 2924.37709,56.3200043 2905.5,56.3200043 C2886.62291,56.3200043 2871.32,71.6229096 2871.32,90.5 C2871.32,109.37709 2886.62291,124.679996 2905.5,124.679996 Z" id="Combined-Shape"></path>
        </g>
    </g>
</svg>