<?xml version="1.0" encoding="UTF-8"?>
<svg width="32px" height="21px" viewBox="0 0 32 21" version="1.1" xmlns="http://www.w3.org/2000/svg" xmlns:xlink="http://www.w3.org/1999/xlink">
    <!-- Generator: Sketch 43.2 (39069) - http://www.bohemiancoding.com/sketch -->
    <title>VISA Logo Copy</title>
    <desc>Created with Sketch.</desc>
    <defs></defs>
    <g id="Symbols" stroke="none" stroke-width="1" fill="none" fill-rule="evenodd">
        <g id="Icon-/-Visa">
            <g id="VISA-Logo-Copy">
                <rect id="Rectangle-2" fill="#003C69" x="0" y="0" width="32" height="21" rx="2"></rect>
                <path d="M24.568562,11.696823 C24.7501377,11.2269783 25.4431185,9.4174205 25.4431185,9.4174205 C25.4301598,9.43913207 25.6233058,8.94538909 25.7342259,8.63924033 L25.8826336,9.34228909 C25.8826336,9.34228909 26.302865,11.2886767 26.3907989,11.696823 L24.568562,11.696823 Z M27.2753829,6.44121719 L29.0519559,14.5899288 L27.0151295,14.5899288 C27.0151295,14.5899288 26.8138072,13.6535197 26.7480882,13.3681453 C26.427978,13.3681453 24.1887493,13.3647089 23.9368264,13.3647089 C23.8516694,13.585261 23.4746336,14.5899288 23.4746336,14.5899288 L21.169686,14.5899288 L24.429719,7.11739983 C24.6605069,6.58632545 25.053741,6.44121719 25.5791846,6.44121719 L27.2753829,6.44121719 Z M21.6464727,6.63409091 L21.348886,8.40131901 L21.1521917,8.3072876 C20.7470788,8.14202975 20.227189,7.98364463 19.5092165,7.99489091 C18.6499328,7.99489091 18.2522248,8.35727107 18.2522248,8.69622149 C18.2472882,9.07812645 18.7171945,9.32991818 19.4843791,9.70713719 C20.7507813,10.288976 21.3356187,10.9949926 21.3274424,11.9224983 C21.3103185,13.6150636 19.812357,14.7082959 17.504941,14.7082959 C16.5205444,14.698143 15.5725554,14.5008645 15.059762,14.2732835 L15.3678391,12.4479496 L15.6507702,12.5775942 C16.3716738,12.8820248 16.8383405,13.0055777 17.716908,13.0055777 C18.3478722,13.0055777 19.0248088,12.7558165 19.0302083,12.2092785 C19.0342193,11.8523653 18.7469686,11.5974496 17.8926215,11.1978942 C17.0600264,10.8078669 15.9569961,10.1541769 15.9691835,8.98253306 C15.9821421,7.39758843 17.5101862,6.29170413 19.6790678,6.29170413 C20.5301752,6.29170413 21.2115857,6.46883306 21.6464727,6.63409091 Z M12.8632815,6.43336041 L15.058389,6.43336041 L13.6850777,14.5873827 L11.4908959,14.5873827 L12.8632815,6.43336041 Z M7.27172011,10.8697215 L7.50065675,11.9998165 L9.64979174,6.43931157 L11.9749488,6.43931157 L8.51914711,14.577714 L6.19661267,14.5803694 L4.24498864,7.49815976 C3.57025848,7.11939289 2.80035774,6.81491087 1.93937851,6.60389777 L1.96745565,6.43426636 L5.5070259,6.43426636 C5.98372011,6.45222917 6.3690865,6.60639694 6.50206722,7.12263248 L7.27172011,10.8696746 L7.27172011,10.8697215 Z" id="Visa-Logo" fill="#FEFEFE"></path>
            </g>
        </g>
    </g>
</svg>