<?xml version="1.0" encoding="UTF-8"?>
<svg width="17px" height="20px" viewBox="0 0 17 20" version="1.1" xmlns="http://www.w3.org/2000/svg" xmlns:xlink="http://www.w3.org/1999/xlink">
    <!-- Generator: Sketch 43.2 (39069) - http://www.bohemiancoding.com/sketch -->
    <title>PayPal</title>
    <desc>Created with Sketch.</desc>
    <defs></defs>
    <g id="Symbols" stroke="none" stroke-width="1" fill="none" fill-rule="evenodd">
        <g id="Pay-with-PayPal-/-No">
            <g id="PayPal-/-Inactive">
                <path d="M14.343203,1.52873362 C13.4514999,0.509694323 11.7313252,0 9.62914181,0 L3.44975317,0 C3.00390164,0 2.62180557,0.318689956 2.55796278,0.764541485 L0.0098405047,17.0725764 C-0.0539149538,17.391179 0.200932208,17.709869 0.519534828,17.709869 L4.34154356,17.709869 L4.08704574,19.3661135 C4.02320295,19.6209607 4.27805011,19.8758079 4.53289727,19.8758079 L7.71796278,19.8758079 C8.10005885,19.8758079 8.4187488,19.6209607 8.48250426,19.2385153 L8.48250426,19.0475109 L9.11944749,15.2251528 L9.18320295,15.0341485 C9.24704574,14.6520524 9.56529902,14.3972052 9.94774443,14.3972052 L10.4570894,14.3972052 C13.5787488,14.3972052 15.9995348,13.1229694 16.7003209,9.4920524 C17.0189235,7.96296943 16.8275698,6.68908297 16.0630283,5.79694323 C15.8085305,5.47868996 15.4898405,5.28724891 15.1715872,5.09624454 C15.4264344,3.56751092 15.1715872,2.48427948 14.343203,1.52873362 Z" id="Fill-1" fill="#C8C8C8"></path>
                <path d="M15.1715872,5.09624454 C15.4264344,3.56751092 15.1715872,2.48427948 14.343203,1.52873362 C13.4514999,0.509694323 11.7313252,0 9.62914181,0 L3.44975317,0 C3.00390164,0 2.62180557,0.318689956 2.55796278,0.764541485 L0.0098405047,17.0725764 C-0.0539149538,17.391179 0.200932208,17.709869 0.519534828,17.709869 L4.34154356,17.709869 L5.29708941,11.6577293 L5.29708941,11.849083 C5.36093221,11.4032314 5.74302828,11.0845415 6.18922915,11.0845415 L7.97280994,11.0845415 C11.5403209,11.0845415 14.343203,9.61930131 15.1077444,5.47868996 C15.1077444,5.3510917 15.1715872,5.22384279 15.1715872,5.09624454" id="Fill-3" fill="#5A5A5A"></path>
                <path d="M6.31647806,5.09624454 C6.38032085,4.84139738 6.50756976,4.65030568 6.76241692,4.52305677 C6.89001518,4.45930131 6.95342129,4.45930131 7.08101954,4.45930131 L11.9224169,4.45930131 C12.4958667,4.45930131 13.005561,4.52305677 13.514906,4.58689956 C13.6425043,4.58689956 13.7697532,4.65030568 13.8973514,4.65030568 C14.0246003,4.65030568 14.1521986,4.71414847 14.2794475,4.77790393 C14.343203,4.77790393 14.4070457,4.84174672 14.4705392,4.84174672 C14.725299,4.90515284 14.9167401,5.03275109 15.1712379,5.09659389 C15.426085,3.56751092 15.1712379,2.48462882 14.343203,1.52908297 C13.4514999,0.509694323 11.7313252,0 9.62914181,0 L3.44975317,0 C3.00390164,0 2.62180557,0.318689956 2.55796278,0.764541485 L0.0098405047,17.0725764 C-0.0539149538,17.391179 0.200932208,17.709869 0.519534828,17.709869 L4.34154356,17.709869 L5.29708941,11.6577293 L6.31647806,5.09624454 Z" id="Fill-4" fill="#828282"></path>
            </g>
        </g>
    </g>
</svg>