<?xml version="1.0" encoding="UTF-8"?>
<svg width="17px" height="20px" viewBox="0 0 17 20" version="1.1" xmlns="http://www.w3.org/2000/svg" xmlns:xlink="http://www.w3.org/1999/xlink">
    <!-- Generator: Sketch 43.2 (39069) - http://www.bohemiancoding.com/sketch -->
    <title>PayPal</title>
    <desc>Created with Sketch.</desc>
    <defs></defs>
    <g id="Symbols" stroke="none" stroke-width="1" fill="none" fill-rule="evenodd">
        <g id="Pay-with-PayPal-/-Yes">
            <g id="PayPal-/-Active">
                <g id="PayPal">
                    <path d="M14.3432314,1.56567686 C13.4515284,0.546637555 11.7313537,0.0369432314 9.62917031,0.0369432314 L3.44978166,0.0369432314 C3.00393013,0.0369432314 2.62183406,0.355633188 2.55799127,0.801484716 L0.00986899563,17.1095197 C-0.0538864629,17.4281223 0.200960699,17.7468122 0.519563319,17.7468122 L4.34157205,17.7468122 L4.08707424,19.4030568 C4.02323144,19.6579039 4.2780786,19.9127511 4.53292576,19.9127511 L7.71799127,19.9127511 C8.10008734,19.9127511 8.41877729,19.6579039 8.48253275,19.2754585 L8.48253275,19.0844541 L9.11947598,15.2620961 L9.18323144,15.0710917 C9.24707424,14.6889956 9.56532751,14.4341485 9.94777293,14.4341485 L10.4571179,14.4341485 C13.5787773,14.4341485 15.9995633,13.1599127 16.7003493,9.52899563 C17.018952,7.99991266 16.8275983,6.7260262 16.0630568,5.83388646 C15.808559,5.51563319 15.489869,5.32419214 15.1716157,5.13318777 C15.4264629,3.60445415 15.1716157,2.52122271 14.3432314,1.56567686 Z" id="Fill-1" fill="#3A9DC7"></path>
                    <path d="M15.1716157,5.13318777 C15.4264629,3.60445415 15.1716157,2.52122271 14.3432314,1.56567686 C13.4515284,0.546637555 11.7313537,0.0369432314 9.62917031,0.0369432314 L3.44978166,0.0369432314 C3.00393013,0.0369432314 2.62183406,0.355633188 2.55799127,0.801484716 L0.00986899563,17.1095197 C-0.0538864629,17.4281223 0.200960699,17.7468122 0.519563319,17.7468122 L4.34157205,17.7468122 L5.2971179,11.6946725 L5.2971179,11.8860262 C5.3609607,11.4401747 5.74305677,11.1214847 6.18925764,11.1214847 L7.97283843,11.1214847 C11.5403493,11.1214847 14.3432314,9.65624454 15.1077729,5.51563319 C15.1077729,5.38803493 15.1716157,5.26078603 15.1716157,5.13318777" id="Fill-3" fill="#242E56"></path>
                    <path d="M6.31650655,5.13318777 C6.38034934,4.87834061 6.50759825,4.68724891 6.76244541,4.56 C6.89004367,4.49624454 6.95344978,4.49624454 7.08104803,4.49624454 L11.9224454,4.49624454 C12.4958952,4.49624454 13.0055895,4.56 13.5149345,4.62384279 C13.6425328,4.62384279 13.7697817,4.68724891 13.8973799,4.68724891 C14.0246288,4.68724891 14.1522271,4.7510917 14.279476,4.81484716 C14.3432314,4.81484716 14.4070742,4.87868996 14.4705677,4.87868996 C14.7253275,4.94209607 14.9167686,5.06969432 15.1712664,5.13353712 C15.4261135,3.60445415 15.1712664,2.52157205 14.3432314,1.5660262 C13.4515284,0.546637555 11.7313537,0.0369432314 9.62917031,0.0369432314 L3.44978166,0.0369432314 C3.00393013,0.0369432314 2.62183406,0.355633188 2.55799127,0.801484716 L0.00986899563,17.1095197 C-0.0538864629,17.4281223 0.200960699,17.7468122 0.519563319,17.7468122 L4.34157205,17.7468122 L5.2971179,11.6946725 L6.31650655,5.13318777 Z" id="Fill-4" fill="#2D3E71"></path>
                </g>
            </g>
        </g>
    </g>
</svg>