<?xml version="1.0" encoding="UTF-8"?>
<svg width="17px" height="17px" viewBox="0 0 17 17" version="1.1" xmlns="http://www.w3.org/2000/svg" xmlns:xlink="http://www.w3.org/1999/xlink">
    <!-- Generator: Sketch 41.2 (35397) - http://www.bohemiancoding.com/sketch -->
    <title>input_user</title>
    <desc>Created with Sketch.</desc>
    <defs></defs>
    <g id="Symbols" stroke="none" stroke-width="1" fill="none" fill-rule="evenodd">
        <g id="Modal_Create-Account-(Filled)" transform="translate(-118.000000, -226.000000)" fill="#969696">
            <g id="Manual-Sign-Up" transform="translate(118.000000, 175.000000)">
                <g id="Username" transform="translate(0.000000, 50.000000)">
                    <path d="M17,15.974 L17,18 L0,18 L0,15.974 L5.667,12.334 L5.667,10.916 C5.317,10.916 4.994,10.565 4.696,9.861 C4.397,9.158 4.25,8.565 4.25,8.084 L4.25,5.25 C4.25,4.079 4.666,3.078 5.497,2.246 C6.328,1.416 7.33,1 8.5,1 C9.67,1 10.672,1.416 11.503,2.246 C12.333,3.078 12.75,4.079 12.75,5.25 L12.75,8.084 C12.75,8.565 12.602,9.158 12.304,9.861 C12.006,10.565 11.683,10.916 11.333,10.916 L11.333,12.334 L17,15.974" id="input_user"></path>
                </g>
            </g>
        </g>
    </g>
</svg>