<svg width="14" height="13" viewBox="0 0 14 13" xmlns="http://www.w3.org/2000/svg"><title>A185A9BE-FD9A-466A-A52E-9198F8B4FA40</title><g transform="translate(-7 -3)" fill="none" fill-rule="evenodd"><ellipse stroke="#222" stroke-width=".5" cx="13.982" cy="9.865" rx="5.865" ry="5.865"/><path d="M13.36 11.506c.01.28.247.508.51.508.273 0 .481-.214.473-.36 0-.669.07-.833.563-1.302.704-.657 1.337-1.232 1.337-2.264C16.243 6.739 15.235 6 13.956 6c-1.278 0-2.222.662-2.456 2.012l.858.111c.117-.762.8-1.278 1.586-1.278.775 0 1.4.527 1.4 1.278 0 .74-.696 1.185-1.177 1.677-.61.61-.81.786-.81 1.654l.003.052zm.56 1.063a.588.588 0 0 0-.586.586c0 .323.284.587.587.587a.601.601 0 0 0 .586-.587.588.588 0 0 0-.586-.586z" fill="#222"/></g></svg>