<?xml version="1.0" encoding="UTF-8"?>
<svg width="15px" height="15px" viewBox="0 0 15 15" version="1.1" xmlns="http://www.w3.org/2000/svg" xmlns:xlink="http://www.w3.org/1999/xlink">
    <!-- Generator: Sketch 41.2 (35397) - http://www.bohemiancoding.com/sketch -->
    <title>Search Icon</title>
    <desc>Created with Sketch.</desc>
    <defs></defs>
    <g id="Symbols" stroke="none" stroke-width="1" fill="none" fill-rule="evenodd">
        <g id="Search-Bar-(Expanded)" transform="translate(-219.000000, 0.000000)" fill="#5A5A5A">
            <path d="M230.157645,9.35451874 L233.918507,13.1028455 C233.976592,13.1613478 234.005843,13.236565 234.005843,13.3284972 C234.005843,13.4208473 233.976592,13.4956467 233.918507,13.554149 L232.551643,14.9205959 C232.484365,14.9874557 232.409566,15.0208855 232.325991,15.0208855 C232.242416,15.0208855 232.167199,14.9874557 232.100339,14.9205959 L228.339476,11.1722692 C227.336997,11.8157946 226.245929,12.1375573 225.067526,12.1375573 C223.395613,12.1375573 221.966485,11.5441767 220.78056,10.3574155 C219.593381,9.17065433 219,7.74152642 219,6.07003179 C219,4.39853715 219.593381,2.96940924 220.78056,1.78264805 C221.966485,0.595886861 223.395613,0.00250626566 225.067526,0.00250626566 C226.73902,0.00250626566 228.168148,0.595886861 229.355327,1.78264805 C230.54167,2.96940924 231.135469,4.39853715 231.135469,6.07003179 C231.135469,7.2484355 230.809527,8.34326449 230.157645,9.35451874 C230.157645,9.35451874 230.809527,8.34326449 230.157645,9.35451874 L230.157645,9.35451874 L230.157645,9.35451874 Z M222.134052,3.14909491 C221.323378,3.95976981 220.91804,4.93341543 220.91804,6.07003179 C220.91804,7.20664814 221.323378,8.18071163 222.134052,8.99096866 C222.944727,9.80164355 223.922552,10.206981 225.067526,10.206981 C226.212499,10.206981 227.188234,9.80164355 227.99473,8.99096866 C228.801227,8.18071163 229.204475,7.20664814 229.204475,6.07003179 C229.204475,4.93341543 228.801227,3.95976981 227.99473,3.14909491 C227.188234,2.33883789 226.212499,1.93308257 225.067526,1.93308257 C223.922552,1.93308257 222.944727,2.33883789 222.134052,3.14909491 C222.134052,3.14909491 222.944727,2.33883789 222.134052,3.14909491 L222.134052,3.14909491 L222.134052,3.14909491 Z" id="Search-Icon"></path>
        </g>
    </g>
</svg>