
<svg width="1100px" height="300px" viewBox="0 0 1100 300" version="1.1" xmlns="http://www.w3.org/2000/svg" xmlns:xlink="http://www.w3.org/1999/xlink">
    <!-- Generator: Sketch 43.2 (39069) - http://www.bohemiancoding.com/sketch -->
    <desc>Created with Sketch.</desc>
    <defs></defs>
    <g id="Phase-2" stroke="none" stroke-width="1" fill="none" fill-rule="evenodd">
        <g id="Homepage" transform="translate(-180.000000, -720.000000)">
            <g id="Section-1" transform="translate(180.000000, 720.000000)">
                <polygon id="Pad---1" fill="#FFFFFF" points="144 0 1100 0 1100 300 0 300"></polygon>
                <g id="Logo" transform="translate(102.000000, 60.000000)">
                    <text id="Get-a-runway-ready-p" font-family=".AppleSystemUIFont" font-size="15" font-weight="normal" line-spacing="16" fill="#222222">
                        <tspan x="114.19873" y="176.850098">Get a runway ready physique and achieve your personal fitness goals.</tspan>
                    </text>
                    <text id="THE-PLACE-FOR-FASHIO" font-family=".SFNSDisplay, .SF NS Display" font-size="24" font-weight="normal" line-spacing="28" letter-spacing="2.76923084" fill="#1D1D1D">
                        <tspan x="126.568397" y="154">THE PLACE FOR FASHION/FITNESS</tspan>
                    </text>
                    <path d="M353.835693,32.1728339 C353.793631,32.3449184 353.777454,32.5287246 353.706024,32.6873416 C351.8267,36.8689951 349.943643,41.0486533 348.057351,45.2268152 C345.9498,49.8947944 343.838267,54.5610278 341.729224,59.2285082 C341.385266,59.9899198 341.046286,60.7533265 340.638116,61.4980285 C340.693617,61.1501185 340.750611,60.8019591 340.804619,60.4537998 C341.25485,57.5388379 340.610241,54.9104342 338.701548,52.6424103 C337.774704,51.5408201 336.644272,50.6696734 335.37795,49.9788414 C333.180801,48.7799861 330.818393,48.1370385 328.342494,47.8829021 C327.5941,47.8060875 326.841226,47.7749128 326.091587,47.7083236 C325.808356,47.6831344 325.679186,47.8078333 325.562957,48.0547372 C324.690618,49.9092595 323.803097,51.7565492 322.919559,53.6058341 C321.601717,56.3641741 320.284872,59.1232623 318.96479,61.8808541 C318.267915,63.3355917 317.561582,64.7855907 316.865702,66.240827 C315.604855,68.8777103 314.349732,71.5170875 313.089881,74.154719 C312.452738,75.4884986 311.809124,76.8195348 311.170736,78.1533144 C309.821784,80.9715099 308.475072,83.7912018 307.126369,86.6101455 C306.495697,87.9284624 305.863033,89.2460312 305.230121,90.5633505 C304.939176,91.1693872 304.6216,91.7639517 304.363009,92.3829571 C304.237571,92.6829827 304.036473,92.7814948 303.760212,92.8106744 C302.11459,92.9855022 300.594406,92.6645272 299.230272,91.6856408 C297.057514,90.1264055 296.075666,87.9666203 296.004983,85.337219 C295.94998,83.2968953 296.355661,81.328897 296.957463,79.3970614 C297.603566,77.3235679 298.462963,75.3361165 299.414944,73.3855761 C301.043393,70.0488825 302.653922,66.7032106 304.269429,63.3595339 C305.226886,61.3780681 306.17837,59.3933602 307.134333,57.4108968 C308.615941,54.3390637 310.099539,51.2682282 311.581643,48.1966445 C312.537856,46.21468 313.493073,44.2317178 314.449535,42.2495039 C315.931391,39.1776708 317.41474,36.1063365 318.896347,33.0345034 C319.85256,31.0522894 320.806533,29.0690779 321.762248,27.0866145 C323.236388,24.0299947 324.711026,20.9733749 326.185416,17.9167551 C327.16353,15.8891507 328.153591,13.8670331 329.116524,11.8319468 C329.755409,10.4814575 330.379611,9.12273814 330.966231,7.74880549 C331.430151,6.66242854 331.687995,5.51145755 331.772864,4.332554 C331.811192,3.79634866 331.730554,3.25615296 331.507305,2.75835489 C331.239505,2.16204467 330.78355,1.80016842 330.116043,1.74629849 C329.932366,1.73133462 329.747445,1.72634666 329.563271,1.72609726 C327.648357,1.72485028 325.733691,1.72584787 323.818777,1.72435148 C323.671686,1.72410208 323.524347,1.70913821 323.348635,1.6991623 L323.348635,0.127457167 C323.752823,0.00649921861 378.118817,-0.0553514435 380.151702,0.0651077089 C380.120343,0.176588539 380.105659,0.286323585 380.060611,0.381094761 C378.941379,2.73216812 377.815676,5.0799993 376.69744,7.43157145 C375.067,10.859794 373.442782,14.2910094 371.813836,17.7199802 C371.093068,19.2373166 370.370059,20.753406 369.641078,22.2670014 C369.560937,22.4333498 369.532315,22.6578078 369.219966,22.7448477 C369.256552,22.5363511 369.276463,22.3812256 369.311555,22.2293424 C369.599514,20.985346 369.798373,19.7276327 369.903153,18.4544568 C370.093798,16.1373015 369.8927,13.8598005 369.194082,11.6384141 C368.611444,9.78563758 367.67116,8.13761671 366.357052,6.69784303 C364.768674,4.95779436 362.828622,3.7684161 360.63894,2.97009365 C358.817855,2.30619662 356.932309,1.92411914 354.994746,1.82835038 C354.024098,1.78021659 353.052704,1.73233221 352.081309,1.73008763 C347.915985,1.71936352 343.750411,1.72559847 339.584838,1.72559847 L338.921064,1.72559847 C339.08931,1.8834673 339.18289,1.98272763 339.287919,2.06827109 C340.582615,3.1244709 341.541814,4.41011672 342.003743,6.03818577 C342.36114,7.29739542 342.42809,8.5758087 342.318083,9.87766538 C342.057004,12.9726925 341.008206,15.8342832 339.755573,18.6322774 C339.158251,19.9658076 338.479793,21.2629258 337.844889,22.5797463 C336.269204,25.8486037 334.698994,29.119955 333.124056,32.3890618 C332.27785,34.1448225 331.425422,35.8978399 330.577474,37.6528524 C329.335044,40.2241441 328.09361,42.7961839 326.854167,45.3692213 C326.768302,45.5472914 326.701602,45.735088 326.609514,45.958299 C327.198374,45.958299 327.748408,46.0054352 328.287491,45.9485725 C329.451522,45.8261182 330.61406,45.6767289 331.769628,45.4906781 C334.146223,45.1078524 336.437699,44.4080421 338.672429,43.523428 C342.33451,42.0736784 345.709627,40.1248837 348.736058,37.5944933 C350.648483,35.9958532 352.37325,34.2116612 353.840919,32.1875484 L353.835693,32.1728339 Z M354.335079,32.1273437 C358.467302,32.1241016 362.599524,32.1248497 366.731498,32.1246004 L367.147632,32.1246004 C371.329383,38.9977552 375.502423,45.8561955 379.7118,52.774242 C380.082388,52.3854308 380.428835,52.0330316 380.762837,51.6694096 C381.648616,50.7057364 382.527923,49.7368258 383.411213,48.7711574 C384.295,47.805489 385.179534,46.8408182 386.065064,45.8766462 C386.916497,44.949385 387.770418,44.0246179 388.621353,43.0968579 C389.528535,42.1074967 390.431487,41.1141452 391.340163,40.1262804 C392.397173,38.9770552 393.462646,37.8360601 394.515675,36.6840915 C396.259357,34.7769463 398.036887,32.897983 399.588431,30.8249883 C400.962271,28.9891708 401.21439,26.9478496 400.530208,24.803527 C399.981667,23.0836796 398.682244,22.1813582 396.958472,21.8489109 C396.533129,21.766859 396.09808,21.7369313 395.604045,21.6750806 C395.52714,19.5666714 395.646604,17.4435476 395.615991,15.2939877 C396.13143,15.2939877 396.598835,15.2585732 397.059021,15.3004721 C398.414693,15.4244228 399.750454,15.6638447 401.012794,16.2005488 C404.634556,17.7405804 406.871028,20.4288397 407.589308,24.3179494 C407.972589,26.3919418 407.869302,28.4621932 407.279696,30.4980277 C406.915579,31.7559904 406.343643,32.9194312 405.542236,33.9447057 C404.509367,35.2662648 403.447379,36.5681215 402.333871,37.821595 C400.851269,39.4900665 399.311671,41.1076608 397.788003,42.7394708 C396.790973,43.8068936 395.777766,44.8593524 394.774763,45.9212884 C394.314328,46.4091105 393.86111,46.9039158 393.387483,47.4141838 C393.566431,47.5628249 393.755832,47.5059622 393.92582,47.5062116 C397.369131,47.510202 400.812691,47.5146911 404.256252,47.5019718 C404.625596,47.5004754 404.862036,47.5974912 405.095738,47.9052481 C406.592029,49.8737452 408.526854,51.2666321 410.873334,52.0143268 C412.69193,52.5939273 414.552587,53.0428434 416.396321,53.5426367 C417.33088,53.7960249 418.269671,54.033701 419.2,54.3619086 L380.80689,54.3619086 C380.88255,54.7362547 384.225562,60.2885986 386.240527,63.5257825 C388.113629,66.5350167 389.930981,69.579416 391.773221,72.6081033 C393.623923,75.6510062 395.474376,78.6941586 397.326074,81.7363133 C399.16931,84.7642524 401.01603,87.7904457 402.858768,90.8186341 C404.699017,93.8435804 406.53603,96.8702725 408.411123,99.9563213 C408.235162,99.9720333 408.127395,99.9904888 408.01938,99.9907382 C403.803283,99.9922346 399.586937,99.988743 395.371089,99.9989683 C395.077157,99.9997165 394.923098,99.8964658 394.776256,99.6520559 C393.332231,97.2463644 391.877503,94.8474067 390.423025,92.4479502 C387.409287,87.4774514 384.392812,82.5081996 381.38007,77.5369526 C378.750111,73.1979292 376.123638,68.8566611 373.49567,64.5163907 C370.911507,60.2479468 368.328587,55.9790041 365.743179,51.7115578 C362.896194,47.0126533 360.047218,42.3152451 357.198988,37.6175876 C356.188519,35.9511113 355.1778,34.284635 354.163598,32.6204032 C354.068773,32.4645296 353.947069,32.3246174 353.836813,32.1752281 C354.005556,32.1664992 354.170318,32.1275931 354.335079,32.1273437 Z M346.296147,99.9658233 C346.494757,99.6226519 346.657029,99.3360938 346.825026,99.0525285 C349.479873,94.5758374 352.135715,90.0993957 354.790811,85.6227047 C354.979216,85.3052212 355.169612,84.988486 355.350302,84.6665134 C355.442389,84.502659 355.5626,84.4153698 355.755236,84.4385638 C355.82144,84.4462951 355.889385,84.4393119 355.956584,84.4393119 L368.194962,84.4393119 L368.718116,84.4393119 C368.618811,84.6517989 368.556341,84.8171497 368.468983,84.967786 C367.270606,87.0285602 366.068247,89.0870899 364.868128,91.1468666 C363.262079,93.9027127 361.657025,96.6595563 360.051723,99.4161505 C360.017874,99.4740108 359.979049,99.5303747 359.954907,99.5922254 C359.826731,99.9209317 359.59054,100.000988 359.245338,99.9999908 C355.098929,99.9880197 350.952271,99.9922595 346.805613,99.9912619 C346.66126,99.9912619 346.516907,99.9772956 346.296147,99.9658233 Z M389.998876,15.6789831 C388.311193,16.5182068 387.156869,17.8637081 386.27781,19.4685832 C386.013993,19.949921 385.825837,20.480889 385.66456,21.0083654 C385.502287,21.5398322 385.606819,22.0496013 386.043361,22.4351704 C386.356706,22.7117526 386.684487,22.9738697 387.021476,23.2207736 C388.648431,24.412147 388.885867,26.6602191 387.849264,28.1117144 C386.693198,29.730057 384.409188,30.1071465 382.803637,28.9339791 C381.655784,28.0952542 381.088328,26.9672278 381.061946,25.5356842 C381.031333,23.8841718 381.652797,22.4538752 382.487803,21.0944077 C383.384284,19.6356797 384.506751,18.3757219 385.913693,17.3871089 C387.094648,16.5571129 388.391334,15.9889847 389.804747,15.6934482 C389.867714,15.6802301 389.934167,15.6834723 389.998876,15.6789831 Z" id="F2X-Logo" fill="#222222"></path>
                </g>
            </g>
        </g>
    </g>
</svg>