<?xml version="1.0" encoding="UTF-8"?>
<svg width="35px" height="35px" viewBox="0 0 35 35" version="1.1" xmlns="http://www.w3.org/2000/svg" xmlns:xlink="http://www.w3.org/1999/xlink">
    <!-- Generator: Sketch 41.2 (35397) - http://www.bohemiancoding.com/sketch -->
    <title>Group 2</title>
    <desc>Created with Sketch.</desc>
    <defs></defs>
    <g id="Symbols" stroke="none" stroke-width="1" fill="none" fill-rule="evenodd">
        <g id="Headshot">
            <g id="Group-2">
                <circle id="Oval" stroke="#969696" fill="#FFFFFF" cx="17.5" cy="17.5" r="16.6410124"></circle>
                <path d="M17.4418405,32.9080251 C13.4406597,32.9080251 9.78808732,31.39603 7.02232551,28.9156785 C7.9159316,28.5589156 8.86797885,28.1668162 9.74595532,27.7808328 C11.1648523,27.1597256 11.4706491,26.7852944 12.9010983,26.1485576 C12.9010983,26.1485576 13.0512785,25.4078499 12.9975942,24.9681821 L14.1168104,24.9681821 C14.1168104,24.9681821 14.371641,25.1183623 14.1168104,23.3787185 C14.1168104,23.3787185 12.7522773,23.0131215 12.6877202,20.2419233 C12.6877202,20.2419233 11.6629612,20.5898521 11.5997632,18.9106881 C11.5583108,17.7724446 10.6830525,16.7843813 11.9415761,15.9682437 L11.3021211,14.2285999 C11.3021211,14.2285999 10.0225315,7.20478807 13.7002472,8.23566293 C12.1495179,6.36690495 22.494962,4.49814697 23.1663558,10.4272064 C23.1663558,10.4272064 23.6454374,13.6271996 23.1663558,15.818743 C23.1663558,15.818743 24.6763123,15.6420605 23.6665034,18.5681957 C23.6665034,18.5681957 23.113351,20.6720774 22.2598383,20.1997913 C22.2598383,20.1997913 22.3998253,22.8636209 21.0556786,23.314841 C21.0556786,23.314841 21.1521745,24.7323788 21.1521745,24.8288747 L22.431764,25.022546 C22.431764,25.022546 22.2394519,26.1832146 22.4637028,26.3102901 C22.4637028,26.3102901 23.9811343,27.3574741 25.790092,27.825683 C26.598075,28.0343043 27.43324,28.2850577 28.2480184,28.5534793 C25.4394451,31.2478885 21.6319356,32.9080251 17.4418405,32.9080251" id="Avatar" fill="#C8C8C8"></path>
            </g>
        </g>
    </g>
</svg>