<?xml version="1.0" encoding="UTF-8"?>
<svg width="28px" height="18px" viewBox="0 0 28 18" version="1.1" xmlns="http://www.w3.org/2000/svg" xmlns:xlink="http://www.w3.org/1999/xlink">
    <!-- Generator: Sketch 41.2 (35397) - http://www.bohemiancoding.com/sketch -->
    <title>video_control_sound</title>
    <desc>Created with Sketch.</desc>
    <defs></defs>
    <g id="Symbols" stroke="none" stroke-width="1" fill="none" fill-rule="evenodd">
        <g id="Video-Player-+-Info" transform="translate(-792.000000, -482.000000)" fill="#FFFFFF">
            <g id="Video-Player-VD" transform="translate(0.000000, -1.000000)">
                <path d="M813.102211,493.763644 L817.218281,497.879714 C817.722683,498.384117 818.544243,498.38183 819.052377,497.873696 C819.564053,497.36202 819.563204,496.54441 819.058395,496.0396 L814.942325,491.92353 L819.058395,487.807461 C819.562797,487.303058 819.56051,486.481498 819.052377,485.973364 C818.540701,485.461688 817.72309,485.462537 817.218281,485.967347 L813.102211,490.083416 L808.986141,485.967347 C808.481738,485.462944 807.660178,485.465231 807.152045,485.973364 C806.640369,486.485041 806.641217,487.302651 807.146027,487.807461 L811.262097,491.92353 L807.146027,496.0396 C806.641624,496.544003 806.643912,497.365563 807.152045,497.873696 C807.663721,498.385372 808.481331,498.384524 808.986141,497.879714 L813.102211,493.763644 Z M792.528677,489.485065 C792.527978,488.763382 793.102033,488.178342 793.821997,488.178342 L795.116583,488.178342 L795.124038,495.881426 L793.829453,495.881426 C793.114473,495.881426 792.534307,495.302442 792.533603,494.574702 L792.528677,489.485065 Z M796.411168,488.100872 L802.884095,483 L802.884095,501 L796.411168,495.752179 L796.411168,488.100872 Z" id="video_control_sound"></path>
            </g>
        </g>
    </g>
</svg>