<?xml version="1.0" encoding="UTF-8"?>
<svg width="26px" height="21px" viewBox="0 0 26 21" version="1.1" xmlns="http://www.w3.org/2000/svg" xmlns:xlink="http://www.w3.org/1999/xlink">
    <!-- Generator: Sketch 41.2 (35397) - http://www.bohemiancoding.com/sketch -->
    <title>video_control_sound_on</title>
    <desc>Created with Sketch.</desc>
    <defs></defs>
    <g id="Symbols" stroke="none" stroke-width="1" fill="none" fill-rule="evenodd">
        <g id="Video-Player-+-Info-+-Timeline" transform="translate(-742.000000, -480.000000)" fill="#FFFFFF">
            <g id="Video-Player">
                <path d="M742.621725,488.473657 C742.621725,487.758274 743.196346,487.178342 743.916311,487.178342 L745.210896,487.178342 L745.210896,495.24044 L743.916311,495.24044 C743.201331,495.24044 742.621725,494.660633 742.621725,493.945124 L742.621725,488.473657 Z M746.505482,487.178342 L752.978409,481 L752.978409,500.273377 L746.505482,494.945854 L746.505482,487.178342 Z M764.665796,500.429914 C766.810062,497.780314 768,494.479962 768,491 C768,487.178169 766.563628,483.57829 764.023016,480.826741 C763.648355,480.420973 763.015693,480.395756 762.609925,480.770417 C762.204157,481.145078 762.17894,481.77774 762.553601,482.183508 C764.756336,484.569129 766,487.686036 766,491 C766,494.017753 764.969818,496.875015 763.11112,499.171747 C762.763687,499.601058 762.830063,500.230735 763.259375,500.578168 C763.688686,500.925601 764.318363,500.859225 764.665796,500.429914 Z M762.586392,496.398141 C763.508379,494.764008 764,492.916571 764,491 C764,488.894512 763.406458,486.874192 762.305378,485.131572 C762.01037,484.664679 761.392728,484.525338 760.925835,484.820346 C760.458942,485.115354 760.319602,485.732996 760.61461,486.199889 C761.515139,487.625108 762,489.275496 762,491 C762,492.56996 761.598371,494.079219 760.844512,495.415363 C760.573125,495.89637 760.743056,496.506305 761.224063,496.777692 C761.70507,497.049079 762.315006,496.879148 762.586392,496.398141 Z M758.758475,494.596226 C759.321506,493.598307 759.621725,492.470129 759.621725,491.299734 C759.621725,490.013971 759.259266,488.780219 758.586868,487.71605 C758.406715,487.430932 758.029538,487.345841 757.74442,487.525994 C757.459301,487.706146 757.37421,488.083323 757.554363,488.368441 C758.104291,489.238783 758.400382,490.246628 758.400382,491.299734 C758.400382,492.258464 758.155119,493.180126 757.694758,493.996071 C757.52903,494.289808 757.632802,494.662279 757.926539,494.828007 C758.220277,494.993735 758.592747,494.889963 758.758475,494.596226 Z" id="video_control_sound_on"></path>
            </g>
        </g>
    </g>
</svg>