<?xml version="1.0" encoding="UTF-8"?>
<svg width="27px" height="20px" viewBox="0 0 27 20" version="1.1" xmlns="http://www.w3.org/2000/svg" xmlns:xlink="http://www.w3.org/1999/xlink">
    <!-- Generator: Sketch 41.2 (35397) - http://www.bohemiancoding.com/sketch -->
    <title>video_control_sound_off</title>
    <desc>Created with Sketch.</desc>
    <defs></defs>
    <g id="Symbols" stroke="none" stroke-width="1" fill="none" fill-rule="evenodd">
        <g id="Video-Player-+-Info-+-Timeline" transform="translate(-792.000000, -481.000000)" fill="#FFFFFF">
            <g id="Video-Player">
                <path d="M812.102211,492.763644 L816.218281,496.879714 C816.722683,497.384117 817.544243,497.38183 818.052377,496.873696 C818.564053,496.36202 818.563204,495.54441 818.058395,495.0396 L813.942325,490.92353 L818.058395,486.807461 C818.562797,486.303058 818.56051,485.481498 818.052377,484.973364 C817.540701,484.461688 816.72309,484.462537 816.218281,484.967347 L812.102211,489.083416 L807.986141,484.967347 C807.481738,484.462944 806.660178,484.465231 806.152045,484.973364 C805.640369,485.485041 805.641217,486.302651 806.146027,486.807461 L810.262097,490.92353 L806.146027,495.0396 C805.641624,495.544003 805.643912,496.365563 806.152045,496.873696 C806.663721,497.385372 807.481331,497.384524 807.986141,496.879714 L812.102211,492.763644 Z M792.527412,488.473657 C792.527412,487.758274 793.102033,487.178342 793.821997,487.178342 L795.116583,487.178342 L795.116583,495.24044 L793.821997,495.24044 C793.107017,495.24044 792.527412,494.660633 792.527412,493.945124 L792.527412,488.473657 Z M796.411168,487.178342 L802.884095,481 L802.884095,500.273377 L796.411168,494.945854 L796.411168,487.178342 Z" id="video_control_sound_off"></path>
            </g>
        </g>
    </g>
</svg>