<?xml version="1.0" encoding="UTF-8"?>
<svg width="20px" height="20px" viewBox="0 0 20 20" version="1.1" xmlns="http://www.w3.org/2000/svg" xmlns:xlink="http://www.w3.org/1999/xlink">
    <!-- Generator: Sketch 41.2 (35397) - http://www.bohemiancoding.com/sketch -->
    <title>video_control_settings</title>
    <desc>Created with Sketch.</desc>
    <defs></defs>
    <g id="Symbols" stroke="none" stroke-width="1" fill="none" fill-rule="evenodd">
        <g id="Video-Player-+-Info" transform="translate(-837.000000, -480.000000)" fill="#FFFFFF">
            <g id="Video-Player-VD" transform="translate(0.000000, -1.000000)">
                <path d="M844.969195,498.244987 C844.399012,498.093868 843.85324,497.86719 843.329555,497.564952 L843.242371,497.512642 L840.923278,498.925022 C840.225806,498.390294 839.615519,497.780006 839.092415,497.094159 L840.487358,494.757629 L840.435048,494.670445 C840.156059,494.158965 839.935193,493.618425 839.77245,493.048823 L839.738158,492.944202 L837.104621,492.281604 C837.034874,491.804999 837,491.374891 837,490.991282 C837,490.700668 837.034874,490.276373 837.104621,489.718396 L839.738158,489.055798 L839.77245,488.951177 C839.923569,488.41703 840.144435,487.875908 840.435048,487.329555 L840.487358,487.242371 L839.092415,484.905841 C839.627143,484.231619 840.237431,483.621912 840.923278,483.074978 L843.242371,484.487358 L843.329555,484.435048 C843.841035,484.144435 844.387969,483.917756 844.969195,483.755013 L845.056379,483.737576 L845.718396,481.087184 C846.264749,481.029061 846.694856,481 847.008718,481 C847.403952,481 847.83406,481.029061 848.299622,481.087184 L848.961639,483.737576 L849.06626,483.755013 C849.624237,483.917756 850.164778,484.144435 850.687881,484.435048 L850.775647,484.487358 L853.111595,483.074978 C853.809648,483.621912 854.414124,484.231619 854.925022,484.905841 L853.53066,487.242371 L853.58297,487.329555 C853.849753,487.817786 854.076431,488.358326 854.263005,488.951177 L854.279861,489.055798 L856.930834,489.718396 C856.988375,490.2415 857.018018,490.665795 857.018018,490.991282 C857.018018,491.386516 856.988375,491.816623 856.930834,492.281604 L854.279861,492.944202 L854.263005,493.048823 C854.088056,493.618425 853.861378,494.158965 853.58297,494.670445 L853.53066,494.757629 L854.925022,497.094159 C854.367044,497.803255 853.761988,498.413543 853.111595,498.925022 L850.775647,497.512642 L850.687881,497.564952 C850.141529,497.86719 849.600407,498.093868 849.06626,498.244987 L848.961639,498.279861 L848.299622,500.912816 C847.752688,500.970939 847.322581,501 847.008718,501 C846.614066,501 846.183377,500.970939 845.718396,500.912816 L845.056379,498.279861 L844.969195,498.244987 L844.969195,498.244987 L844.969195,498.244987 L844.969195,498.244987 Z M843.259808,490.991282 C843.259808,492.026446 843.625981,492.909329 844.358326,493.641674 C845.091253,494.374019 845.974135,494.740192 847.008718,494.740192 C848.043301,494.740192 848.926765,494.374019 849.659692,493.641674 C850.392037,492.909329 850.75821,492.026446 850.75821,490.991282 C850.75821,489.968323 850.392037,489.090671 849.659692,488.358326 C848.926765,487.625981 848.043301,487.259808 847.008718,487.259808 C845.974135,487.259808 845.091253,487.625981 844.358326,488.358326 C843.625981,489.090671 843.259808,489.968323 843.259808,490.991282 L843.259808,490.991282 Z" id="video_control_settings"></path>
            </g>
        </g>
    </g>
</svg>